<?xml version="1.0" encoding="utf-8"?>
<!-- Generator: Adobe Illustrator 21.1.0, SVG Export Plug-In . SVG Version: 6.00 Build 0)  -->
<svg version="1.1" id="Layer_1" xmlns="http://www.w3.org/2000/svg" xmlns:xlink="http://www.w3.org/1999/xlink" x="0px" y="0px"
	 viewBox="0 0 2059.9 471.2" style="enable-background:new 0 0 2059.9 471.2;" xml:space="preserve">
<style type="text/css">
	.st0{fill:#FFFFFF;}
	.st1{fill:#2E38C9;}
	.st2{fill:#548B2E;}
	.st3{fill:#C05813;}
	.st4{fill:#538B2D;}
	.st5{fill:#2630CA;}
	.st6{fill:#373FC9;}
	.st7{fill:#568D31;}
	.st8{fill:#C15C18;}
	.st9{fill:#D5D6ED;}
	.st10{fill:#DADAEF;}
	.st11{fill:#6468CA;}
	.st12{fill:#D5E2CC;}
	.st13{fill:#424AC7;}
	.st14{fill:#EFD5C3;}
	.st15{fill:#E9C2A7;}
	.st16{fill:#F9F9FC;}
	.st17{fill:#2C36C6;}
	.st18{fill:#535AC8;}
	.st19{fill:#F7E9E0;}
	.st20{fill:#FEFEFE;}
	.st21{fill:#F9FAF8;}
</style>
<title>InterACTWEL_weblogo_v5</title>
<path class="st0" d="M1683.2,91h22.9l31.3,219.2l0.5,0.1l25.9-219.2h26.3L1749.4,390h-21.8l-33-229.7l-33.1,229.8h-21.7
	c-1-7.4-2-14.7-3-22c-1-6.7-2.1-13.5-3-20.2c-0.9-6.4-1.5-12.8-2.3-19.2c-0.6-4.6-1.5-9.1-2.1-13.7c-0.6-4.2-1.1-8.4-1.6-12.6
	c-0.9-7-1.9-14-2.8-21c-0.8-6-1.6-12-2.4-18c-1-6.9-2.1-13.7-3-20.6c-0.8-6.4-1.4-12.8-2.2-19.2s-1.7-12.6-2.5-18.9
	s-1.8-12.7-2.7-19.1c-1-6.6-2-13.2-2.9-19.9c-0.6-4.2-1-8.4-1.6-12.7c-1-6.9-2-13.7-3-20.6c-0.8-6.2-1.5-12.3-2.3-18.5
	c-0.9-6.8-1.8-13.5-2.9-20.2c-0.3-2.1,0.1-3,2.4-3c7.9,0,15.7,0,23.9,0l25.9,220.8L1683.2,91z"/>
<path class="st0" d="M1431.1,181.2h-26.6v-66.8h-66.2v251.2h66v-72.8h26.8c0,1.3,0,2.5,0,3.8c0,23.2,0,46.5,0,69.7
	c0,12.2-5.2,19.4-16.7,22.9c-1.5,0.3-3,0.3-4.4,0.2l-79.5-0.1c-9,0-18-7.4-18.6-17.5c-0.2-2.4-0.3-4.7-0.3-7.1
	c0-83.1,0-166.2,0-249.3c-0.1-3.9,0.4-7.9,1.4-11.7c2.6-8.4,9.1-12.5,17.6-12.6c16.9-0.3,33.7-0.2,50.6-0.2c9,0,18,0,27,0
	c14.5,0.1,22.9,8.4,22.9,22.8c0,21.2,0,42.5,0,63.7C1431.1,178.6,1431.1,179.8,1431.1,181.2z"/>
<path class="st0" d="M1196.7,90.2h26.3l52.8,298.8h-26.5l-10.4-66c-1-0.1-2.1-0.2-3.2-0.2c-17.5,0-35,0.1-52.5-0.1
	c-3.2,0-3.9,1.2-4.3,4c-1.7,12-3.7,24-5.6,36c-1.4,8.6-2.8,17.1-4.2,25.7c-0.1,0.3-0.2,0.5-0.4,0.7h-25.4L1196.7,90.2z
	 M1209.7,139.4h-0.5l-26,159.8h52.4L1209.7,139.4z"/>
<path class="st0" d="M1915.7,225.5v23.9H1852v116.4h71v23.3h-97.5v-298h96.5v23h-70v111.4H1915.7z"/>
<path class="st0" d="M902.7,301v66.8H957v-33.5h24.4c0.2,0.5,0.3,1,0.3,1.6c0,11.1,0.2,22.2-0.1,33.4c-0.2,6.7-1.8,13.3-8.3,16.8
	c-3.4,1.9-7.2,2.9-11.1,3.1c-22.2,0.3-44.5,0.2-66.7,0.2c-8.9-0.1-16.3-7-17.1-15.9c-0.3-4-0.5-8-0.5-12c0-43.6,0-87.2,0-130.8
	c-0.1-5.2,0.4-10.4,1.6-15.4c2.2-7.9,8.5-11,15.8-11.1c20.5-0.3,40.9-0.5,61.4-0.6c3.4-0.1,6.7,0.2,10,0.8
	c9.3,1.9,14.7,8.5,14.9,18.9c0.3,12.4,0.1,24.7,0.1,37.1c0,9.2-0.1,18.5,0,27.7c0,2.4-0.9,4.8-2.5,6.6c-3.9,5-8.5,6.4-14.8,6.3
	C944,300.7,923.5,301,902.7,301z M902.7,280.6h54.2v-55.4h-54.2V280.6z"/>
<path class="st0" d="M711.8,226.8c-13.2,0.2-26.4,0.4-39.6,0.8c-5.1,0.1-10.1,0.7-15.6,1.1v160.5h-25.2V203.8H656l0.5,5.1
	c5.1-0.6,10-1.3,15-1.9c10.5-1.2,20.9-2.6,31.5-3.4c6.8-0.6,13.6-0.6,20.4,0c7.5,0.7,12.3,6,13.9,13.5c0.5,2.3,0.7,4.7,0.7,7.1
	c0,53.9,0,107.7,0,161.6c0,1,0,2,0,3.2h-25.4v-4.5c0-50.9,0-101.7,0-152.6c0-1.5-0.1-3-0.1-4.5L711.8,226.8z"/>
<path class="st0" d="M1533.9,115c0,1.5-0.1,3-0.1,4.5c0,88.4,0,176.7,0,265.1v4.6h-26.4v-4.6c0-88.4,0-176.7,0-265.1
	c0-1.5-0.1-3-0.1-4.5l-0.6-0.6h-45.6V91.2H1580v23.2h-45.4L1533.9,115z"/>
<path class="st0" d="M1965,389V91.1h26.2v274.6h68.8V389H1965z"/>
<path class="st0" d="M788.3,225.9h-22.2v-22.2h22.1v-57.6h24.9v57.4h32.5v22.4h-32v141.1h32.3c0,7,0.1,13.6-0.1,20.2
	c0,0.8-1.6,2.1-2.5,2.2c-12.9,0.2-25.7,0.5-38.6,0.1c-8.7-0.2-16.1-8.8-16.1-17.5c-0.1-47.3-0.1-94.7-0.2-142
	C788.3,228.7,788.3,227.6,788.3,225.9z"/>
<path class="st1" d="M353.2,354.2l-0.5,0.6l-0.3,1.6v1.5v0.8l-0.1,2.9c-1.9,2.3-1.9,9.2,0.1,11.4l0.6,2.2l-0.3,4.4l-2.8,15.4
	l-0.4,1.1l-1.2,2.5l-1.9,4.2l-2.4,5l-0.4,1.1l-0.6,1.5l-0.3,1.8l0.1,0.2l-5.3,6.3l-0.7,0.7l-5.4,5.8l-2.2,1.7l-15.2,6.4l-2,1l-4,1.2
	l-6.5,2.5l-4,1.2l-8.8,3.2l-1.8,0.5l-2.5,0.9l-3.8,1.2l-2.3,0.6l-3,0.9l-3.8,1.1l-2.2,0.4l-6.8,1.9l-1.4,0.4l-1.6,0.4l-1.5,0.3
	c-3.2-0.2-6.5-0.7-9,2.1l-1.4,0.3c-1.2-0.2-2.4-0.8-3.5-0.7c-2.8,0.4-5.6,1-8.3,1.7c-13.2,3-26.4,5.9-39.6,9c-1.8,0.4-3.4,1.7-5,2.5
	c0.1,0.1,0.1,0.3,0.1,0.4l-1.6-0.2c-3-1-5.9-1.8-8.3,1.2l-7.4,1.4l-3-0.2l-2.3,0.4l-2.9,0.6l-3.8-0.2l-3.8,0.5l-2.2,0.5l-1.6-0.4
	c-0.6-0.5-1.2-1.3-1.8-1.3c-2.8,0.1-5.6,0.3-8.4,0.7c-0.6,0.1-1.2,0.9-1.8,1.4l-2.2,0.1c-3.2-0.5-6.4-1.1-9.7-1.4
	c-0.5,0-1.1,1.3-1.6,1.9l-4.4-0.1l-0.6-1.6l-0.9,1.3l-1.6,0.2l-1.4-0.6l-1.6-0.3l-3.8,0.2c0-0.1,0.1-0.3,0.2-0.4
	c-3-2.7-6.3-2.5-9.8-1.4l-1.6,0.3l-1.4-0.6l-3-0.6l-3.7-0.8l-1.6-0.5l-7.5-2.4c-2.5-1.2-4.9-2.6-7.5-3.5c-4.1-1.6-8.4-2.9-12.6-4.3
	l-3.2-1.2l-5-2.6l-1-0.3l-2-1.2l-1-0.3l-2-1.2l-1-0.3l-2-1.3c-0.1,0.1-0.2,0.1-0.3,0c0,0,0-0.1,0-0.1l-1.9-1.4
	c-0.1,0.1-0.2,0.1-0.3,0c0,0,0-0.1,0-0.1c-0.9-1.3-1.8-2.5-2.7-3.8c-2.7-3.8-5.3-7.6-8-11.4c-0.9-1.2-1.8-2.5-2.7-3.7l-0.4-0.7
	c0-1.5,0-3.1,0-4.6l0.6-5.2l0.4-2.3l0.4-4.4l0.4-3.1l0.3-1.4l7-15.5c4-4.9,7.3-10.7,12.1-14.5c15.4-12,33.1-20.7,52-25.6
	c2.8-0.7,5.9-0.5,8.9-0.7l0,0l0.8,9l0,0l-3,0.9l-3.7,0.4c-4.5,0.9-9.1,1.4-13.4,2.8c-9.6,3.2-18.7,7.4-26.8,13.7
	c-0.2,0-0.4,0.1-0.4,0.2l-4.1,2.8c-0.2,0-0.4,0.1-0.4,0.3l-2.6,2L60,382l-1.6,1.4l-6.8,7.4l-1.3,1.8c-0.2,0.1-0.3,0.2-0.3,0.4
	l-1.2,1.8l-1.8,3.4l-3,8.7l-0.5,2.2c-0.5,5.6-1.8,11.3-1.3,16.8c0.2,3,3.3,5.7,5.1,8.6l1.5,1.6l4.4,3.7c0,0.2,0.2,0.3,0.4,0.3
	l1.8,1.2c0.1,0.2,0.3,0.3,0.5,0.3c1.1,0.9,2.3,1.8,3.6,2.5c12.5,6.4,25.8,11.2,39.6,14.3c6.6,1.4,13.5,2,20.2,3l2.2,0.2
	c1.3,0.4,2.6,0.6,3.9,0.7c12.4-0.5,24.8-0.9,37.3-1.7c4.8-0.3,9.5-1.3,14.3-2l1.4-0.2l3.8-0.6l1.4-0.2l3.1-0.5l1.4-0.2
	c1,0,2,0,2.9-0.1c12.5-2.6,25.1-5.1,37.6-7.8c5.3-1.1,10.5-2.6,15.8-3.9l4.5-0.9l3-0.6l4.5-1.1l4.6-1.1l1.4-0.3l2-0.7l1-0.1l4.5-1.1
	l1.4-0.4c1.3-0.1,2.7-0.3,4-0.6c12.2-4,24.4-7.9,36.5-12.2c5.3-1.9,10.4-4.3,13.8-9.1l5.2-5.9l1.3-1.8c0.2,0,0.3-0.2,0.3-0.4
	l1.2-1.9c0.2,0,0.3-0.2,0.2-0.4l8.5-16.9l0.9-7.5c0-4,0-8,0-12l0.1-14.3l0.3-3.1l0.4-2.9l7.5-23L351,326l-3.9,3.4l-0.7,0.7l-0.8,0.6
	l-1.5,1.6l-2.4,2.7c-0.8,1.1-1.9,2.1-2.2,3.3c-1.2,5-2.3,10.1-3.2,15.2c-0.2,1.9-0.2,3.9,0,5.9l-0.2,5.2c0,3.7,0,7.5,0,11.2l0.3,3.7
	l0,2.4c0,0.3,0,0.6,0,1l-3.3,7.2c-0.2,0-0.3,0.2-0.3,0.4c0,0,0,0,0,0c-4.8,3.8-9.4,7.8-14.4,11.4c-3.3,2.3-7,4-10.6,5.9l-3.3,1.3
	l-3.8,1.3l-1.4,0.4l-12,2.7l-2.2,0.3l-10.3,2.1h-1l-13.5,2l-1.5,0.3l-3.1,0.4l-6,0.4l-2.3,0.3l-2.2,0.4l-3.1,0.4l-3.7,0.4l-2.3,0.4
	l-4.5,0.4l-2.3,0.2L228,422l-3.1,0.5l-4.5,0.4l-8,1.4h-1l-5.3,0.5l-3,0.3l-4.3,0.6H198l-11.3,2l-1.4,0.2l-2.3,0.5l-2.2,0.4l-3.1,0.5
	l-2.2,0.4l-2.3,0.3l-3.7,0.4l-3.1,0.2l-9.7,0.5l-4.6,0.3l-5.2,0.5l-1.6,0.3l-1.4,0.4l-1.6,0.3h-32.2l-2.3-0.2l-7.8-1.6l-11-6.4l0,0
	l-2.8-2.6c0-0.2-0.1-0.4-0.3-0.4l-2.3-6l-0.2-1.5l2.4-18.8l0.5-1.1l1.1-1.9l1.8-2.7l1.3-1.7c6-5.8,11.9-11.9,18.2-17.4
	c2.5-2.2,6-3.3,9-4.9h2c0.2,0,0.4-0.1,0.6-0.1l1.6,2.2l0.1-0.1l4.7,4.5l-0.3,1.5l0,0h-0.8l-0.7,0.5l-14.2,7.7l-7.4,6.1l-7.6,9
	c-0.2-0.1-0.5-0.1-0.7,0c-2.4,1.1-3,2.9-2.2,5.3l-0.3,2.9l-0.2,1.6c0,1,0,2,0,3c-0.1-0.1-0.3-0.2-0.4-0.1l0.1,0.7
	c0.1,0.2,0.3,0.3,0.5,0.3l0.3,3.4l0.6,1.6l5.3,4.5l15,4.3l6.8,0.1l28.5-1.4l0.7-0.1l9.1-0.6l3.1-0.3l19.5-3.3l1.4-0.2l13.5-1.4
	l1.6-0.2l2.9-1.1l1.4-0.2l5.3,0.1l1.6-0.3l15.6-2l1.6-0.2l3.6-0.5l1.6-0.2l8.9-1.2l1.6-0.3l6.6-0.5l4.6-0.4l-0.1-0.4l4.6-0.5
	l3.6-0.4l1.5,0.3c2.7,0,5.4,0.1,8.1-0.2c0.9-0.1,1.7-1.2,2.5-1.8l1.5-0.5c-0.1,0.1-0.2,0.3-0.1,0.5l3.8-0.7l1.4-0.2l9.8-2l1.4-0.3
	l1.6-0.4l1.4-0.3l4.6-1.3l1.8-0.5l2-1l9.5-5l1.8-0.9l3.8-2.3l0,0l6.1-6.1c0.1,0,0.2-0.2,0.2-0.3c0,0,0,0,0,0c3-2.6,2.8-6,2.6-9.5
	l-0.4-2.4l-0.4-2.9v-4.5l0.4-3.7l0.4-3.1c0-1.3,0.1-2.7,0.2-4c0.8-4.7,1.8-9.3,2.6-14l0.7-1.4l0.1-2.4l1-3.7l6.1-8.9l4.4-5.4
	l4.9-4.1l1.8-0.9l11.1-4.6l3.7-0.9c1.4,1.1,2.6,1.6,2.9-0.9c0.1-0.1,0.1-0.3,0.1-0.5h2.2l4.6-0.6l3.6,1.4l0.2,2.1
	c-4.1,4-8.3,8-12.4,12.1c-0.3,0.3-0.1,1.2-0.1,1.8c0,0.2-0.1,0.3-0.2,0.4l-1.2,1.8c0,0.2-0.1,0.3-0.2,0.5c-2.9,1.2-5.9,5.9-5.8,9.3
	c0,0.2-0.1,0.3-0.2,0.5l-1.1,2.6l-1.2,3.4l-0.9,0.3l0.6,0.5l-0.7,2.9l-0.6,3.1l-0.2,1.4l-0.9,0.4l0.8,0.5L353.2,354.2z"/>
<path class="st0" d="M584.1,389.2H558v-298h26.1L584.1,389.2z"/>
<path class="st0" d="M1048.8,227.3v161.7h-25.2V203.8h24.6l0.5,5.2c6-1,11.7-2.1,17.6-2.8c11.6-1.3,23.1-2.8,34.7-3.3
	s19,6.8,19.3,18.3c0.3,14.4,0.1,28.7,0.1,43.4h-24.7v-37.2H1048.8L1048.8,227.3z"/>
<path class="st2" d="M98.3,221.5c-4.8-3.6-9.5-7.3-14.4-10.7c-12.1-8.5-25-15.8-38.4-22c-2.9-1.3-4.9-0.9-7.4,0.5
	c-9,5.1-16.4,12.1-23.5,19.3c-2.2,2.4-4.5,4.6-7,6.7c-1.4,1.1-3.4,2.1-5,1.9c-1-0.2-1.8-2.6-2.6-4l0.4-3.9l0.4-4.4l0.4-2.3l0.2-2.2
	l0.3-1.6l0.5-2.2l0.5-3.1l0.2-1.4l0.5-1.6l0.3-1.4l0.4-1.6l1-3.7l4.4-12c3.6-7.9,7.4-15.5,13.1-22.3c6.9-8.3,8.4-6.3,16.5-3.9
	c3.7,1.1,7.2,2.5,11.2,3.5C38.8,133.4,26,118.3,21.6,98.5l-0.6-3c0.3-3.3-1.7-7.3,2.9-9.2l15.1,4.5l15.7,6.8l1.5,0.8l4.5,2.4
	L78,113.2v-2l3.8,5.1l-1.3-0.5c-1.2,1.9-1.8,4-3.2,4.8c-1.1,0.6-3.6-0.1-4.7-1.1c-10.7-10.1-23.9-16-37.4-21.4
	c-1.7-0.7-3.4-1.2-5-1.9l-0.9,0.7c1.5,4,2.7,8.2,4.6,12c7.1,14.9,17.4,27.6,28.3,39.8c3.9,4.3,7.6,9.1,12.3,12.4
	c12.7,8.9,25.8,17,38.7,25.4l1.3,1.4l17.4,17.9l29.1,36.9l3-9l2.4-6.9c0.4-1.2,0.9-2.3,1.2-3.5c3.3-9.9,6.7-19.8,10-29.8l0.3,3.9
	v17.1l-0.3,4.6c-0.4,0.4-0.8,0.9-1.1,1.5c-3.3,9.9-6.6,19.8-9.6,29.8c-0.4,1.5,0.8,3.5,1.3,5.2l1.1-0.3l8.2-16.2l0.1,18.4
	c-4.7,7-4.3,6.7,0,11.9v22.9l-1.9,1c-3.4,0.9-5.3-1.3-7.2-3.5c-4.5-5.2-8.8-10.6-13.5-15.6c-7.8-8.3-15.6-16.4-23.7-24.3
	c-7-6.8-14.4-13.1-21.6-19.7l-1.8-1.9l-0.8,0.4l0.7,2.5l0.4,2.2l0.4,3.1l0.3,2.2l0.4,2.3l0.2,1.5l0.6,3.8l0.3,2.9l0.4,2.3l0.6,3.6
	l0.2,1.6l0.3,2.2l1.1,7.6l0.5,3.6l1,6.1l0.2,1.5l1.3,8.3l1.8,11.1l1.3,7.6l0.3,2.2l0.4,2.3l0.7,3.8l0.2,1.5l0.2,1.4l0.4,2.3l0.2,1.4
	l0.5,2.3l0.9,5.2l1.3,3.2c0.7,4.4,0.9,8.8,2.2,13c0.9,3,0.6,4.9-2.2,6.3c-0.1-0.2-0.4-0.2-0.5-0.1c0,0-0.1,0.1-0.1,0.1
	c-3,0.2-4.3-1.9-5.4-4.2c0.1-0.1,0.1-0.2,0-0.3c-0.1-0.7-0.2-1.4-0.3-2.1l-0.4-1.5l-1.2-5.2l-0.3-1.6l-0.3-1.4l-0.5-2.3l-0.2-1.4
	l-0.5-2.3l-0.5-2.9l-0.3-1.6l-0.5-2.1l-0.8-1.7l-1.5-11.8l-0.1-1.5l-0.4-2.1l-0.3-1.6l-0.4-2.9l-0.4-2.3l-0.3-2.2l-0.4-2.3
	l-1.9-12.6l-0.4-2.3l-0.3-2.2l-0.4-2.3l-0.5-3.7l-0.2-1.6l-0.4-2.2l-0.2-1.6l-0.4-3.6l-0.4-2.3l-0.3-2.2l-0.5-3.1l-0.4-2.9L102,247
	l-0.3-2.2l-0.4-2.3l-0.2-2.2l-0.5-3.1l-0.5-3.6l-0.4-2.3l-0.5-3.7L99,226l-0.4-2.9L98.3,221.5z M174.3,283l0.9-0.5
	c-1.8-3.3-3.2-6.8-5.3-9.8c-10.5-15.6-21-31.3-31.9-46.6c-25.6-36.1-61.1-58.4-102.2-73c-2.8-1-4.5-0.7-6.4,1.7
	c-10.8,13.4-16.6,28.9-19.5,45.6c0,0.2,0.4,0.4,0.4,0.4l21.2-17.8c-1-0.4-2-0.9-3-1.2c-2.6-0.8-4.9-2.2-4-5.3c1-3.2,3.6-3.5,6.4-2.3
	c12.6,5.6,25.7,10.4,37.8,17.2c35,19.6,64.4,46.1,91.4,75.5C164.9,272.1,169.5,277.6,174.3,283L174.3,283z"/>
<path class="st3" d="M177.7,219.1l0.3-4.6c3.2,0.9,3.6,3.2,3.6,6.1c-0.1,24.2-0.1,48.5,0,72.7c0,1.8-0.5,4.2,2.6,3.7
	c2.4-0.5,6.3,2.2,6.9-3.1c1.5-14,3.2-28,4.8-42.1c1.3-10.9,2.6-21.8,3.8-32.8c0.3-2.7,1.6-4.7,4.5-4.4c3.1,0.3,4,2.6,3.6,5.5
	c0,0.4-0.1,0.7-0.1,1.1c-2.4,20.8-4.9,41.7-7.3,62.5c-0.5,4.3-0.9,8.6-1.4,12.8c8.5,1.4,8.6,1.2,10.3-6.1
	c5.6-23.8,11.2-47.7,16.9-71.5c0.6-2.7,1.8-4.8,5-4.4c2.6,0.3,3.7,2.8,2.9,6.2c-4.1,17.4-8.3,34.8-12.4,52.1
	c-1.9,7.9-3.7,15.7-5.5,23.6c7.1,1.3,8.4,0.9,9.7-2.7c11.3-31.2,22.7-62.4,34-93.7c0.3-1,0.5-2,0.7-3H256l-78,0.1l-0.3-3.9l0.1-3.5
	c1.4-0.4,2.8-0.7,4.2-0.8c26,0,52-0.1,78,0c3.1,0,4.3-1,5.2-3.8c17.2-52.4-16.6-109.1-70.9-118.9c-1-0.2-2-0.2-3-0.3l-2.3-0.4
	l-5.2-0.4l-5.9-0.9c0-2.4,0-4.7,0-7.1l5.2-0.5l5.2,0.4l1.6,0.2c9.1,2.5,18.5,4,27.1,7.7c8.3,3.7,16,8.4,23.1,14
	c18.1,13.8,29,32.6,34.8,54.4c0.9,3.5,1.4,7.1,2.1,10.6l0.4,3.1c0,6.7,0,13.5,0,20.2l-0.4,2.3c-2.1,14.5-7.6,27.9-12.6,41.5
	c-4.3,11.6-8.3,23.4-12.6,35c-4.5,12.3-9.1,24.5-13.6,36.8c-2.5,6.9-4.8,14-7.5,20.9c-2.5,6.5-5.3,12.8-11.7,16.7
	c-0.8,0.4-1,2.1-1,3.3c-0.1,8.6,0,17.2,0,25.9c0,8-0.9,9.1-8.7,10.4c-5.7,0.9-11.5,1.7-17.2,2.6l-2.3,0.5l-2.9,0.4l-1.6,0.4L178,366
	l-1-9.2l30-5.3l1.6-0.4c0.5-0.6,1.3-1.2,1.3-1.8c0.1-8.7,0.1-17.4,0.1-26.6h-32.7l1.9-8.3c4.8,0.1,9.7,0.4,14.5,0.4
	c5.4,0,10.9-0.3,16.4-0.4s8.6-3.8,10.8-8.4l-1.1-0.7h-42.1c0-4.3,0-8.1,0-11.9l0.1-1.2c0-7.6,0-15.3,0-22.9c0-4,0-8,0-11.9
	c0-6.1-0.1-12.2-0.1-18.4C177.7,232.4,177.7,225.8,177.7,219.1z"/>
<path class="st4" d="M81.8,116.4l-3.8-5.1c-1-0.9-2-1.8-2.9-2.8c-3.8-4.3-8.1-8-13.6-9.9c-0.5-1.4-1.4-2.8-1.2-4.1
	c0.5-3.7,3-4.4,7.7-1.9c7.6,4.1,14,9.9,18.9,17c7.3,10.2,11.9,21.7,14.7,33.9c1,4.4,3.1,8.6,4.8,12.9l1.5,3.7l1-0.3l-0.7-3.6
	l-0.7-9.6l-0.1-1.5l-0.1-21l0.2-4.5l0.6-6l0.3-3.1l0.3-2.2l0.5-3.1l0.4-2.2l0.5-1.6l0.2-1.4l0.5-1.6l0.2-1.4l0.6-1.6l0.8-2.4
	l0.7-2.1l0.8-1.7l1-2c2.8-3.6,5.4-7.4,8.5-10.6c1.3-1.3,1.8-2.1,0.8-3.6c-5.5-8.9-10.8-17.9-16.6-26.6c-2.6-3.9-6.2-7.1-9.5-10.5
	c-1-0.9-2.2-1.6-3.4-2.2L109,75.2l0.5,2.3l0.3,2.2l0.4,2.3l0.1,6l-0.9,1.4c-4.2,2.1-5.4,1.6-7.2-2.8l-0.2-3.1l-0.6-3.7l-0.2-1.6
	l-0.2-1.4l-0.4-1.6l-0.3-1.4l-1.5-5l-0.7-2.5l-0.6-1.6c-6.3-13.5-12.6-27.1-19-40.6c-1.7-3.6-1.2-6.4,2.1-7.1
	c1.6-0.3,3.5,0.5,5.1,1.2c7.2,3,13.4,7.7,19.1,13c12.6,11.5,21.1,26,28.4,41.1l2.6,0.8l1.3,0.1l1.7,0.2l1.4,0.2l3.8,1.3l11.2,7.8
	c2.7,4.2,5.4,8.3,8.1,12.5c0.5-0.1,0.9-0.3,1.3-0.5h-0.1l0.1,0.3h0.3l-0.9,1.6v0.2l0.9,1.6l1.1,2.6l2.9,6.3l1.7,4.2l0.6,1.8l1.4,3.8
	l2.5,8.2l0.5,1.6l0.4,1.4l0.4,1.6l0.4,1.4l1,4.6l-0.1,11.3l-1.5,0.8l-3.2-0.6l-2.1-4.6l-0.2-1.4l-1.4-7.5l-1.2-0.6l-0.9,1.9
	l-0.9,0.2l-4.7-1.7l-0.4-1.1l-0.8-1.9l-1.3-1.2l-5.9-1.8l-0.2-0.1v-0.2c0.3-4.9,2.4-6.5,6.8-5c1.4,0.5,2.7,1.2,3.9,2
	c1,0.6,2,1.2,3.2,1.9c0.6-5.6-1.8-9.1-5.9-9l-2-2l-1.1-2.6l-1-1.1l-2.8-0.8l-4-2.2l0.9-4.1l0,0c2.2-0.1,4.3-0.2,6.5-0.2
	c1.9,0,2.2-0.7,0.9-2.1l-0.8-1.2l-1-1.8l-1.2-2.2l-1.9-3l-1.1-1.4l-1.1-1.6l-1.9-2.2l-2.2-2.3l-2.3-2l-4.1-2.4l-2.6-0.8
	c-2.9-1.6-5.6-1-8.2,0.7l-1.4,0.8l-1.6,1.1l-1.8,1.9c-3.2,2.2-5.1,5.8-5.2,9.6l-0.4,1.6l-1.8,7.3l-0.3,1.6l-1.7,4.7l0.9,0.7l2.2-1.6
	l1.1-0.9l6.6-0.7l1.4,1.9l-3.9,5.2l-0.8,0.5c-0.8,0.9-1.6,1.9-2.1,2.9c-0.4,1.4-0.7,2.8-0.8,4.2l-1,0.6c-2.5-0.2-5.5-0.9-3.8,3.5
	l-0.2,1.8l0.1,1.2l-0.1,3.9c-0.5,0.9-0.8,1.8-1,2.8c0.1,4.7,0.4,9.4,0.7,14c0,0.6,0.6,1.2,0.9,1.8l0.2,2.4l0.4,5.1v1.8l0.8,5.7
	l0.2,1.7l1.8,8.9l1.1,1.4l2.7,3.2l2.6,2.9l2.2,2.3l0,0l3,3l0,0l2.3,2.2l3,2.6l1.2,1.2l0.2,0.2l3.6,2.8l0.2,0.1l1.6,1.3l1.5,1.2v5
	l-1.1,0.7l-5.7-1.6l-4.5-2.5l-17-17.3l-1-0.7l-0.5-0.6c-1.5-2.2-3-4.5-4.6-6.7c-6.4-9.2-11.8-18.9-14.7-29.7
	C91.8,137.6,88.4,126.3,81.8,116.4z"/>
<path class="st5" d="M342.8,412.4l-0.1-0.2l7.5-5.5l2.1-0.8l1.6-2.2l1.5-2.3l2.1-2.3l1.6-3.1l1.6-7.4l0.6-1.6c1.4-6.6,2.9-13.3,4-20
	c1.1-6.3,1.9-12.7,2.8-19c2-0.4,3.1-1,1.1-2.9l3.3-3.2l1.7-1.4l1.3-0.9l1.8-1.3c0.1-0.1,0.3-0.2,0.5-0.3c0.9-0.2,1.9-0.4,2.8-0.8
	c3.6-1.2,7.2-2.4,10.7-3.7l1.7-1.4c6.2-1.6,12.4-3.2,18.5-5.1c1.3-0.4,2.2-2.1,3.3-3.2c0.1-0.1,0.3-0.2,0.5-0.2l2.5-2l1.5-1.5
	l3.2-4.5l1-0.8l-1.1-0.7l-1.6-1.5l-3.1-3l-7.4-5.2l-1.6-0.1l-9-0.8l-1.5-0.6l-4-0.7l-2.2-2.2l-0.7-0.9l-0.7-1.5
	c0.5-0.9,1.5-1.7,1.6-2.6c0.1-1.9,0.1-3.9,0-5.8c0.3-3.8,2.7-6.2,5.4-8.5c1.8-1.6,3.5-3.2,5.3-4.9l1.1-0.5
	c5.8-1.9,11.5-3.9,17.3-5.6c5.5-1.6,11.1-3,16.7-4.5l1.7-1.4l2.9-0.1l1.5-0.6h4.5l1.5,0.7l1.8-0.2l1.9,1.2l0.9,2.1v3.8
	c-2.6,1-5.2,2.3-7.6,3.7c-3.1,2-5.9,4.5-8.9,6.8l-0.8,0.7c-0.7,0.6-1.9,1.2-2,1.9c0,0.9,0.4,1.8,1.2,2.3c2.8,1.6,5.7,2.9,8.8,3.9
	c8.9,2.3,14,8.3,16.9,16.6c-1.2,1.3-1.5,2.4,0.6,3.1l0.1,6l-0.7,2.3c-3.8,4.7-7.6,9.3-11.4,14c-1.6,2-3,4.1-4.5,6.2
	c-0.1,0.1-0.3,0.2-0.4,0.3L444,340c-0.1,0.1-0.3,0.2-0.5,0.2l-1.7-0.2l-2.4,1.5l-3,1.6c-2.6-1.4-2.9,0.3-3,2.2
	c0,0.2-0.2,0.3-0.4,0.3c-0.9-0.2-1.9-0.2-2.9,0c-5.7,2.3-11.3,4.6-16.9,7.3c-3.2,1.6-6.1,3.8-9.2,5.8c-0.1,0.1-0.3,0.2-0.4,0.2
	l-1.8,1.2l-1.2,0.9l-5.8,5c-2.4-0.1-2,1.6-2,3.1c0,6,0,12,0,17.9l-0.7,7.7l-0.1,2.8v0.9l-2.9,7.6l-2.9,3l-1.8,1.3
	c-0.1,0.1-0.3,0.2-0.5,0.2l-1.8,1.2l-1.9,1.1l-6.3,3.5l-8.6,4.2c-1.9,0.5-3.8,0.8-5.5,1.4c-3.8,1.3-7.5,2.8-11.3,4.2l-1.5,0.6
	l-2.2,0.1h-1.6l-6.3,0.1c-0.1-0.1-0.3-0.2-0.5-0.2l0.4-2.9l1.2-3.1c1.8-2.2,3.6-4.5,5.3-6.8C343.9,414,343.1,413,342.8,412.4z
	 M426.9,308.4L426.9,308.4l0.6,0.8l1.4,1.8l-0.5,1.9l-0.7,5.4c-0.4,1.1-0.5,2.5-1.1,3.3c-2,2.5-4.2,4.7-6.4,7.1
	c-5.5,2-11,4-16.5,6.2c-0.5,0.2-0.6,1.4-0.9,2.2l-1.1,0.5c-6.1,0.3-12.1,1.9-17.6,4.7c-3.3,1.4-7,2.4-7.5,6.9l-3.2,5
	c-0.7,0.9-1.9,1.8-2,2.8c-0.3,2.8-0.2,5.7-0.2,8.5c-2.3,0.9-1.7,2.3-0.6,3.8l-0.1,4.5l-0.6,2.3l-1.6,9l-0.6,2.3l-1.5,4.4l-3,6.9
	c-1.3,6-7.5,10-7.3,18.1l8.1-3.8l4.7-2.1l3.3-1.8c0.2-0.1,0.4-0.2,0.6-0.2c3.2,1.6,4.5-0.4,5.3-3l0.5-0.6c4.3-0.5,6.2-3.9,8.1-7.1
	c0.5-0.8-0.2-2.2-0.4-3.4c0-1,0-2,0-3c3.9-0.4,1.4-3.5,2.2-5.3c0-1.2,0-2.5,0-3.7c0-2.3,0-4.5,0-6.8l-0.7-3.7l1.5-3.8l-0.7-4.5
	l0.7-1.5c0.8-0.1,2.1,0,2.4-0.5c3.7-6.2,10-8.8,15.9-12.1c1-0.6,1.6-2,2.4-3l1.4-0.7l16.2-5.5l8.3-3.7l2.8-3.1l0.1,0.2l-0.1-0.2
	l2.2-1.5l0.1,0.1l-0.1-0.1l1.6,0.1l3.7-4l2.1-2.1c3-2.7,6.7-4.9,8.7-8.1c1.2-1.9,2-5.9-1-8.3l0.1-0.8c0.1-1,0.6-2.3,0.2-3
	c-1.7-2.5-3.3-5.5-5.7-7.1c-3.2-2.2-6.4-5.3-11.1-4L438,295c-2.3-2.5-4.6-5-8.5-4.2l0.1-0.1l0.1-11.6l1.7-5l-3.2,0.9l-18.4,5.1
	l-1.7,0.8c-2.6,1.6-6.3,2-6.6,6l-1.8,1.6l-2,2.2c0.1,0.2,0,0.4-0.1,0.5c-0.5,0.5-1.2,0.9-1.4,1.4c-0.8,3.8,3.4,6.4,8.2,5.2l1.4,0.2
	h0.7h1.6l1,0.5l0.3-0.1l0.2,0.1l9.1,2.9l0,0l2.3,1.5l0,0l2.4,1.6h0.3l0.2,0.2l0.7,0.7l1.6,2L426.9,308.4z"/>
<path class="st1" d="M321.1,333.3l-1,1.9l-1.2,1.9v0.1l-0.5,0.7l-1.9,2.8l-1.5,1.7l-9.7,5.4l-0.7-0.2l-1.5-1.5l0.6-7.5l5.5-6.4
	l1.1-5.6c0-3.7,0-7.4,0-11.2l-0.6-6l-0.2-1.5l-0.8-2.8l-4-7.1l-3.9-3.7l-1.2-0.9l-1.9-1.3l-17.3-7.3l-3.8-1.4l-3.4-1.9l-1.7-1.5
	l-1.5-1.4l-0.8-0.8c-2.9-6.4-1.8-10.5,4.6-16.5c1.8-1.5,3.8-2.8,5.8-4c8.5-2.2,17.5-1.6,25.6,1.7c9.5,4.8,13.8,13.7,18.1,22.6
	c3,8.2,4.5,16.8,4.4,25.5l-0.1,3l-0.6,6l-0.1,1.5L325,325l-0.6,1.7L321.1,333.3z M317.4,298.7c0.4-1.1,0.6-1.5,0.5-1.8
	c-2.8-10-6-19.9-14-27.1c-6-5.4-13.3-4.6-20.5-3.2c-1.2,0.4-2.2,1.2-3,2.2c-3.2,3.4-2.9,4.8,1.7,6
	C296.4,278.5,309.2,284.5,317.4,298.7L317.4,298.7z"/>
<path class="st1" d="M462.7,295l1.6-1.5l1.5-0.7l2.9-0.3l4.3-1.5l1.7-0.7l6.5-3.2l7-3.5l7.9-4.1l1.9-1l1.9-1.2l1.8-1.1l1.9-1.2
	l7.1-4.8c5.5-3,11-2.7,16.6,0l6.1,6.1l1.5,3.8l-0.1,5.3l-2.1,5.3c-2.5,4.7-7,6.8-11.3,9.2l-3.8,1.2l-1.4,0.3l-3.8,0.5l-7.4,0.3
	l-8.3,0.4l-20.2,0.3l-8.4-0.1l-1.5-0.1C463.2,301,461,299,462.7,295z M495.4,291.8l0.3,1.1c5.9-0.5,11.9-0.6,17.7-1.8
	c3.5-0.7,6.8-2.9,9.8-4.9c1.1-0.8,2-4,1.3-4.6c-1.6-1.8-3.7-3-6-3.5c-1.3-0.3-3.1,1.3-4.6,2.2c-5.6,3.4-11.1,6.8-16.6,10.2
	C496.7,290.8,496,291.3,495.4,291.8L495.4,291.8z"/>
<path class="st1" d="M355.9,242.4l0.6-1.8l1.4-1.8l0,0l1.7-1.4l3.4-1.9l13.5-2.9h2.3l6.8,1.3l3.2,1.7l0.1,0.3l0.3-0.1
	c4.4,3.1,8.5,6.6,10.6,11.8l0.5,1.6l0.4,2.9c0,3.3,0,6.6,0,9.9l-0.4,8.2l-0.4,1.6l-1,2.2l-7.4,10.4L387,286l-5.2-0.8
	c-0.3-2.1-0.5-4.1-0.9-6.2c-0.5-2.6-1.3-5.1-2-7.7c0-0.2-0.1-0.3-0.2-0.4l-3.7-3.7c0-0.2-0.2-0.3-0.4-0.2l-1.9-1.2l-7.5-4.6
	l-0.7-0.8l0,0l-1.6-1.5l-4.5-4.5l-3.1-7.5v-1.5L355.9,242.4z M389.1,269.1l1.5-0.3c0.2-3.4,0.6-6.8,0.6-10.2
	c0.2-10.8-6.6-17-17.2-15.6c-2.8,0.4-5.4,1.9-8.1,2.9c1.8,2.3,3.1,5.1,5.4,6.7C377.9,257.4,385.4,261.2,389.1,269.1L389.1,269.1z"/>
<path class="st2" d="M164.6,94.7L164.6,94.7L155.4,81c-2.9-6-5.9-12-8.7-18.1c-0.7-1.8-1.1-3.7-1.4-5.6l-0.5-1.6l-0.4-2.2L144,52
	l-0.5-3.6l-0.1-1.6c0-4,0-8,0-12l0.4-2.3l2.4-2.5l3.1,0.1c0.8,1.9,1.5,3.9,2.1,5.9c0.2,1.3,0.2,2.7,0,4.1v2.3l0.5,6.7l0.3,1.6
	l1.8,7.4l0.8,2l2.6,6.4l4.8,9c4.1,6.2,8.1,12.5,12.4,18.6c2.4,3.5,4.1,6.9,3.6,11.3c-0.3,3.1-0.1,6.3-0.1,10.1L168,99.2l-1.8-2
	c0-0.2,0-0.4-0.2-0.5L164.6,94.7z"/>
<path class="st3" d="M193.4,393.9l4-5h-19.3v-8.1h31.8c0-4.1,0-7.8,0-11.5c0-2.6,0.2-5.2,3.7-5.2s4.5,2.1,4.4,5.2
	c0,4.9-0.1,9.7,0,14.6c0,3.1-1.9,5.6-4.4,5.3c-5.9-0.8-8.4,3.2-11.2,6.8c-1.3,1.8-3.5,2.9-5.7,2.6c-4.1-0.1-8.2-0.1-12.4,0
	c-1.2,0-2.3,1-3.5,1.5c1.1,0.5,2.2,1.3,3.3,1.3c3.7-0.1,7.4-0.6,11-0.9c0.8,0,1.7,0.1,2.5,0.2l0.3,1c-1.6,0.5-3.2,1.3-4.8,1.4
	c-5.1,0.2-10.2,0.1-15.4,0.1c0-2.4-0.1-4.9-0.1-7.3c3.9-0.2,7.9-0.3,11.8-0.6C190.9,395.2,192.2,394.4,193.4,393.9z"/>
<path class="st4" d="M164.6,198.2l1.1-3.8l7.5-22.8c-0.8-0.1-1-0.2-1.2-0.2c-0.3,0.2-0.6,0.4-0.9,0.6l-4.9-2.2l-0.9-2.4l-0.8-0.9
	l-1.7-0.9l-4.6-1.1l-1-4.5c3.3-3.8,9.4-3.3,13.5,1.2c1.4,1.7,2.7,3.5,3.8,5.4l2.2-7.6l1.2-0.5l-0.1,24l-0.4,1.6l-0.4,1.4L165,226.8
	l-2.5,5.6c-5,1.1-6.4-0.3-5.8-5.8l2.6-9.7l1.1-3.8l2.6-9.7l1.1-3.8L164.6,198.2z"/>
<path class="st6" d="M213.4,441.3c6.9-1.7,13.7-3.5,20.6-5c7.2-1.7,14.5-3.2,21.8-4.8l3.3-0.6l11.7-1.8l0.8-0.1l3.2-0.7
	c1.4-0.1,2.7-0.3,4-0.4c2.8-0.2,5.6-0.4,8.4-0.6l0.1,2.7l-9.7,4.1l-2.4,0.5l-2.1,0.4l-1.6,0.3l-8.9,1.2l-1.6,0.3l-2.9,0.4l-2.3,0.4
	l-2.9,0.5l-1.6,0.3l-5.9,1.1l-1.6,0.4l-2.1,0.4l-1.6,0.4c-6.5,1.8-12.9,3.7-19.4,5.4c-3.5,0.9-7.1,1.5-10.6,2.3l-2.3,0.3L201,449
	h-7.5l-3.1-2.6l1.4-2l3.2-0.9l0.8-0.1l2.3-0.3l1.1-0.3l13.1-1.2L213.4,441.3z"/>
<path class="st7" d="M177.8,396c0,2.4,0.1,4.9,0.1,7.3l-6.9,0.3l-1.6-0.2l-2.2-0.5l-9-2.8c-9-3.1-15.6-9.5-21.5-16.5
	c-2.9-3.4-5-7.5-7.5-11.4l-2.4-4.5c-1.5-5.1-0.2-7.7,3.7-7.2c1.2,0.2,2.8,1,3.2,2c2.9,7.7,7.5,14.6,13.5,20.1
	c7.8,7.1,16.6,13.3,28.1,13L177.8,396z"/>
<path class="st7" d="M133.6,41.5c1.3,7.1,4.4,13.5,8.1,19.6c0.7,1.4,1.2,2.9,1.5,4.4l-0.7,1.5c-2.8,2.2-5,1.9-7.2-1.1
	c-5.5-7.1-9-15.5-10.3-24.4l-0.4-1.5l-0.3-3l-0.4-3l-0.1-4.5V28l0.1-1.5l0.4-3.1l1-5.2l1.2-3.8c1.1-1.4,2-3.2,3.4-4.1
	c0.8-0.5,3.4-0.1,3.6,0.5c0.7,1.9,0.7,4.1,1,6.2l-0.7,2l-0.4,1.4L133,22l-0.3,2.2l-0.2,1.6l0.6,13.4L133.6,41.5z"/>
<path class="st7" d="M104.2,112l0.2,1.4l0.5,2.3l0.7,3.8l-0.2,4.2l-4.9,1.9l-1.5-0.9l-1.2-2.2l-0.4-1.6c-1.5-6.3-3-12.6-4.6-18.8
	c-0.9-3.4-1.5-7-3-10.2c-2.4-5-5.4-9.6-8.2-14.4c-0.9-1.5-1.7-3-2.6-4.5l0.1-1.7l1.8-2.3l4.5,0.1c8.8,8.9,12.2,20.5,15.9,32
	c0.3,1.1,0.7,2.1,1,3.2l0.5,2.1l0.8,3.2L104.2,112z"/>
<path class="st6" d="M105,443.1l36.1,0.1l1.1-0.3c3.3-0.2,6.6-0.4,9.9-0.8c4.8-0.5,9.6-1.3,14.4-1.9h2.3l2.3,1.8l-0.1,1.5
	c-1.9,0.9-3.8,2.3-5.9,2.7c-4.7,0.9-9.5,1.4-14.2,2l-3.1,0.3c-13.6,0.1-27.2,0.2-40.7,0.3c-4.4,0-8.7-0.2-13.1-0.3l-1.6-0.3
	c-1.8-0.9-4.4-0.9-4.3-3.9l3.6-1.4l10.3,0.1L105,443.1z"/>
<path class="st3" d="M192,77.1c7.4,2.7,14.4,4.5,20.7,7.7s11.8,7.4,17.5,11.3c2.2,1.5,3.1,3.7,1.2,6.1s-4.3,1.9-6.5,0
	c-9.4-7.9-20.6-13.4-32.6-15.8c-2.4-0.5-4.5-1.9-4-4.4C188.6,80.2,190.5,78.9,192,77.1z"/>
<path class="st6" d="M188.3,439.2l-5.6-2.5l0.6-2.1l10.9-1.2l1.6-0.2c5.2-1,10.5-1.9,15.6-3c7-1.5,14-3.2,21-4.9l2.4-0.3l3.6-0.5
	l3.8-0.3c2.2-0.1,4.5-0.1,6.7,0.1c1.3,0.2,2.4,1.2,3.6,1.9c-1,1-1.8,2.5-3.1,3c-1.5,0.7-3.4,0.7-5,1l-1.6,0.2l-8.2,0.6l-1,0.3
	c-5.2,1-10.5,1.8-15.7,3c-5.7,1.2-11.3,2.8-17,4.1l-1.6,0.3l-8.2,0.4L188.3,439.2z"/>
<path class="st8" d="M229.5,8.7c3.1,0.7,5.2,3.6,4.2,6.2c-3.4,9.4-6.8,18.6-10.4,27.9c-1,2.6-2.2,5.2-3.4,7.7
	c-1,2.1-2.8,2.8-4.4,1.2c-1.3-1.2-3.1-3.6-2.7-4.8c3.9-11.7,8.1-23.2,12.4-34.7C225.9,10.8,228.1,9.9,229.5,8.7z"/>
<path class="st8" d="M309.8,76.3c1.1,0.9,3.1,1.6,3.5,2.9c0.6,1.8,0.9,3.8-1.8,5.3c-9.8,5.5-19.4,11.4-29.2,17
	c-1.7,1-3.9,1.9-5.8,1.7c-1.2-0.1-2.7-2.3-3-3.8c-0.3-1,0.9-2.9,1.9-3.6c5.5-3.5,11.2-6.8,16.9-10.2c4.7-2.8,9.4-5.4,14.2-8.1
	C307.5,77.1,308.6,76.6,309.8,76.3z"/>
<path class="st8" d="M251.8,73.3c-1.5-1.4-3.4-2.4-3.9-3.9c-0.4-1.3,0.3-3.4,1.2-4.6c4.2-5.3,8.7-10.5,13.1-15.7
	c3.3-3.9,6.6-7.7,9.9-11.6c1.7-2,3.5-2.8,5.7-0.9s2.4,4,0.7,6.2c-3.1,3.9-6.2,7.9-9.4,11.7c-4.8,5.7-9.8,11.3-14.7,16.9
	C253.6,72.1,252.7,72.8,251.8,73.3z"/>
<path class="st6" d="M66.1,435c-7-6.2-8.2-14.3-7.4-23c0.1-1.5,0-3,0-4.5l0.3-2.3c1.9-6.2,4.2-12.5,9.5-16.6
	c3.2-2.5,7.2-4.2,11.1-5.8c0.9-0.4,2.6,1.1,4,1.7c-0.9,1.1-1.6,2.9-2.7,3.3c-10.5,3.8-16.5,12.3-16.5,24c0,3.1,0,6.1,0.1,9.2
	c1.5,2.9,2.9,5.9,4.4,8.8c1.1,2.3,2.6,4.6-1.1,6L66.1,435z"/>
<path class="st3" d="M311.3,129.2l10.4-1.8l2.3-0.5l2.9-0.4h1.7c2.3,0.7,3.8,2.1,3.2,4.6s-2.1,4.4-5.2,4.1c-1.1,0-2.2,0.1-3.3,0.4
	l-1.6,0.3l-2.2,0.3l-2.3,0.5l-2.9,0.4l-1.6,0.4l-6.6,1.2l-1.6,0.3l-2.9,0.4l-1.6,0.4l-2.9,0.4l-1.6,0.3c-1.4,0.1-2.9,0.8-4,0.3
	c-1.6-0.7-3.8-2.1-3.9-3.3s1.5-3.7,2.9-4.2c3.2-1.2,6.7-1.5,10.1-2.2l1.6-0.2l2.2-0.3l2.3-0.5l2.9-0.4L311.3,129.2z"/>
<path class="st7" d="M178.4,45.1c0,3.9-3.2,6.3-4.7,9.5c-2.1,4.3-4,8.8-6.1,13.1c-0.9,1.5-2,2.9-3.2,4.2h-1.7l-1.4-0.5l-1.1-7.4
	c3.2-10,7.8-19,16.1-25.8l1.4,0.1L178.4,45.1z"/>
<path class="st7" d="M124.4,99.6c0.3-6.6,6-11.7,12.6-11.4c5.2,0.3,9.6,3.8,10.9,8.8c0.6,2.5,0.2,4.6-2.4,5.5s-4.4-0.3-5.2-2.8
	c-0.8-2.2-1.9-3.9-4.5-3.4s-3.3,2.1-3.3,4.6c0.2,2-1.3,3.8-3.3,4c-0.3,0-0.7,0-1,0C125,104.8,124.3,102.4,124.4,99.6z"/>
<path class="st2" d="M135.8,168.2c0.9-0.3,1.8-0.7,2.6-1.3c6.8-6.3,17.3-3.6,20,5c0.8,2.6,0.5,4.9-2.1,6s-4.2-0.5-5.6-2.9
	c-0.8-1.5-2.7-3.1-4.2-3.2c-2.4-0.1-3.4,1.9-3.4,4.4c0,2.7-1.6,4.6-4.2,4c-1.6-0.4-3.2-2.5-3.8-4.2c-0.5-1.4,0.4-3.4,0.7-5.1
	C135.8,170.1,135.8,169.1,135.8,168.2L135.8,168.2z"/>
<path class="st6" d="M293.3,423.2l-6.7,1.1l-12,1.7l-1.1-1.2l2.4-4.2l4-1.2l1.8-0.6c11.4-1.5,22.8-3,33-8.9c0.7-0.5,1.6-0.8,2.4-0.9
	c0.9,0,2.2,0.2,2.6,0.8c0.3,0.9,0.2,1.9-0.4,2.6c-1.6,1.6-3.4,3-5.3,4.1c-4,2.1-8.1,3.8-12.2,5.7l-1.6,0.4l-5.1,0.5L293.3,423.2z"/>
<path class="st4" d="M133.5,150.2c3-2.8,5.9-5.5,10.4-5.6c5.7-0.1,10.7,3.7,12,9.2c0.5,2.6-0.1,4.6-2.7,5.4s-4.1-0.4-4.9-2.7
	c-0.8-2.1-1.7-4-4.4-3.7c-2.8,0.3-3.5,2.3-3.6,4.7c-0.2,3.3-3.2,3.5-5.3,4.7l0.1,0.1v-1l-2-2.1L133.5,150.2L133.5,150.2z"/>
<path class="st7" d="M115.7,152.5c-0.3-0.6-0.9-1.2-0.9-1.8c-0.3-4.7-0.6-9.4-0.7-14c0.2-1,0.5-1.9,1-2.8c0.7-0.7,1.3-1.4,2.1-2
	c2.5-2.1,4.8-4.7,7.6-6c3.3-1.6,5.2,0,6,3.7c0.1,0.6,0.9,1.2,1.3,1.8l-1.8,8.9l-0.7-7.4c-2.9,0.6-5.8,1.3-5.7,5.8
	c0,2.9-2.1,4.1-5,3.6c-1.1-0.3-2.2-0.6-3.3-1L115.7,152.5z"/>
<path class="st2" d="M130.3,140.1l1.8-8.9l1.5-2l6.7-3.1h1.5l4,0.8l1.2,0.4l2.6,1.9l2.8,4.1c0,1.8,0,3.6,0.1,5.5l-1.2,1.1
	c-2.6,0.1-4.3-0.8-5.3-3.6c-1.2-3.6-4.3-4.1-7.1-1.4l-1.4,4.9L132,142L130.3,140.1z"/>
<path class="st2" d="M144.9,108.9l2.1,1.5l1.8,2.4l0.5,1l-0.1,6.9l-1,0.5l-4.2-0.9l0,0l-0.8-1.5l-2.2-3.4c-1.4-0.2-3-0.8-4.1-0.4
	c-3.2,1.3-2.6,4.2-2.6,6.9l-1.8,1.5l-2.9-0.1l-1.3-0.9l-1-2.9V118l3.2-7.1l1.3-1.2l1.7-1l1.1-0.5l2.7-0.8l1.5-0.1L144.9,108.9z"/>
<path class="st8" d="M186,333.2l2.9-0.4l1.6-0.4c2.1-0.1,4.3-0.8,6.2-0.3c1.5,0.4,3.9,2.5,3.7,3.5c-0.4,2-1.8,3.6-3.6,4.5
	c-3.6,1.2-7.5,1.5-11.3,2.2c-2.4,0.4-4.8,0.8-7.7,1.4c0-3,0-5.8,0-8.6l2.1-0.8l1.5-0.2L186,333.2z"/>
<path class="st2" d="M146.4,193.7v1.5l-0.9,1.6l-1,0.9l-4.5-0.9l-0.6-1.1c-0.6-5.6,2.2-9.5,6.2-12.9l1.1-0.5l10.9,1.6l2.2,2.2
	l1.7,8.1l-0.9,1c-3.4,0.9-4.7-1.8-6.4-3.8l-0.4-0.7c-2-3-3.3-3.1-6.1-0.4v0.2h-0.2L146.4,193.7z"/>
<path class="st9" d="M34.7,405.3l-0.3,1.4c-0.2,0-0.5,0-0.7,0c0.1-1.9-0.3-3.9,0.3-5.6c3-8.2,6.7-16.1,12.7-22.6
	c3.6-3.6,7.6-6.7,12-9.4c11.5-7.4,23.7-13.7,36.7-17.9c6-1.9,12.3-2.6,18.5-3.8l0.8,1.4c-3,0.2-6.1,0-8.9,0.7
	c-18.9,4.9-36.6,13.7-52,25.6c-4.9,3.7-8.2,9.6-12.2,14.5L34.7,405.3z"/>
<path class="st6" d="M72.1,413.5c2-1.1,3.5-0.4,4.2,1.5c0.8,1.9,1.4,4,1.6,6.1c0.3,5.5,3.4,8.9,8,11.3c0.8,0.3,1.6,0.7,2.3,1.2
	c0.9,1.1,1.8,2.3,2.6,3.6c-1.4,0.5-3,1.7-4.1,1.3c-6.8-2-12.2-5.7-13.8-13.2c-0.4-1.7-0.7-3.4-1.1-5.1L72.1,413.5z"/>
<path class="st7" d="M133.1,159.2l2,2.1l-0.9,0.7l0.9,0.3l-0.1-0.1l0.8,6l0,0c-3.4,1.3-7.1,2.1-7,7.1c0,1.1-2.7,3.2-3.8,2.9
	c-1.8-0.6-3.2-1.9-3.8-3.7c-1.3-5.6,3.1-11.3,9.3-12.9C131.8,161.4,133.9,161.8,133.1,159.2z"/>
<path class="st7" d="M133.6,150.2c-4.6,0.7-6,2.3-7.1,6.4c-0.4,1.4-2.3,3.5-3.5,3.4c-1.8-0.3-3.4-1.5-4.2-3.1
	c-1.9-5.8,4.2-13.6,10.2-13.5c2.2-0.2,4.1,1.5,4.3,3.7c0,0.2,0,0.3,0,0.5C133.3,148.5,133.4,149.3,133.6,150.2L133.6,150.2z"/>
<path class="st8" d="M178.4,45.1l-0.8-6.9c0-0.4,0-0.8,0-1.2V0.5l1.6-0.5c0.8,1.5,2.2,3,2.3,4.5c0.2,12,0.2,24,0,35.9
	C181.5,42,179.5,43.5,178.4,45.1z"/>
<path class="st10" d="M114,424.5l-15-4.3c0.4-0.1,0.9-0.5,1.3-0.4c5.5,0.6,11,1.8,16.6,1.9c12.9,0.1,25.9-0.2,38.8-0.8
	c7.3-0.4,14.5-1.8,21.7-2.6c1.4,0,2.8,0.2,4.1,0.6l-19.5,3.3l-3.1,0.3l-9.1,0.6c-0.2-0.1-0.5-0.1-0.7,0.1l-28.5,1.4L114,424.5z"/>
<path class="st7" d="M167.3,141.9l1.5,1.6l2.6,7.6l-0.4,1.2l-1.7,1.5c-3.1,0.9-4.8-0.4-6.1-3.3c-0.9-1.5-2.4-2.6-4.1-2.9
	c-2.8-0.4-4.6-1.5-4.6-4.3s2.3-4.1,4.9-3.9c2.1,0.3,4.1,0.8,6.1,1.4L167.3,141.9z"/>
<path class="st11" d="M462.1,306.9c-2.9-8.3-8-14.3-16.9-16.6c-3-1-6-2.3-8.8-3.9c-0.8-0.5-1.2-1.4-1.2-2.3c0.2-0.8,1.3-1.3,2-1.9
	c-0.6,2.5,0.9,3.6,2.8,4.4l13.6,5.4l0,0l3,2.3l0.7,0.7c4.2,5.9,7.8,11.9,7.7,19.5l-0.2,1.5c-2.1,3.8-3.8,7.8-6.3,11.2
	c-2.7,3.6-6.2,6.6-9.4,9.9l0,0l-3,1.5c1.5-2.1,2.9-4.2,4.5-6.2c3.8-4.7,7.6-9.4,11.4-14l0.7-2.3c0-2,0-4-0.1-6L462.1,306.9z"/>
<path class="st6" d="M105.8,362.2c3.1,2.9,0.6,4.2-1.7,5.5l-17.8,9.9H84c-2-2.3-1.2-4.2,1-5.6c4.3-2.8,8.8-5.3,13.3-8l3.8-1.5
	L105.8,362.2z"/>
<path class="st10" d="M297.5,439.2l4-1.2l6.5-2.5l4-1.2l2-1l15.2-6.4c-0.9,1-1.5,2.4-2.6,2.8c-11.3,4.5-22.6,9.2-34.1,13
	c-11.3,3.8-22.9,6.9-34.4,10c-3.4,0.9-7.1,0.9-10.7,1.3c0-0.2,0-0.4,0.1-0.6l1.4-0.3l9-2.1l1.5-0.3l1.6-0.4l1.4-0.4l6.8-1.9l2.2-0.4
	l3.8-1.1l3-0.9l2.3-0.6l3.8-1.3l2.5-0.9l1.8-0.5L297.5,439.2z"/>
<path class="st10" d="M380.5,413l1.9-1.1l1.8-1.2c0.2,0,0.3-0.1,0.5-0.2l1.8-1.3l2.9-3l5-8.5c1.2,4.8-1.5,8.4-4.5,11.4
	c-2.7,2.7-5.9,5-9.4,6.6c-11.7,5.8-23.2,11.9-36,15.2c-2.5,0.6-4.8,1-6.3-1.8c1.7,0.2,3.6,1.2,5.1,0.6c7.5-2.8,14.9-6,22.3-9.1
	l8.6-4.2L380.5,413z"/>
<path class="st11" d="M360.8,388.7l-1.6,7.4l-1.6,3.1l-2.1,2.3l-1.7,0.5l2.6-6.4l0.3-1.1l1-2l0.5-1.8l0.9-2l0.3-1.4l2.7-14.3
	l0.2-2.2l0.5-6l0.2-3.6l1.4-9.8l1.7-3.6l2.2-1.5l-0.1,2.2c-0.9,6.3-1.7,12.7-2.8,19c-1.2,6.7-2.7,13.3-4,20L360.8,388.7z"/>
<path class="st10" d="M446.2,338.5l3-1.5c-0.7,4.9-5.3,5.7-8.6,7.3c-8.9,4.2-18.2,7.7-27.2,11.8c-6.4,3-12.9,6.1-16.1,13.2
	c-0.2,0.4-0.8,0.5-1.2,0.7l-0.3-3.8l4.9-5.1l1.2-0.9l1.8-1.2c0.2,0,0.3-0.1,0.4-0.2c4.7-2.1,9.3-4.1,14-6.2c5-2.2,9.9-4.5,14.9-6.8
	c0.2,0,0.3-0.1,0.4-0.3l2.9-1.1l4.1-2.4c0.2,0,0.4-0.1,0.6-0.2l2.4-1.5c0.2,0,0.3-0.1,0.5-0.2l1.8-1.3
	C446,338.7,446.1,338.6,446.2,338.5z"/>
<path class="st12" d="M165.1,226.8l11.9-41.3c-0.2,1.3-0.4,2.6-0.4,3.9c0,0.2,0.8,0.4,1.2,0.6l-0.1,3.5c-3.3,9.9-6.7,19.8-10,29.8
	c-0.4,1.2-0.8,2.4-1.2,3.5L165.1,226.8z M176.1,192.9l-0.2-0.3c-0.1,0.1-0.2,0.2-0.2,0.2c0.1,0.1,0.2,0.2,0.3,0.3L176.1,192.9z"/>
<path class="st9" d="M119.3,461.2c-6.7-1-13.6-1.6-20.2-3c-13.7-3-27-7.8-39.6-14.3c-1.3-0.7-2.4-1.6-3.6-2.5c5,2,10.1,4,15,6.2
	c12.3,5.5,25.3,9.2,38.7,10.9c2.1,0.2,4.2,0.4,6.2,0.8C117.2,459.8,118.3,460.4,119.3,461.2z"/>
<path class="st9" d="M177,458.4c-4.8,0.7-9.5,1.7-14.3,2c-12.4,0.8-24.8,1.2-37.3,1.7c-1.3-0.1-2.6-0.3-3.9-0.7l6-0.7l1.5-0.7
	l11.2-0.1l1.5-0.6l16.5-0.1l1.5-0.6c4.4-0.2,8.9-0.6,13.3-0.7C174.4,457.9,175.7,458.1,177,458.4z"/>
<path class="st9" d="M57,451.8l1,0.3l5,2.6l3.2,1.2l20,7.8l7.5,2.4c0,0.2,0,0.5,0,0.7c-3.5-0.7-7.2-1.1-10.6-2.3
	c-12.2-4.3-24.7-8.1-35.5-15.5c-1.1-0.8-1.8-2.1-2.7-3.2l1.5,0.1c0,0.1,0.1,0.2,0.2,0.2c0,0,0.1,0,0.1,0l1.9,1.4
	c0,0.1,0.1,0.2,0.2,0.2c0,0,0.1,0,0.1,0l2,1.3l1,0.3l2,1.2l1,0.3L57,451.8z"/>
<path class="st10" d="M368.3,346l-2.2,1.5c1-5.4,5.3-7.8,9.3-10.4c9.8-6.2,21.1-8.5,32-12.1c3-1,5.8-2.1,8.8-3.2l0.3,0.4l-1.3,1.8
	c-0.2,0-0.3,0.1-0.5,0.2c-7.8,2.4-15.8,4.6-23.5,7.4c-4.7,1.7-9,4.4-13.5,6.6c-0.2,0-0.3,0.1-0.5,0.3l-1.8,1.3l-1.3,0.9l-1.7,1.4
	l-3.3,3.2L368.3,346z"/>
<path class="st13" d="M247.6,453.3c0,0.2-0.1,0.4-0.1,0.6l-2.2,0.3l-4.6,1.1l-2.2,0.5l-24.1,5.6l-1.4,0.3L207,463l-1.4,0.2l-2.3,0.5
	l-1.4,0.3l-5.3,1.1l-1.4,0.3l-1.6,0.4l-2.3-0.1c1.7-0.9,3.2-2.1,5-2.5c13.2-3.1,26.4-6,39.6-9c2.8-0.6,5.5-1.3,8.3-1.7
	C245.2,452.5,246.4,453.1,247.6,453.3z"/>
<path class="st9" d="M244.5,444.9c-5.3,1.3-10.5,2.7-15.8,3.9c-12.5,2.7-25,5.2-37.6,7.8c-1,0.1-1.9,0.2-2.9,0.1
	c2.3-1,4.7-1.9,7.1-2.5c13.3-3,26.6-5.9,40-8.6C238.2,445,241.4,445.1,244.5,444.9z"/>
<path class="st11" d="M437.8,265.6c-5.6,1.5-11.2,2.9-16.7,4.5c-5.8,1.7-11.5,3.7-17.3,5.6l9.1-5.1l1.8-0.5
	c9.8-2.8,19.7-5.5,29.5-8.3c3.1-0.9,5.6-0.5,7.6,2.1l-1.8,0.2l-1.5-0.7H444l-1.5,0.6l-2.9,0.1L437.8,265.6z"/>
<path class="st9" d="M275.2,434.6l2.4-0.5l-0.5,2.4l11-4.3c12.1-4.4,25.2-6.5,35.6-15c0.6-0.3,1.3-0.6,2-0.7
	c-3.4,4.8-8.5,7.3-13.8,9.1c-12.1,4.3-24.3,8.2-36.5,12.2c-1.3,0.3-2.7,0.5-4,0.6l1.6-1.8L275.2,434.6z"/>
<path class="st10" d="M419.3,320.5l-1.5,1.5l-1.3,0.2l-0.3-0.4c0.3-0.9,0.7-1.8,1.2-2.7c2.9-4.3,2.1-7.3-3.1-9
	c-4.6-1.5-9.4-2.2-14.1-3.2c-4.2-0.9-8.2-2.4-10.6-6.2c-0.6-0.9-0.2-2.4-0.2-3.5l1,0.4c0,0.2,0.2,0.3,0.3,0.4l0.8,1.6l0.7,0.9
	l2.2,2.2c1.9,1,3.7,2.3,5.7,2.8c5.9,1.7,11.8,3,17.8,4.5l3.1,2.9L419.3,320.5z"/>
<path class="st10" d="M451.8,263.9c-2-2.6-4.5-3-7.6-2.1c-9.8,2.9-19.6,5.6-29.5,8.3c0.7-0.6,1.3-1.6,2.1-1.9
	c9.4-2.8,18.7-5.6,28.2-8.1c4.2-1.2,11.8,2.7,13.4,6.8c0.3,0.7-0.4,1.8-0.6,2.6l-4.1-4.5L451.8,263.9z"/>
<path class="st10" d="M207.8,415.7l-5.3-0.1c0.7-0.5,1.4-1.2,2.2-1.4c12.5-1.8,24.9-3.6,37.4-5.2c2.2-0.3,4.6,0.4,6.9,0.6
	c0,0.2,0,0.5,0,0.7l-6.6,0.5l-1.6,0.3l-8.9,1.2l-1.6,0.2l-3.6,0.5l-1.6,0.2l-15.6,2L207.8,415.7z"/>
<path class="st9" d="M102,362.6l-3.7,1.4l-0.1-0.8h-1.4c-8.1,3.8-16.2,7.5-24.3,11.3c-1.2,0.5-2.5,0.9-3.7,1.3
	c8-6.3,17.2-10.5,26.8-13.7c4.3-1.4,8.9-1.9,13.4-2.8l-3.1,1L102,362.6z"/>
<path class="st10" d="M354.8,343l1.1-3.4l1.2-2.6c0.1-0.1,0.2-0.3,0.2-0.5l5.8-9.3c0.1-0.1,0.2-0.3,0.2-0.5l1.2-1.8
	c0.1-0.1,0.2-0.3,0.2-0.4l6.4-6.3c-1.6,2.7-3.2,5.5-5,8.1c-4.2,6.3-8.9,12.2-10.3,20c-0.1,0.7-1.3,1.3-1.9,1.9l-0.3-1.6l0.7-2.9
	L354.8,343z"/>
<path class="st10" d="M294.7,402.9l-1.4,0.3l-1.6,0.4l-1.4,0.3l-9.8,2l-1.4,0.2l-3.8,0.7c-0.1-0.1-0.1-0.3,0.1-0.5
	c1.5-0.9,3-2.4,4.6-2.5c10.1-1,19.9-3.8,29-8.3c1.2-0.3,2.4-0.5,3.6-0.5l-9.5,5l-2,1l-1.8,0.5L294.7,402.9z"/>
<path class="st10" d="M350.3,406.7l-7.5,5.5l0.3-1.8l0.6-1.5l0.4-1.1l2.4-5l1.9-4.2l1.2-2.5l0.4-1.1l3.4-5.6c-0.1,1.5,0,3.2-0.5,4.6
	c-1.2,3.1-2.6,6-4,9c-0.8,1.7-0.3,2.3,1.5,2l0.4,0.3L350.3,406.7z"/>
<path class="st6" d="M395.8,366.2l0.3,3.8l-0.4,13.4l-0.6,3.8h-1.4H393c0-6,0-12,0-17.9c0-1.4-0.4-3.2,2-3.1L395.8,366.2z"/>
<path class="st11" d="M391.5,284.3l7.4-10.4v1.5c0.4,0.5,0.7,1.5,1.1,1.5c0.9-0.1,1.9-0.4,2.8-0.7c-1.8,1.6-3.5,3.3-5.3,4.9
	c-2.6,2.3-5,4.7-5.4,8.5l-2.6,2.4l-0.2-1.5L391.5,284.3z"/>
<path class="st11" d="M365.7,420.7c-7.4,3.1-14.8,6.2-22.3,9.1c-1.4,0.5-3.4-0.4-5.1-0.6l-1.1-2l6.3-0.1h1.6l2.2-0.1l1.5-0.6
	c3.8-1.4,7.5-2.9,11.3-4.2C361.9,421.5,363.8,421.2,365.7,420.7z"/>
<path class="st9" d="M47.3,434.4c-1.8-2.9-4.8-5.6-5.1-8.6c-0.4-5.5,0.8-11.2,1.3-16.8c0.2,3,0.6,6.1,0.6,9.1
	C44.1,423.7,43.8,429.4,47.3,434.4z"/>
<path class="st9" d="M307.9,408c3.5-2,7.3-3.6,10.6-5.9c5-3.5,9.6-7.6,14.4-11.4c-2.9,3.5-5.1,8-8.8,10.4
	C319.2,404.2,313.3,405.7,307.9,408z"/>
<path class="st10" d="M465.1,314.5c0.1-7.5-3.5-13.6-7.7-19.5l5.3-0.1c-1.7,4,0.5,6.1,3.8,7.6c-0.2,1.6-0.3,3.3-0.5,4.9
	C465.7,309.8,465.4,312.2,465.1,314.5z"/>
<path class="st12" d="M115.8,186.6l17,17.3l-0.9,1.9L114.5,188l0.3-0.4L115.8,186.6z"/>
<path class="st14" d="M210,314.5c-5.4,0.1-10.9,0.4-16.4,0.4c-4.8,0-9.7-0.2-14.5-0.4c0.6-0.4,1.3-0.6,2-0.8c9,0,17.9,0,26.9,0
	C208.7,314,209.4,314.2,210,314.5z"/>
<path class="st7" d="M160.9,117.3c4-0.2,6.5,3.4,5.9,9c-1.2-0.7-2.2-1.3-3.2-1.9c-1.2-0.8-2.5-1.5-3.9-2c-4.4-1.4-6.4,0.1-6.8,5
	c-0.1-1.4-0.9-3.7-0.3-4.2c1.7-1.1,3.6-1.8,5.6-2.1c1.1-0.2,2.4,0.5,3.5,0.9s2.2,0.8,3.5,1.4C165.6,119.6,164.2,117.8,160.9,117.3z"
	/>
<path class="st9" d="M347.2,329.4l3.8-3.4l0.6,0.6l-7.5,23c0.1-2.2-0.2-4.6,0.4-6.7c1.2-4.1,2.8-8,4.3-12L347.2,329.4z"/>
<path class="st10" d="M449.3,337c3.2-3.3,6.7-6.3,9.4-9.9c2.5-3.4,4.2-7.4,6.3-11.2c0.2,0.9,0.8,2,0.5,2.7
	c-2.7,6.9-7.2,12.9-13,17.4C451.6,336.7,450.3,336.7,449.3,337z"/>
<path class="st10" d="M453.7,292l-13.6-5.4c-2-0.8-3.5-1.9-2.8-4.4l0.8-0.7l5.2-2.3l-3.9,4.9c4,1.9,7.8,3.6,11.6,5.5
	C451.9,290.2,452.9,291.1,453.7,292z"/>
<path class="st10" d="M329.9,341.4c-0.9,4.7-1.8,9.3-2.6,14c-0.2,1.3-0.2,2.7-0.2,4l-0.4,3.1l-0.4,3.7h-0.7
	c-0.2-1.8-0.9-3.6-0.7-5.4c0.8-5.6,1.8-11.2,2.9-16.8C328,343.1,329.2,342.3,329.9,341.4z"/>
<path class="st10" d="M214.5,461.4l24.1-5.6c-5.2,1.6-10.4,3.4-15.6,4.7C220.2,461.3,217.3,461.2,214.5,461.4z"/>
<path class="st9" d="M327.9,307c0.1-8.7-1.4-17.4-4.5-25.6c1.4,3.2,3.3,6.3,4.1,9.6c0.9,4.2,1.4,8.5,1.5,12.9
	C329.2,304.9,328.4,306,327.9,307z"/>
<path class="st13" d="M46.5,445.8l-1.5-0.1l-6-5.9l-6-11.2l0.2-1.5c0.9,1.2,1.8,2.4,2.7,3.7c2.7,3.8,5.3,7.6,8,11.4
	C44.8,443.2,45.6,444.5,46.5,445.8z"/>
<path class="st9" d="M305.3,258.8c-8.2-3.3-17.1-3.8-25.6-1.7c1.9-0.8,3.6-1.9,5.6-2.2c6.3-1,12.8-0.2,18.6,2.4
	C304.5,257.5,304.8,258.3,305.3,258.8z"/>
<path class="st9" d="M336.4,359.5c-0.2-1.9-0.2-3.9,0-5.9c0.9-5.1,2-10.2,3.2-15.2c0.3-1.2,1.5-2.2,2.2-3.3
	c-1.3,5.5-2.6,11.1-3.9,16.6C337.4,354.4,336.9,357,336.4,359.5z"/>
<path class="st12" d="M155.4,81l9.2,13.7c-0.4,0.2-0.9,0.4-1.3,0.5c-2.7-4.1-5.4-8.3-8.1-12.5L155.4,81z"/>
<path class="st11" d="M443.2,279.1l-5.2,2.3c3-2.3,5.8-4.8,8.9-6.8c2.5-1.4,5-2.6,7.6-3.7l1.2-0.3l0.3,0.3c-1.2,1.1-2.5,2-3.8,3
	c-2.8,1.8-5.7,3.4-8.6,5C443.5,278.9,443.3,279,443.2,279.1z"/>
<path class="st15" d="M171.1,172c0.3-0.2,0.6-0.4,0.9-0.6c0.2-0.1,0.5,0,1.2,0.2l-7.5,22.8c1.7-6.2,3.4-12.3,5-18.5
	C170.9,174.6,171,173.3,171.1,172z"/>
<path class="st9" d="M86,395.4l-2.2,18.9c-0.2-0.1-0.6-0.2-0.6-0.3c-0.9-6.3-1.5-12.5,2.2-18.3C85.4,395.5,85.7,395.5,86,395.4z"/>
<path class="st11" d="M371.3,318.3l-6.4,6.3c0-0.6-0.2-1.5,0.1-1.8c4.1-4.1,8.2-8.1,12.4-12.1l0.3,1.1l-4,4.2L371.3,318.3z"/>
<path class="st16" d="M274.5,426l12-1.7l0.6,3c-2.8,0.2-5.6,0.4-8.4,0.6c-1.4,0.1-2.7,0.3-4,0.4L274.5,426z"/>
<path class="st10" d="M352.3,361.6l0.1-2.9V358v-1.5h0.4h0.4c0.3,4.8,0.6,9.7,0.7,14.5c-0.2,1.5-0.5,2.9-1,4.3l-0.6-2.2
	C352.3,369.2,352.3,365.4,352.3,361.6z"/>
<path class="st11" d="M394.5,397.7l-5,8.5l2.9-7.6c0-0.3,0-0.6,0-0.9c0-0.9,0-1.8,0.1-2.8c0.5-1,1-1.9,1.5-2.9s0.8-1.8,1.2-2.6
	l0.6,0.9l-0.5,3.7l-0.3,1.6L394.5,397.7z"/>
<path class="st10" d="M201,415.8l-2.9,1.1l-1.6,0.2l-13.4,1.4c2.7-0.9,5.3-2.2,8.1-2.5C194.3,415.6,197.7,415.9,201,415.8z"/>
<path class="st10" d="M327,376c0.2,3.5,0.5,6.9-2.6,9.5c0.4-4.9,0.8-9.9,1.1-14.8c0.2,0,0.5,0,0.7,0l0.4,2.9L327,376z"/>
<path class="st14" d="M177.8,396l-2.3-0.4c3.4-0.5,6.7-1.2,10.1-1.5c2.6-0.3,5.2-0.1,7.8-0.2c-1.3,0.5-2.5,1.3-3.8,1.4
	C185.7,395.7,181.7,395.8,177.8,396z"/>
<path class="st10" d="M402.8,276.2c-0.9,0.4-1.8,0.6-2.8,0.8c-0.3,0-0.7-1-1.1-1.5c3.4-1.4,6.7-2.9,10.1-4.2
	c1.3-0.4,2.6-0.6,3.9-0.7l-9.1,5.1L402.8,276.2z"/>
<path class="st11" d="M353.2,389.5l-3.4,5.6l2.8-15.4L353.2,389.5z"/>
<path class="st9" d="M342.5,389.4l-8.5,16.9c1-2.3,1.9-4.7,3.1-7C338.8,396,340.6,392.7,342.5,389.4z"/>
<path class="st9" d="M527.3,270.1c-5.5-2.6-11.1-3-16.6,0C514.8,265.3,523.1,265.3,527.3,270.1z"/>
<path class="st10" d="M362,372.9l-2.7,14.3c0-2.1-0.4-4.3,0-6.3C360,378.2,360.9,375.5,362,372.9z"/>
<path class="st13" d="M129,471c0.5-0.7,1.1-2,1.6-1.9c3.2,0.3,6.5,0.9,9.7,1.4c0,0.2,0,0.4,0,0.6L129,471z"/>
<path class="st9" d="M260.3,418.1l13.5-2C269.6,418.9,265,419.1,260.3,418.1z"/>
<path class="st16" d="M114.8,348.9l-0.8-1.4c0-2,0-4.1,0-6.4l2.9,0.4l0.1,1.5c-1.4,1.8-0.5,2.2,1.3,2.2c0.1,0.1,0.1,0.2,0,0.3
	c0,0,0,0,0,0l-2.1,3.5L114.8,348.9L114.8,348.9z"/>
<path class="st10" d="M443.7,279c2.9-1.7,5.8-3.3,8.6-5c1.3-0.9,2.6-1.9,3.8-3l1.5-0.8c-0.4,1-0.5,2.5-1.2,2.9
	C452.2,275.2,447.9,277,443.7,279z"/>
<path class="st10" d="M369,307.8h-2.2c1.7-3.2,4.8-3.5,7.8-2.9c1.1,0.2,1.7,2.4,2.6,3.7l-3.6-1.4L369,307.8z"/>
<path class="st7" d="M145.5,182.8c-3.9,3.4-6.8,7.3-6.2,12.9C137.4,190.5,139.9,185.2,145.5,182.8z"/>
<path class="st7" d="M138.8,134.8c2.9-2.6,5.9-2.1,7.1,1.4c1,2.8,2.7,3.7,5.3,3.6c-2.7,1.8-4.3,0.5-5.5-1.9
	C143.6,133.6,143,133.3,138.8,134.8z"/>
<path class="st12" d="M160.2,63.9l1.1,7.4l0.7,3.9l-4.7-8.9L160.2,63.9z"/>
<path class="st9" d="M89.2,424.8l11,6.4C95.5,430.9,91.4,429.4,89.2,424.8z"/>
<path class="st10" d="M337.1,424.1l-0.4,2.9l-2-3l-3.3,1.1l5.4-5.8L337.1,424.1z"/>
<path class="st9" d="M379,271.4c0.7,2.5,1.4,5.1,2,7.7c0.4,2,0.6,4.1,0.9,6.2c-0.8-1.3-2-2.6-2.2-4C379.2,278,379.2,274.6,379,271.4
	z"/>
<path class="st12" d="M39.1,90.8L24,86.2c0.3-0.4,0.8-1.1,0.9-1C29.6,87,34.3,88.9,39.1,90.8z"/>
<path class="st9" d="M33,428.5l6,11.2C35.5,437.8,32,431.4,33,428.5z"/>
<path class="st16" d="M288,432.3l-11,4.3l0.5-2.4l9.7-4.1L288,432.3z"/>
<path class="st7" d="M130.5,110.9l-3.2,7.1c0-0.9,0-1.9,0-3.2l-3.6,0.4l3.9-5.2L130.5,110.9z"/>
<path class="st16" d="M126.9,367.7l2.4,4.5h-1.1H127l-4.7-4.5L126.9,367.7z"/>
<path class="st9" d="M376.5,232.6l-13.5,2.9C367.1,232.7,371.5,231.1,376.5,232.6z"/>
<path class="st13" d="M142.5,470.4c0.6-0.5,1.2-1.3,1.8-1.4c2.8-0.4,5.6-0.6,8.4-0.7c0.6,0,1.2,0.9,1.8,1.3l-3,0.8l-5.9,0.4
	L142.5,470.4z"/>
<path class="st17" d="M389.5,292l2.6-2.5c0.1,1.9,0.1,3.9,0,5.8c-0.1,0.9-1,1.8-1.6,2.6c-0.2,0-0.3-0.2-0.3-0.4l-0.8-2L389.5,292z"
	/>
<path class="st10" d="M356.4,395.5l-2.6,6.5v0.1l-1.5,2.2l-0.1,0.1l-1.7,1.1l-0.4-0.3L356.4,395.5z"/>
<path class="st9" d="M343.4,370c0,4,0,8,0,12C343.4,378,343.4,374,343.4,370z"/>
<path class="st10" d="M337.8,325.1l-6.1,8.9C331.1,331.2,334.6,326.1,337.8,325.1z"/>
<path class="st10" d="M391.5,284.3l-2.1,6.2L387,286L391.5,284.3z"/>
<path class="st9" d="M287.3,413.6l12-2.7l-6.8,2.6l-1.5,0.7L287.3,413.6z"/>
<path class="st9" d="M336.2,375.9c0-3.7,0-7.5,0-11.2C336.2,368.5,336.2,372.2,336.2,375.9z"/>
<path class="st9" d="M274.8,416l10.3-2.1C282.1,416.9,278.5,416.8,274.8,416z"/>
<path class="st12" d="M9.6,171.9L5.3,184c0.2-1.6,0-3.3,0.6-4.7C6.9,176.7,8.4,174.4,9.6,171.9z"/>
<path class="st10" d="M360,310.1l-11.2,4.6C350.4,312.2,356.8,309.5,360,310.1z"/>
<path class="st7" d="M157.6,184l-10.9-1.6C150.6,180.4,154.3,181.1,157.6,184z"/>
<path class="st7" d="M134.3,121.8c-0.1-2.7-0.6-5.7,2.6-6.9c1.1-0.5,2.7,0.2,4.1,0.4c-4.5-0.3-5.3,0.4-5.9,4.7
	C135,120.6,134.7,121.2,134.3,121.8z"/>
<path class="st12" d="M171.3,151.1l-2.6-7.6l2.2-0.8l2.1,4.6L171.3,151.1z"/>
<path class="st7" d="M119.7,95.4c0.1-3.9,2.1-7.4,5.2-9.6L119.7,95.4z"/>
<path class="st9" d="M186.8,427.8l11.3-2L186.8,427.8z"/>
<path class="st10" d="M103.6,388l7.4-6.1C109.8,385.4,107,387.2,103.6,388z"/>
<path class="st10" d="M364.4,351.2L363,361C362,357.5,361.2,354.1,364.4,351.2z"/>
<path class="st10" d="M400.8,262c0-3.3,0-6.6,0-9.9C402.5,254.5,402.5,259.6,400.8,262z"/>
<path class="st18" d="M273.8,407c-0.8,0.6-1.6,1.7-2.5,1.8c-2.7,0.3-5.4,0.1-8.1,0.2c0-0.2,0-0.5,0-0.7l1.4-0.3l3.1-0.4l2.9-0.5
	l1.6-0.4L273.8,407z"/>
<path class="st10" d="M324.2,385.8l-6.1,6.1L324.2,385.8z"/>
<path class="st7" d="M154.1,191.5c1.7,2,3,4.7,6.4,3.8C156.8,197.2,155.5,196.4,154.1,191.5z"/>
<path class="st13" d="M105,468.3c3.5-1.1,6.8-1.3,9.8,1.4l-3,0.1l-3.1-0.4l-3.7-0.4C105,468.7,105,468.5,105,468.3z"/>
<path class="st9" d="M114.8,349h1.4c0.2,2.5,0.4,5.1,0.4,7.6c0,0.5-0.7,0.9-1.1,1.4L114.8,349z"/>
<path class="st15" d="M163,203.4l-2.5,9.7L163,203.4z"/>
<path class="st16" d="M64.3,421.1c0-3.1,0-6.1-0.1-9.2C64.3,414.9,64.3,418,64.3,421.1z"/>
<path class="st15" d="M165.1,226.8h1.4l-2.5,7l-1.4-1.3L165.1,226.8z"/>
<path class="st15" d="M159.4,216.9l-2.6,9.7L159.4,216.9z"/>
<path class="st7" d="M140,196.8l4.5,0.9l-4.4,0.9l0.6,1.3l-3.6-2.8L140,196.8z"/>
<path class="st7" d="M119,178l-1.6-8.8L119,178z"/>
<path class="st10" d="M468,302.7l8.4,0.1C473.5,304.6,470.7,304.8,468,302.7z"/>
<path class="st13" d="M181.5,467.1c2.4-3,5.3-2.2,8.3-1.2c0,0.2,0,0.4,0,0.7l-4.4,0.5l-2.3,0.3L181.5,467.1z"/>
<path class="st10" d="M496.5,302.5l8.3-0.4L496.5,302.5z"/>
<path class="st7" d="M158.2,102.2c1.3,1.4,1,2.1-0.9,2.1c-2.2,0-4.3,0.1-6.5,0.2c1.5-0.5,3-1,4.6-1.5
	C156.3,102.7,157.2,102.5,158.2,102.2z"/>
<path class="st12" d="M116.2,286l-1.3-8.3C117,280.2,117.7,282.9,116.2,286z"/>
<path class="st7" d="M129.8,82c2.6-1.7,5.3-2.3,8.2-0.7L129.8,82z"/>
<path class="st14" d="M158.3,400.1l9,2.8L158.3,400.1z"/>
<path class="st9" d="M303.7,338.5l-0.6,7.5C299.9,343.8,300.1,341.2,303.7,338.5z"/>
<path class="st9" d="M44,406.8l3-8.7L44,406.8z"/>
<path class="st9" d="M355.5,247l3.1,7.5C355.1,253,354.5,250.3,355.5,247z"/>
<path class="st9" d="M496.1,279.5l-7.9,4.1L496.1,279.5z"/>
<path class="st7" d="M161.4,194.3l-1.7-8.1C161.7,188.6,163.7,191,161.4,194.3z"/>
<path class="st16" d="M193.5,449.1h7.5C198.9,450.9,195.7,450.9,193.5,449.1z"/>
<path class="st7" d="M117.4,104.3l1.8-7.3L117.4,104.3z"/>
<path class="st12" d="M167.2,135.2l0.9-1.9l1.2,0.6l1.4,7.5c-0.6-1.3-1.1-2.6-1.8-3.8C168.4,136.7,167.8,135.9,167.2,135.2z"/>
<path class="st12" d="M113.2,266.5l-1.1-7.6C113.9,261.2,114.7,263.7,113.2,266.5z"/>
<path class="st9" d="M212.5,424.4l8-1.4L212.5,424.4z"/>
<path class="st12" d="M119.3,304.7l-1.3-7.6C119.9,299.4,120.7,301.9,119.3,304.7z"/>
<path class="st9" d="M83.9,415.8l2.3,6C83.3,420.6,82.6,418.5,83.9,415.8z"/>
<path class="st11" d="M457.5,270.2L456,271l-0.3-0.3l-1.2-3.5l-0.9-2.1l4.1,4.5C457.6,269.7,457.5,269.9,457.5,270.2z"/>
<path class="st7" d="M140.3,126.1l-6.7,3.1L140.3,126.1z"/>
<path class="st7" d="M120,122.8c0.1-1.4,0.4-2.8,0.8-4.2c0.6-1.1,1.3-2,2.1-2.9c-0.5,1.5-0.9,3-1.5,4.4
	C121.1,121.1,120.6,122,120,122.8z"/>
<path class="st10" d="M347,315.6l-4.9,4.1C341.8,317,343.3,315.8,347,315.6z"/>
<path class="st9" d="M333.1,390.2l3.3-7.2C337,385.9,335.6,388.8,333.1,390.2z"/>
<path class="st7" d="M149.2,120.7l0.1-6.9C151,116.1,152.1,118.4,149.2,120.7z"/>
<path class="st16" d="M72.1,413.5l-0.3,6.7C69.8,417.9,70,415.2,72.1,413.5z"/>
<path class="st7" d="M118.5,109.7l-2.2,1.6l-0.9-0.7l1.7-4.7L118.5,109.7z"/>
<path class="st10" d="M395.6,390.3l-0.6-0.9l0.1-1.4l0.1-0.8l0.6-3.8L395.6,390.3z"/>
<path class="st9" d="M325,325l2.1-7.5C328.2,320.5,327,322.9,325,325z"/>
<path class="st7" d="M132,142l5.4-2.3C136.5,142.7,134.8,143.7,132,142z"/>
<path class="st9" d="M385.6,234l-6.8-1.3C381.1,231.4,384,231.9,385.6,234z"/>
<path class="st7" d="M153.1,127.7l5.9,1.8L153.1,127.7z"/>
<path class="st12" d="M114.7,276.2l-1-6.1C115.8,271.9,116.2,273.9,114.7,276.2z"/>
<path class="st10" d="M481.2,287l-6.5,3.2L481.2,287z"/>
<path class="st9" d="M309.7,309.2l0.6,6L309.7,309.2z"/>
<path class="st9" d="M327.2,316l0.6-6L327.2,316z"/>
<path class="st7" d="M147.7,190.4c2.8-2.7,4.1-2.7,6.1,0.4L147.7,190.4z"/>
<path class="st9" d="M34,409.8l-0.4,4.4H33l0.6-6L34,409.8z"/>
<path class="st7" d="M115.2,126.9c-1.7-4.3,1.3-3.7,3.8-3.5C117.7,124.4,115,124.1,115.2,126.9z"/>
<path class="st10" d="M373.6,316l4-4.2C378.6,315.4,375.9,315.5,373.6,316z"/>
<path class="st10" d="M362.8,364.7l-0.5,6L362.8,364.7z"/>
<path class="st9" d="M321.1,333.3l3.2-6.5L321.1,333.3z"/>
<path class="st12" d="M105.4,123.7l0.2-4.2l1.8-0.1l-0.2,4.5L105.4,123.7z"/>
<path class="st10" d="M207,463l6.1-1.3L207,463z"/>
<path class="st9" d="M275.7,420.6l-2.4,4.2l-0.8-3.4L275.7,420.6z"/>
<path class="st14" d="M177.9,64.5l5.9,0.9C181.6,66.3,179.5,67.3,177.9,64.5z"/>
<path class="st7" d="M144.9,108.9l-6.2-1.7L144.9,108.9z"/>
<path class="st7" d="M126.3,108.1l-6.6,0.7C121.7,107.4,123.8,106.2,126.3,108.1z"/>
<path class="st9" d="M53.3,439.6l-4.4-3.7L53.3,439.6z"/>
<path class="st14" d="M183.1,57l-5.2,0.5C179.4,54.8,181.2,55.2,183.1,57z"/>
<path class="st9" d="M310.3,326.4l-1.1,5.6L310.3,326.4z"/>
<path class="st9" d="M206.3,424.9l5.3-0.5L206.3,424.9z"/>
<path class="st7" d="M116.3,160l-0.4-5.1L116.3,160z"/>
<path class="st7" d="M137.2,206.5l5.7,1.6C140.4,209.9,138.8,208.4,137.2,206.5z"/>
<path class="st12" d="M177.9,158.4l-1.2,0.5c0-1.3,0-2.6,0-3.8h1.5L177.9,158.4z"/>
<path class="st7" d="M117.2,167.5l-0.8-5.7L117.2,167.5z"/>
<path class="st9" d="M142.5,470.4l3.1,0.5l-5.3,0.3c0-0.2,0-0.4,0-0.6L142.5,470.4z"/>
<path class="st9" d="M532.6,290.5l2.1-5.3L532.6,290.5z"/>
<path class="st18" d="M93.1,402.3c-0.8-2.4-0.3-4.2,2.2-5.3l-1.6,5.2l-0.3,0.1L93.1,402.3z"/>
<path class="st9" d="M300.8,294.2l3.9,3.7L300.8,294.2z"/>
<path class="st12" d="M108.1,156.1l0.7,3.6l-1,0.3l-1.5-3.7L108.1,156.1z"/>
<path class="st10" d="M196.5,465.1l5.3-1.1L196.5,465.1z"/>
<path class="st9" d="M375,267.2l3.8,3.8L375,267.2z"/>
<path class="st16" d="M91.6,442.9l-3.6,1.4l-0.3-1.8L91.6,442.9z"/>
<path class="st10" d="M353,351.1l0.2-1.4h0.4h0.4c1.1,1.7,1.7,3.4-0.7,4.5l-0.3-2.1L353,351.1z"/>
<path class="st9" d="M151.5,470.5l3-0.8l1.6,0.4L151.5,470.5z"/>
<path class="st9" d="M152.3,431.5l4.6-0.3L152.3,431.5z"/>
<path class="st18" d="M326.2,370.7c-0.2,0-0.5,0-0.7,0v-4.5h0.7C326.2,367.7,326.2,369.2,326.2,370.7z"/>
<path class="st18" d="M249,410.4c0-0.2,0-0.5,0-0.7l4.6,0.3L249,410.4z"/>
<path class="st10" d="M258,409.1l-4.6,0.5C254.8,407.3,256.4,408,258,409.1z"/>
<path class="st12" d="M85.5,69.2l-4.5,0C82.5,67.1,84,66.9,85.5,69.2z"/>
<path class="st7" d="M161.5,133.7l4.7,1.7C164,136.8,162.5,135.9,161.5,133.7z"/>
<path class="st7" d="M152.4,138.7c0-1.8,0-3.6-0.1-5.5C152.4,135.1,152.4,136.9,152.4,138.7z"/>
<path class="st10" d="M93.8,402.2l1.6-5.2c0.2-0.1,0.5-0.1,0.7,0L93.8,402.2z"/>
<path class="st16" d="M102,362.6l3.7-2.2c0,0.6,0,1.2,0,1.9L102,362.6z"/>
<path class="st7" d="M144.1,207.4v-5C146,204.1,145.9,205.8,144.1,207.4z"/>
<path class="st9" d="M32.7,421.7c0,1.5,0,3.1,0,4.6C30.9,424.8,30.9,423.2,32.7,421.7z"/>
<path class="st19" d="M186,333.2l-4.5,0.8C182.6,331.5,184.3,332.3,186,333.2z"/>
<path class="st15" d="M157.2,159.9l1,4.5C156.2,163.3,155.1,161.9,157.2,159.9z"/>
<path class="st12" d="M166.3,97.2l1.8,2l-1.9,1.9l-1.1-2.6L166.3,97.2z"/>
<path class="st12" d="M98.8,68.8l1.5,5L98.8,68.8z"/>
<path class="st10" d="M240.7,455.4l4.6-1.1L240.7,455.4z"/>
<path class="st9" d="M261,441.1l-4.6,1.1L261,441.1z"/>
<path class="st7" d="M140.6,82.1l4.2,2.4L140.6,82.1z"/>
<path class="st9" d="M270,438.9l-4.5,1.1L270,438.9z"/>
<path class="st9" d="M64.2,378.8l4.1-2.8L64.2,378.8z"/>
<path class="st12" d="M177.9,136l-1-4.6L177.9,136z"/>
<path class="st9" d="M114.7,470l3.8-0.2c0,0.2,0,0.4,0,0.6L114.7,470z"/>
<path class="st9" d="M162.1,469.1l3.8,0.2l-3.8,0.4C162,469.5,162,469.3,162.1,469.1z"/>
<path class="st7" d="M130.5,190.8l-3-3L130.5,190.8z"/>
<path class="st9" d="M199,425.8l4.3-0.6L199,425.8z"/>
<path class="st7" d="M122.7,182.5l-2.7-3.2L122.7,182.5z"/>
<path class="st12" d="M0.4,209.4L0,213.3L0.4,209.4z"/>
<path class="st10" d="M512.3,301.8l3.8-0.5L512.3,301.8z"/>
<path class="st12" d="M108.1,231.2l-0.7-2.5l0.8-0.4l1.8,1.9L108.1,231.2z"/>
<path class="st7" d="M150.8,104.5l-0.9,4.1L150.8,104.5z"/>
<path class="st12" d="M110.3,246.2l-0.6-3.8L110.3,246.2z"/>
<path class="st13" d="M162.1,469.1c0,0.2,0,0.4,0,0.6l-3.8-0.1L162.1,469.1z"/>
<path class="st9" d="M182.2,457.6l-3.8,0.6L182.2,457.6z"/>
<path class="st10" d="M473,290.9l-4.3,1.5L473,290.9z"/>
<path class="st7" d="M145.8,126.9l-4-0.8L145.8,126.9z"/>
<path class="st7" d="M144,120.2l4.2,0.9L144,120.2z"/>
<path class="st16" d="M242.4,424.2l-3.8,0.3C239.6,422.4,241,423,242.4,424.2z"/>
<path class="st9" d="M300.8,410.5l3.8-1.3L300.8,410.5z"/>
<path class="st10" d="M318.1,391.9l-3.8,2.3L318.1,391.9z"/>
<path class="st16" d="M275.2,434.6l-2.2,2.2l-0.1-0.9l0.1-1L275.2,434.6z"/>
<path class="st9" d="M534.8,280l-1.5-3.8L534.8,280z"/>
<path class="st9" d="M276.7,283.2l3.8,1.4L276.7,283.2z"/>
<path class="st12" d="M144.1,75l-3.8-1.3L144.1,75z"/>
<path class="st12" d="M172.6,117.2l-1.4-3.8L172.6,117.2z"/>
<path class="st12" d="M170.6,111.7l-1.6-4.2L170.6,111.7z"/>
<path class="st10" d="M517.5,300.9l3.8-1.2L517.5,300.9z"/>
<path class="st12" d="M126.6,14.4l-1.2,3.8L126.6,14.4z"/>
<path class="st9" d="M252,443.3l-3,0.6L252,443.3z"/>
<path class="st16" d="M105,443.1l-3.1-0.1L105,443.1z"/>
<path class="st9" d="M343.8,352.6l-0.3,3.1L343.8,352.6z"/>
<path class="st12" d="M108.8,236.5l-0.4-3.1L108.8,236.5z"/>
<path class="st12" d="M21,95.5l0.6,3L21,95.5z"/>
<path class="st12" d="M100.5,237.2l0.5,3.1L100.5,237.2z"/>
<path class="st9" d="M255.8,418.8l3.1-0.4L255.8,418.8z"/>
<path class="st9" d="M355.9,242.4l-0.4,3.1L355.9,242.4z"/>
<path class="st9" d="M242.3,420.4l3.1-0.4L242.3,420.4z"/>
<path class="st12" d="M102.7,252.2l0.5,3.1L102.7,252.2z"/>
<path class="st16" d="M188.3,439.2h3C190.3,441.2,189.3,441.2,188.3,439.2z"/>
<path class="st7" d="M153.3,94l1.9,3L153.3,94z"/>
<path class="st9" d="M225,422.6l3.1-0.5L225,422.6z"/>
<path class="st9" d="M171,468.3l3,0.2l-3.1,0.4C171,468.7,171,468.5,171,468.3z"/>
<path class="st12" d="M109.2,105.1l-0.5,3.1L109.2,105.1z"/>
<path class="st12" d="M149.3,30h-3.1C147.3,28.2,148.3,28.1,149.3,30z"/>
<path class="st9" d="M108.7,469.3l3.1,0.4L108.7,469.3z"/>
<path class="st12" d="M108.4,110.4l-0.3,3.1L108.4,110.4z"/>
<path class="st7" d="M153.9,110.8l2.8,0.8L153.9,110.8z"/>
<path class="st13" d="M34,409.8l-0.5-1.6l0.2-1.5c0.2,0,0.5,0,0.7,0L34,409.8z"/>
<path class="st12" d="M102,83.5l0.2,3.1L102,83.5z"/>
<path class="st9" d="M186.8,456.9l-3.1,0.5L186.8,456.9z"/>
<path class="st14" d="M277.5,147.2l-0.4-3.1L277.5,147.2z"/>
<path class="st10" d="M267.8,407.6l-3.1,0.4L267.8,407.6z"/>
<path class="st16" d="M147.7,448.5l3.1-0.3L147.7,448.5z"/>
<path class="st7" d="M146.4,193.7l1-3.1L146.4,193.7z"/>
<path class="st12" d="M2.8,193.7l-0.5,3.1L2.8,193.7z"/>
<path class="st12" d="M123.9,34l0.4,3.1L123.9,34z"/>
<path class="st9" d="M166.5,430.7l3.1-0.2L166.5,430.7z"/>
<path class="st9" d="M177.8,429.4l3.1-0.5L177.8,429.4z"/>
<path class="st12" d="M124.3,23.4l-0.4,3.1L124.3,23.4z"/>
<path class="st16" d="M347.2,329.4l1.6,1.5l-2.3-0.8L347.2,329.4z"/>
<path class="st12" d="M124.4,330.3l-1.3-3.2L124.4,330.3z"/>
<path class="st10" d="M456.7,294.3l-3-2.3L456.7,294.3z"/>
<path class="st9" d="M86.4,422.2l2.8,2.6L86.4,422.2z"/>
<path class="st11" d="M366.7,308.3c-0.3,2.5-1.5,2-2.9,0.9L366.7,308.3z"/>
<path class="st7" d="M127.5,187.8l-2.2-2.3L127.5,187.8z"/>
<path class="st16" d="M191.8,444.4l-1.4,2l-1.1-1.1L191.8,444.4z"/>
<path class="st9" d="M61.2,381l2.6-2L61.2,381z"/>
<path class="st11" d="M353.9,349.7h-0.4h-0.4l0.6-3.1l0.3,1.6L353.9,349.7z"/>
<path class="st7" d="M149.6,129.1l-2.6-1.8L149.6,129.1z"/>
<path class="st7" d="M127.3,119.5l1,2.9L127.3,119.5z"/>
<path class="st7" d="M132.8,193l-2.3-2.2L132.8,193z"/>
<path class="st7" d="M147,86.5l2.2,2.3L147,86.5z"/>
<path class="st7" d="M148.9,112.7l-1.8-2.4L148.9,112.7z"/>
<path class="st19" d="M180.1,334.3l-2.1,0.8l0.7-2.2L180.1,334.3z"/>
<path class="st12" d="M110.2,82l-0.4-2.3L110.2,82z"/>
<path class="st12" d="M109.5,77.5l-0.5-2.3L109.5,77.5z"/>
<path class="st9" d="M336.4,382l0.1-2.4L336.4,382z"/>
<path class="st16" d="M84,377.6h2.2l-1.2,1.3L84,377.6z"/>
<path class="st14" d="M277.1,169.8l0.4-2.3L277.1,169.8z"/>
<path class="st12" d="M109.5,296.5l0.4,2.3L109.5,296.5z"/>
<path class="st13" d="M33,414.2h0.7l-0.4,2.3L33,414.2z"/>
<path class="st16" d="M59,405.2l-0.3,2.3L59,405.2z"/>
<path class="st9" d="M308.7,305l0.8,2.8L308.7,305z"/>
<path class="st13" d="M123,470.6l0.9-1.3l0.6,1.6l-1.5,0.3C123,471,123,470.8,123,470.6z"/>
<path class="st16" d="M207.7,448.5l2.3-0.3L207.7,448.5z"/>
<path class="st12" d="M120,309.2l-0.4-2.3L120,309.2z"/>
<path class="st9" d="M108,432.8l2.3,0.2L108,432.8z"/>
<path class="st14" d="M189.8,363.2l2.3-0.5L189.8,363.2z"/>
<path class="st9" d="M173.3,430.1l2.3-0.3L173.3,430.1z"/>
<path class="st7" d="M157.8,112.7l1.1,2.6L157.8,112.7z"/>
<path class="st12" d="M105,115.7l-0.5-2.3L105,115.7z"/>
<path class="st16" d="M234.9,425l-2.4,0.3L234.9,425z"/>
<path class="st13" d="M171,468.3c0,0.2,0,0.4,0,0.6l-2.3-0.2L171,468.3z"/>
<path class="st10" d="M183,467.4l2.3-0.3L183,467.4z"/>
<path class="st12" d="M104.2,112l-0.6-2.3L104.2,112z"/>
<path class="st13" d="M99,467.4l3,0.6L99,467.4z"/>
<path class="st7" d="M129.6,123.3l2.9,0.1L129.6,123.3z"/>
<path class="st14" d="M324,126.9l-2.3,0.5L324,126.9z"/>
<path class="st12" d="M122.2,322l-0.5-2.3L122.2,322z"/>
<path class="st10" d="M203.2,463.7l2.3-0.5L203.2,463.7z"/>
<path class="st14" d="M306.8,130l-2.3,0.5L306.8,130z"/>
<path class="st12" d="M121.6,318.2l-0.4-2.3L121.6,318.2z"/>
<path class="st14" d="M317.2,136.7l2.3-0.5L317.2,136.7z"/>
<path class="st12" d="M143.8,32.4l-0.4,2.3L143.8,32.4z"/>
<path class="st7" d="M137.3,107.3l-2.7,0.8L137.3,107.3z"/>
<path class="st9" d="M183,428.6l2.3-0.5L183,428.6z"/>
<path class="st12" d="M108.8,292l0.4,2.3L108.8,292z"/>
<path class="st12" d="M109.5,241l-0.4-2.3L109.5,241z"/>
<path class="st14" d="M188.9,65.8l2.3,0.4L188.9,65.8z"/>
<path class="st12" d="M101.3,242.5l0.4,2.3L101.3,242.5z"/>
<path class="st9" d="M247.5,419.5l2.3-0.3L247.5,419.5z"/>
<path class="st12" d="M115.5,331l0.5,2.3L115.5,331z"/>
<path class="st12" d="M102,247l0.3,2.4L102,247z"/>
<path class="st12" d="M133.6,41.5l-0.6-2.3L133.6,41.5z"/>
<path class="st12" d="M111,251.5l-0.4-2.3L111,251.5z"/>
<path class="st12" d="M103.5,257.5l0.4,2.3L103.5,257.5z"/>
<path class="st9" d="M236.3,421.1l2.3-0.4L236.3,421.1z"/>
<path class="st16" d="M183.3,434.6l-0.6,2.1l-1.1-1.2L183.3,434.6z"/>
<path class="st16" d="M168.8,440.2h-2.3C167.3,438.5,168,438.5,168.8,440.2z"/>
<path class="st9" d="M229.5,421.8l2.3-0.2L229.5,421.8z"/>
<path class="st9" d="M255.8,437.5l2.3-0.4L255.8,437.5z"/>
<path class="st18" d="M330.7,337.7l-0.1,2.4L330.7,337.7z"/>
<path class="st12" d="M151.5,42.2V40V42.2z"/>
<path class="st12" d="M105.7,272.5l0.4,2.3L105.7,272.5z"/>
<path class="st12" d="M106.5,277l0.4,2.3L106.5,277z"/>
<path class="st12" d="M1.2,202.7L0.8,205L1.2,202.7z"/>
<path class="st12" d="M135.9,73.2l-2.6-0.8L135.9,73.2z"/>
<path class="st12" d="M99.7,231.2l0.4,2.3L99.7,231.2z"/>
<path class="st9" d="M112.5,358.9l3-0.9L112.5,358.9z"/>
<path class="st12" d="M114.7,327.2l0.5,2.3L114.7,327.2z"/>
<path class="st10" d="M122.2,367.8l-1.6-2.2L122.2,367.8z"/>
<path class="st15" d="M165.3,167.4l0.9,2.4L165.3,167.4z"/>
<path class="st9" d="M123,470.6c0,0.2,0,0.4,0,0.6l-1.6-0.4L123,470.6z"/>
<path class="st9" d="M300,422.5l1.6-0.4L300,422.5z"/>
<path class="st9" d="M251.2,438.2l1.6-0.3L251.2,438.2z"/>
<path class="st9" d="M105,468.3c0,0.2,0,0.4,0,0.6l-1.6-0.4L105,468.3z"/>
<path class="st16" d="M66.1,435l1.5,0.8L66.1,435z"/>
<path class="st9" d="M145.5,432.4l1.6-0.3L145.5,432.4z"/>
<path class="st9" d="M261,436.7l1.6-0.3L261,436.7z"/>
<path class="st13" d="M118.5,470.5c0-0.2,0-0.4,0-0.6l1.6,0.3L118.5,470.5z"/>
<path class="st9" d="M273.1,435l-0.1,1l-1.5-0.7L273.1,435z"/>
<path class="st12" d="M133,22l0.5-1.6L133,22z"/>
<path class="st18" d="M93.7,415.8l-0.6-1.6L93.7,415.8z"/>
<path class="st12" d="M123.8,28v1.5V28z"/>
<path class="st9" d="M332.2,409l-1.3,1.8L332.2,409z"/>
<path class="st16" d="M195.9,433.2l-1.6,0.2L195.9,433.2z"/>
<path class="st12" d="M133.8,19l0.7-2L133.8,19z"/>
<path class="st16" d="M242.9,430.5l1.6-0.2L242.9,430.5z"/>
<path class="st16" d="M159.8,458.5l-1.5,0.6L159.8,458.5z"/>
<path class="st16" d="M291,414.2l1.5-0.7L291,414.2z"/>
<path class="st16" d="M141.8,459.3l-1.5,0.6L141.8,459.3z"/>
<path class="st16" d="M129,460l-1.5,0.6L129,460z"/>
<path class="st9" d="M264.5,440.1l-2,0.7L264.5,440.1z"/>
<path class="st16" d="M170.8,443.5l0.2-1.5l1.2,0.6L170.8,443.5z"/>
<path class="st13" d="M93.8,466.7c0-0.2,0-0.5,0-0.7l1.5,0.6L93.8,466.7z"/>
<path class="st9" d="M240,440.6l1.6-0.4L240,440.6z"/>
<path class="st10" d="M193.5,465.9l1.6-0.4L193.5,465.9z"/>
<path class="st12" d="M132.4,25.8l0.2-1.6L132.4,25.8z"/>
<path class="st10" d="M189.7,466.6c0-0.2,0-0.4,0-0.7l1.6,0.2L189.7,466.6z"/>
<path class="st9" d="M293.3,423.2l1.6-0.2L293.3,423.2z"/>
<path class="st9" d="M55.5,441.1l-1.8-1.2L55.5,441.1z"/>
<path class="st9" d="M142.5,433l1.6-0.3L142.5,433z"/>
<path class="st9" d="M243.7,439.7l1.6-0.4L243.7,439.7z"/>
<path class="st9" d="M259,430.9l-3.3,0.6L259,430.9z"/>
<path class="st16" d="M92.3,448.2l1.6,0.3L92.3,448.2z"/>
<path class="st16" d="M199.4,438.8l1.6-0.3L199.4,438.8z"/>
<path class="st9" d="M363,258.9l1.5,1.5L363,258.9z"/>
<path class="st12" d="M111.8,256.7l-0.2-1.6L111.8,256.7z"/>
<path class="st10" d="M400.3,249.3l-0.5-1.6L400.3,249.3z"/>
<path class="st12" d="M142.5,67l0.7-1.5L142.5,67z"/>
<path class="st9" d="M357.8,238.8l-1.4,1.8L357.8,238.8z"/>
<path class="st9" d="M359.5,237.4l-1.7,1.4L359.5,237.4z"/>
<path class="st12" d="M99,226l0.3,1.6L99,226z"/>
<path class="st12" d="M98.3,221.5l0.2,1.6L98.3,221.5z"/>
<path class="st12" d="M79.2,71.4l-0.1,1.7L79.2,71.4z"/>
<path class="st12" d="M162.7,71.8L162.7,71.8z"/>
<path class="st7" d="M142.6,201.2l-1.6-1.3L142.6,201.2z"/>
<path class="st12" d="M1.7,198.9l-0.3,1.6L1.7,198.9z"/>
<path class="st15" d="M164.6,198.2l-0.5,1.5L164.6,198.2z"/>
<path class="st12" d="M138.8,73.5l-1.7-0.2L138.8,73.5z"/>
<path class="st7" d="M145.5,196.8l0.9-1.6L145.5,196.8z"/>
<path class="st7" d="M137,196.8l-1.2-1.2L137,196.8z"/>
<path class="st12" d="M3.5,190.6L3,192.2L3.5,190.6z"/>
<path class="st12" d="M4.2,187.7l-0.5,1.6L4.2,187.7z"/>
<path class="st12" d="M144,52l0.4,1.6L144,52z"/>
<path class="st12" d="M144.8,55.7l0.5,1.6L144.8,55.7z"/>
<path class="st10" d="M465.8,292.8l-1.5,0.7L465.8,292.8z"/>
<path class="st9" d="M297.8,292l1.9,1.3L297.8,292z"/>
<path class="st9" d="M271.6,279.9l1.7,1.5L271.6,279.9z"/>
<path class="st14" d="M189.9,57.5l-1.6-0.2L189.9,57.5z"/>
<path class="st9" d="M499.9,277.3l-1.9,1.2L499.9,277.3z"/>
<path class="st12" d="M154.7,60l-0.8-2L154.7,60z"/>
<path class="st9" d="M503.6,275l-1.9,1.2L503.6,275z"/>
<path class="st10" d="M400,271.8l0.4-1.6L400,271.8z"/>
<path class="st12" d="M105,267.2l0.2,1.6L105,267.2z"/>
<path class="st9" d="M372.7,265.8l1.9,1.2L372.7,265.8z"/>
<path class="st12" d="M97.5,64.7l0.6,1.6L97.5,64.7z"/>
<path class="st12" d="M104.4,263.5l0.2,1.6L104.4,263.5z"/>
<path class="st7" d="M115.2,129.9l-0.1-1.2L115.2,129.9z"/>
<path class="st14" d="M328.6,126.5L328.6,126.5z"/>
<path class="st12" d="M175.6,127l-0.5-1.6L175.6,127z"/>
<path class="st12" d="M99,124.7l1.5,0.8L99,124.7z"/>
<path class="st12" d="M97.5,121l0.4,1.6L97.5,121z"/>
<path class="st7" d="M143.2,118.7l0.8,1.5L143.2,118.7z"/>
<path class="st7" d="M133.5,108.6l-1.7,1L133.5,108.6z"/>
<path class="st12" d="M114.7,87.2l-1,2L114.7,87.2z"/>
<path class="st12" d="M109.4,89.4l0.9-1.4L109.4,89.4z"/>
<path class="st12" d="M102.9,106.4l-0.5-2.1L102.9,106.4z"/>
<path class="st12" d="M110,101.4l-0.5,1.6L110,101.4z"/>
<path class="st7" d="M156.4,99.2l1,1.8L156.4,99.2z"/>
<path class="st12" d="M110.7,98.4l-0.5,1.6L110.7,98.4z"/>
<path class="st19" d="M56.3,98.4l-1.5-0.8L56.3,98.4z"/>
<path class="st12" d="M111.5,95.4l-0.6,1.6L111.5,95.4z"/>
<path class="st12" d="M113,90.9l-0.7,2.1L113,90.9z"/>
<path class="st7" d="M151.1,91l1.1,1.6L151.1,91z"/>
<path class="st12" d="M177.4,184.1l0.4-1.6L177.4,184.1z"/>
<path class="st15" d="M162.7,165.5l1.7,0.9L162.7,165.5z"/>
<path class="st12" d="M100.5,75.2l0.4,1.6L100.5,75.2z"/>
<path class="st12" d="M101.2,78.2l0.2,1.6L101.2,78.2z"/>
<path class="st12" d="M169.2,153.8l1.7-1.5L169.2,153.8z"/>
<path class="st12" d="M176.3,148l1.5-0.8L176.3,148z"/>
<path class="st12" d="M107.3,145l0.1,1.5L107.3,145z"/>
<path class="st12" d="M167.3,141.9l-1.8-1.2L167.3,141.9z"/>
<path class="st14" d="M295.5,140.5l1.6-0.3L295.5,140.5z"/>
<path class="st7" d="M126.8,83.8l1.6-1.1L126.8,83.8z"/>
<path class="st14" d="M300,139.7l1.6-0.4L300,139.7z"/>
<path class="st14" d="M304.5,138.9l1.6-0.3L304.5,138.9z"/>
<path class="st14" d="M312.8,137.4l1.6-0.4L312.8,137.4z"/>
<path class="st14" d="M321.8,135.9l1.6-0.3L321.8,135.9z"/>
<path class="st7" d="M160.3,130.7l0.8,1.9L160.3,130.7z"/>
<path class="st14" d="M302.3,130.8l-1.6,0.2L302.3,130.8z"/>
<path class="st14" d="M311.3,129.2l-1.6,0.3L311.3,129.2z"/>
<path class="st12" d="M176.4,130l-0.4-1.6L176.4,130z"/>
<path class="st12" d="M124.6,40l0.4,1.6L124.6,40z"/>
<path class="st12" d="M116.2,334.7l0.3,1.6L116.2,334.7z"/>
<path class="st9" d="M318.8,337l1.2-1.9L318.8,337z"/>
<path class="st9" d="M314.9,342.2l1.5-1.7L314.9,342.2z"/>
<path class="st12" d="M117.1,342.9l-0.1-1.5c0.2,0,0.5,0,0.7,0l0.4,1.5L117.1,342.9z"/>
<path class="st14" d="M208.5,351.3l-1.6,0.4L208.5,351.3z"/>
<path class="st11" d="M353.2,356.5h-0.4h-0.4l0.3-1.6L353.2,356.5z"/>
<path class="st14" d="M185.3,364l1.6-0.4L185.3,364z"/>
<path class="st18" d="M120,365.7h-2H120z"/>
<path class="st10" d="M127,372.2h1.3l-1.5,1.4L127,372.2z"/>
<path class="st9" d="M58.4,383.4L60,382L58.4,383.4z"/>
<path class="st9" d="M90.8,388l-1.4,1.8L90.8,388z"/>
<path class="st10" d="M359,388.7l-0.9,2L359,388.7z"/>
<path class="st9" d="M50.4,392.5l1.3-1.8L50.4,392.5z"/>
<path class="st9" d="M87.6,392.4l-1.1,1.9L87.6,392.4z"/>
<path class="st10" d="M357.7,392.5l-1,2L357.7,392.5z"/>
<path class="st9" d="M48.9,394.8l1.2-1.8L48.9,394.8z"/>
<path class="st10" d="M394.9,395.6l0.3-1.6L394.9,395.6z"/>
<path class="st14" d="M169.4,403.4l1.6,0.2L169.4,403.4z"/>
<path class="st10" d="M92.7,406.8l0.2-1.6L92.7,406.8z"/>
<path class="st10" d="M272.3,406.7l-1.6,0.4L272.3,406.7z"/>
<path class="st9" d="M333.7,406.7l-1.2,1.9L333.7,406.7z"/>
<path class="st10" d="M263.3,408.3c0,0.2,0,0.5,0,0.7l-1.5-0.3L263.3,408.3z"/>
<path class="st11" d="M389.5,295.7l0.8,2l-1-0.4L389.5,295.7z"/>
<path class="st12" d="M152.2,50.5l-0.3-1.6L152.2,50.5z"/>
<path class="st12" d="M110.3,301.7l0.3,1.6L110.3,301.7z"/>
<path class="st12" d="M111,305.5l0.1,1.5L111,305.5z"/>
<path class="st12" d="M143.4,46.7l0.1,1.6L143.4,46.7z"/>
<path class="st12" d="M120.9,314.5l-0.2-1.5l1.3,0.8L120.9,314.5z"/>
<path class="st12" d="M112.6,318.9l0.8,1.7L112.6,318.9z"/>
<path class="st12" d="M113.9,322.7l0.3,1.6L113.9,322.7z"/>
<path class="st19" d="M190.5,332.5l-1.6,0.4L190.5,332.5z"/>
<path class="st9" d="M344.2,332.5l1.5-1.6L344.2,332.5z"/>
<path class="st19" d="M177.7,37c0,0.4,0,0.8,0,1.2l-1.4-0.1L177.7,37z"/>
<path class="st19" d="M177.8,292.3l-0.1,1.2l-1.8-0.2L177.8,292.3z"/>
<path class="st16" d="M96.7,363.2h1.4H96.7z"/>
<path class="st9" d="M123.8,349.6c0.1-0.2,0.4-0.2,0.5-0.1c0,0,0.1,0.1,0.1,0.1l-0.4,0.9L123.8,349.6z"/>
<path class="st16" d="M281.6,418.8l-1.8,0.6L281.6,418.8z"/>
<path class="st0" d="M1533.9,115l0.6-0.6L1533.9,115z"/>
<path class="st0" d="M1506.8,114.3l0.6,0.6L1506.8,114.3z"/>
<path class="st9" d="M271.5,429l-0.8,0.1L271.5,429z"/>
<path class="st10" d="M92.8,410.8c-0.2,0-0.4-0.1-0.5-0.3l-0.1-0.7c0.2-0.1,0.3,0,0.4,0.1c0.1,0.2,0.2,0.4,0.3,0.6
	C93,410.5,92.9,410.6,92.8,410.8z"/>
<path class="st0" d="M711.8,226.8l0.6,0.7L711.8,226.8z"/>
<path class="st16" d="M233.7,431.4l1-0.3L233.7,431.4z"/>
<path class="st9" d="M364.6,260.4l0.7,0.8L364.6,260.4z"/>
<path class="st9" d="M318.3,337.8l0.5-0.7L318.3,337.8z"/>
<path class="st9" d="M389.2,235.9l-0.3,0.1l-0.1-0.3C389,235.6,389.2,235.7,389.2,235.9z"/>
<path class="st18" d="M125.2,374.2l0.7-0.5c0,0.2,0,0.5-0.1,0.7C125.6,374.4,125.4,374.3,125.2,374.2z"/>
<path class="st10" d="M125.8,374.4c0-0.2,0.1-0.5,0.1-0.7h0.8L125.8,374.4z"/>
<path class="st9" d="M304.5,347.4l0.7,0.2L304.5,347.4z"/>
<path class="st19" d="M219.8,305.4l1.1,0.7L219.8,305.4z"/>
<path class="st16" d="M213.4,441.3l-1,0.3L213.4,441.3z"/>
<path class="st16" d="M199.2,442.9l-1.1,0.3L199.2,442.9z"/>
<path class="st16" d="M195.8,443.5l-0.8,0.1L195.8,443.5z"/>
<path class="st9" d="M269.3,277.6l0.8,0.8L269.3,277.6z"/>
<path class="st16" d="M142.2,442.9l-1.1,0.3L142.2,442.9z"/>
<path class="st13" d="M86.3,463.6l-20-7.8c4.2,1.4,8.4,2.7,12.6,4.3C81.4,461,83.8,462.4,86.3,463.6z"/>
<path class="st13" d="M342.8,412.4c0.3,0.6,1.1,1.6,0.9,1.8c-1.7,2.3-3.5,4.5-5.3,6.8l-0.9-2.4L342.8,412.4z"/>
<path class="st13" d="M34.7,405.3l7-15.5L34.7,405.3z"/>
<path class="st11" d="M363.2,327.3l-5.8,9.3C357.3,333.3,360.2,328.6,363.2,327.3z"/>
<path class="st11" d="M352.3,361.6c0,3.8,0,7.6,0.1,11.4C350.4,370.9,350.4,363.9,352.3,361.6z"/>
<path class="st18" d="M280.5,406l9.8-2L280.5,406z"/>
<path class="st13" d="M258,451l-9,2.1C251.5,450.2,254.8,450.7,258,451z"/>
<path class="st13" d="M297.5,439.2l-8.8,3.2L297.5,439.2z"/>
<path class="st18" d="M114,424.5l6.8,0.1L114,424.5z"/>
<path class="st13" d="M269.3,448l-6.8,1.9L269.3,448z"/>
<path class="st13" d="M308,435.5l-6.5,2.5L308,435.5z"/>
<path class="st11" d="M337.5,418.7l0.9,2.4l-1.2,3.1l-0.4-4.7L337.5,418.7z"/>
<path class="st11" d="M346.4,402.9l-2.4,5L346.4,402.9z"/>
<path class="st13" d="M63,454.6l-5-2.6L63,454.6z"/>
<path class="st18" d="M294.7,402.9l4.6-1.3L294.7,402.9z"/>
<path class="st11" d="M369,307.8l4.6-0.6L369,307.8z"/>
<path class="st13" d="M275.3,446.5l-3.8,1.1L275.3,446.5z"/>
<path class="st18" d="M326.7,362.6l0.4-3.1L326.7,362.6z"/>
<path class="st18" d="M159,422.4l3.1-0.3L159,422.4z"/>
<path class="st18" d="M275.2,406.9l3.8-0.7L275.2,406.9z"/>
<path class="st18" d="M327,376l-0.4-2.4L327,376z"/>
<path class="st11" d="M357.2,337.1l-1.2,2.6L357.2,337.1z"/>
<path class="st13" d="M280.5,445l-2.3,0.6L280.5,445z"/>
<path class="st11" d="M349.4,396.2l-1.2,2.5L349.4,396.2z"/>
<path class="st18" d="M240.8,411.2l1.6-0.3L240.8,411.2z"/>
<path class="st18" d="M207.8,415.7l1.6-0.3L207.8,415.7z"/>
<path class="st13" d="M51,448.8l-2-1.3L51,448.8z"/>
<path class="st13" d="M48.8,447.3l-1.9-1.4L48.8,447.3z"/>
<path class="st13" d="M261,450.3l-1.6,0.4L261,450.3z"/>
<path class="st13" d="M57,451.8l-2-1.2L57,451.8z"/>
<path class="st18" d="M196.5,417.2l1.6-0.2L196.5,417.2z"/>
<path class="st18" d="M225,413.4l1.6-0.2L225,413.4z"/>
<path class="st13" d="M314,433.3l-2,1L314,433.3z"/>
<path class="st13" d="M54,450.3l-2-1.2L54,450.3z"/>
<path class="st18" d="M230.2,412.7l1.6-0.2L230.2,412.7z"/>
<path class="st18" d="M301,401.1l2-1L301,401.1z"/>
<path class="st18" d="M291.7,403.7l1.6-0.4L291.7,403.7z"/>
<path class="st11" d="M364.6,325l-1.2,1.8L364.6,325z"/>
<path class="st11" d="M343.6,409l-0.6,1.5L343.6,409z"/>
<path class="st13" d="M286.9,442.9l-2.5,0.9L286.9,442.9z"/>
<path class="st11" d="M353,351.1l-0.1,1l-0.8-0.5L353,351.1z"/>
<path class="st11" d="M354.8,343l-0.3,0.8l-0.6-0.5L354.8,343z"/>
<path class="st18" d="M92.2,409.7l0.1,0.7L92.2,409.7z"/>
<path class="st18" d="M149.3,423.2c0.2-0.2,0.5-0.2,0.7-0.1L149.3,423.2z"/>
<path class="st11" d="M352.5,358v0.8V358z"/>
<path class="st19" d="M177.7,257.5c0,4,0,8,0,11.9C173.5,264.1,173.1,264.5,177.7,257.5z"/>
<path class="st20" d="M117.1,342.9l1,0.1c0.1,0.7,0.2,1.4,0.3,2.1C116.6,345.2,115.6,344.7,117.1,342.9z"/>
<path class="st12" d="M113.2,186.6l1.1-1.2l0.5,0.6v1.6l-0.3,0.4L113.2,186.6z"/>
<path class="st12" d="M164.6,94.7l1.5,2l-2,0.2v-0.2L165,95h-0.3L164.6,94.7z"/>
<path class="st20" d="M164.1,96.9l2-0.2c0.1,0.1,0.2,0.3,0.2,0.5l-1.3,1.3L164.1,96.9z"/>
<path class="st21" d="M114.8,187.6V186l1,0.7L114.8,187.6z"/>
<path class="st20" d="M165,95l-0.9,1.6L165,95z"/>
<path class="st11" d="M373.4,354.1c-1.2,10.4-2.6,20.7-3.5,31.1c-0.9,10.6-8.4,18.6-12,28.9l6-1.2l-8.1,3.8
	c-0.2-8.1,6-12.1,7.3-18.1c2.3-1.8,3.6-3.9,3-6.9l1.5-4.4l0.6-2.3l1.6-9l0.6-2.3l0.1-4.5l0.6-3.8c0-2.9-0.1-5.7,0.2-8.5
	C371.5,356,372.7,355.1,373.4,354.1z"/>
<path class="st11" d="M377.8,338.3c4.5-2.2,8.9-4.9,13.5-6.6c7.7-2.8,15.6-5,23.5-7.4c-1.1,1.1-2,2.8-3.3,3.2
	c-6.1,1.9-12.3,3.4-18.5,5.1l-1.7,1.4c-3.6,1.2-7.2,2.5-10.7,3.7C379.7,337.9,378.7,338,377.8,338.3z"/>
<path class="st11" d="M429.8,314.4c-0.2,2.4-0.6,4.8-1.1,7.2c-0.5,1.8-0.5,2.6,1.6,2.2l-4.3,6.2l-6.8,0.9l0.8-2.2
	c2.1-2.3,4.4-4.6,6.4-7.1c0.7-0.9,0.8-2.2,1.1-3.3L429.8,314.4z"/>
<path class="st17" d="M389.3,362.5c3.4-6.5,9.1-10.2,15.3-13.5c1.7-0.9,3.6-1.5,5.4-2.2c-0.8,1-1.4,2.4-2.4,3
	c-5.9,3.3-12.2,5.9-15.9,12.1C391.4,362.5,390.1,362.4,389.3,362.5z"/>
<path class="st11" d="M433.1,345.7c-5,2.3-9.9,4.6-14.9,6.8c-4.6,2.1-9.3,4.2-14,6.2c3.1-2,6-4.2,9.2-5.8c5.5-2.7,11.2-4.9,16.9-7.2
	C431.2,345.5,432.2,345.5,433.1,345.7z"/>
<path class="st11" d="M417.7,310c-5.9-1.5-11.9-2.9-17.8-4.5c-2-0.6-3.8-1.9-5.7-2.8l4,0.7l1.5,0.6l9,0.8l1.6,0.1L417.7,310z"/>
<path class="st17" d="M456,309.2c-2.5-6.3-7.5-9.8-13.5-12.2c-1.1-0.5-2.1-1.2-3.1-1.9c4.6-1.3,7.9,1.8,11.1,4
	c2.4,1.7,4,4.6,5.7,7.1C456.6,306.9,456.1,308.2,456,309.2z"/>
<path class="st17" d="M420.1,328.8l-0.8,2.2l-10.5,4.5l-4.5,1.5l-1.5,0.2c0.3-0.8,0.4-2,0.9-2.2
	C409.1,332.8,414.6,330.8,420.1,328.8z"/>
<path class="st17" d="M448.3,326.4c0.4-1,1-1.9,1.8-2.7c4.4-3.6,5.8-8.3,5.9-13.7c3.1,2.4,2.2,6.4,1,8.3
	C455,321.5,451.3,323.7,448.3,326.4z"/>
<path class="st11" d="M411.3,346.2l19.3-8.3l-3.1,2.8L411.3,346.2z"/>
<path class="st11" d="M401.7,337.6l-18.3,6.3l0.7-1.7C389.6,339.5,395.6,337.9,401.7,337.6z"/>
<path class="st17" d="M426.7,280.7l3-1.6c0,3.9,0,7.7-0.1,11.6C426,288.4,425.3,286,426.7,280.7z"/>
<path class="st18" d="M430.6,293.6l-1.1-2.9c3.9-0.8,6.2,1.6,8.5,4.2l-2.3,0.9L430.6,293.6z"/>
<path class="st6" d="M378.5,405.2l7.8-10.4c0.1,1.1,0.8,2.6,0.4,3.4C384.8,401.3,382.9,404.7,378.5,405.2z"/>
<path class="st6" d="M386.3,376l2.2-12l0.7,4.5l-1.5,3.8l0.7,3.7L386.3,376z"/>
<path class="st17" d="M397.5,291.2c-0.2,4.8,4.3,4.7,6.9,6.6c-4.8,1.2-9-1.4-8.2-5.2C396.2,292.1,397,291.7,397.5,291.2z"/>
<path class="st6" d="M386.3,389.5c0-3,0-6,0-9l2.2,2.2c0,1.2,0,2.5,0,3.7L386.3,389.5z"/>
<path class="st17" d="M384.1,342.3l-0.7,1.7l-6.8,5.2C377,344.6,380.8,343.6,384.1,342.3z"/>
<path class="st17" d="M388.5,382.7l-2.2-2.2l0.1-4.5h2.2C388.5,378.2,388.5,380.5,388.5,382.7z"/>
<path class="st17" d="M427.5,340.7l3.1-2.8l1.7-0.7l3.5-0.3L427.5,340.7z"/>
<path class="st17" d="M409.5,298.7l9.1,2.9L409.5,298.7z"/>
<path class="st17" d="M395.1,388l-0.1,1.4c-0.4,0.9-0.8,1.8-1.2,2.6s-1,1.9-1.5,2.9l0.7-7.7h0.8L395.1,388z"/>
<path class="st11" d="M419.3,320.5l1.5-7.5l1.6,1.5c0,0.5,0,1,0,1.5L419.3,320.5z"/>
<path class="st11" d="M435.8,337l-3.5,0.3l6.3-3.4L435.8,337z"/>
<path class="st11" d="M395.8,366.2H395l5.7-5L395.8,366.2z"/>
<path class="st17" d="M366.1,391.7c0.6,3-0.7,5.2-3,6.9L366.1,391.7z"/>
<path class="st17" d="M386.3,389.5l2.2-3c-0.7,1.8,1.8,4.8-2.2,5.3L386.3,389.5z"/>
<path class="st17" d="M372.7,408.8l5.3-3C377.2,408.5,375.9,410.4,372.7,408.8z"/>
<path class="st11" d="M380.5,413l-6.3,3.5L380.5,413z"/>
<path class="st17" d="M429.8,314.4l-2.2,3.9l0.7-5.4l1.3,0.1L429.8,314.4z"/>
<path class="st17" d="M442.6,331.1l3.6-2.6l-3.7,4L442.6,331.1z"/>
<path class="st17" d="M436.4,344.3l-2.9,1.1c0.1-2,0.4-3.7,3-2.2L436.4,344.3z"/>
<path class="st11" d="M436.4,344.3l0.1-1.1l3-1.6l1,0.4L436.4,344.3z"/>
<path class="st17" d="M371.2,365.5l-0.6,3.8C369.5,367.8,368.9,366.4,371.2,365.5z"/>
<path class="st17" d="M387.8,372.2l1.5-3.8L387.8,372.2z"/>
<path class="st17" d="M368.3,346l1-0.7c2.1,1.9,0.9,2.5-1.1,2.9L368.3,346z"/>
<path class="st17" d="M454.5,267.2l1.2,3.5l-1.2,0.3L454.5,267.2z"/>
<path class="st17" d="M462.1,306.9l0.6,3.1C460.6,309.4,461,308.2,462.1,306.9z"/>
<path class="st11" d="M368.6,410.8l3.4-1.8L368.6,410.8z"/>
<path class="st17" d="M357.6,399.1l1.6-3.1L357.6,399.1z"/>
<path class="st11" d="M416.5,322.2l1.3-0.2l-2.5,2L416.5,322.2z"/>
<path class="st11" d="M350.5,405.4l1.7-1.1l0.2,1.7l-2.1,0.8L350.5,405.4z"/>
<path class="st17" d="M462.8,316l-0.7,2.3L462.8,316z"/>
<path class="st17" d="M370.4,373.7l-0.6,2.3L370.4,373.7z"/>
<path class="st17" d="M368.2,385l-0.6,2.3L368.2,385z"/>
<path class="st11" d="M438.6,333.8l2.2-1.5L438.6,333.8z"/>
<path class="st17" d="M440.6,341.9l-1-0.4l2.4-1.5l-0.7,1.7C441,341.9,440.8,341.9,440.6,341.9z"/>
<path class="st11" d="M441.1,341.7l0.7-1.7l1.7,0.2L441.1,341.7z"/>
<path class="st17" d="M353.8,402l1.7-0.5l-1.5,2.3l-0.1-0.1L353.8,402L353.8,402z"/>
<path class="st17" d="M418.6,301.6l2.3,1.5L418.6,301.6z"/>
<path class="st17" d="M352.4,405.9l-0.2-1.7l0.1-0.1l1.7-0.5l0.1,0.1L352.4,405.9z"/>
<path class="st17" d="M399.6,288.5l-2,2.2L399.6,288.5z"/>
<path class="st17" d="M420.9,303.1l2.4,1.6L420.9,303.1z"/>
<path class="st17" d="M348.8,426.3l-1.5,0.6L348.8,426.3z"/>
<path class="st17" d="M345,427.1h-1.6H345z"/>
<path class="st11" d="M386.5,409.1l-1.8,1.3L386.5,409.1z"/>
<path class="st11" d="M384.3,410.7l-1.8,1.2L384.3,410.7z"/>
<path class="st17" d="M409.7,280.1l-1.7,0.8L409.7,280.1z"/>
<path class="st17" d="M437.8,265.6l1.7-1.4L437.8,265.6z"/>
<path class="st17" d="M448.5,263.5l1.5,0.7L448.5,263.5z"/>
<path class="st17" d="M442.5,264.1l1.5-0.6L442.5,264.1z"/>
<path class="st17" d="M391.3,333.9l1.7-1.4L391.3,333.9z"/>
<path class="st11" d="M375.6,339.8l1.8-1.3L375.6,339.8z"/>
<path class="st11" d="M445.8,338.7L444,340L445.8,338.7z"/>
<path class="st11" d="M372.6,342.1l1.7-1.4L372.6,342.1z"/>
<path class="st11" d="M403.8,359l-1.8,1.2L403.8,359z"/>
<path class="st17" d="M360.8,388.7l0.6-1.6L360.8,388.7z"/>
<path class="st17" d="M399.8,304l-1.5-0.6L399.8,304z"/>
<path class="st17" d="M410.3,304.9l-1.6-0.1L410.3,304.9z"/>
<path class="st11" d="M429.6,313.1l-1.3-0.1l0.5-1.9L429.6,313.1z"/>
<path class="st17" d="M422.4,316c0-0.5,0-1,0-1.5l1.1,0.7L422.4,316z"/>
<path class="st11" d="M442.6,331.1l-0.1,1.4l-1.6-0.1L442.6,331.1z"/>
<path class="st11" d="M392.1,300.5l-0.7-0.9L392.1,300.5z"/>
<path class="st17" d="M392.3,397.7c0,0.3,0,0.6,0,0.9C392.3,398.3,392.3,398,392.3,397.7z"/>
<path class="st17" d="M408,298.1l1,0.5L408,298.1z"/>
<path class="st17" d="M405.8,298h0.7H405.8z"/>
<path class="st17" d="M426.8,308.4l0.6,0.9L426.8,308.4z"/>
<path class="st17" d="M426.1,307.4l0.8,1L426.1,307.4z"/>
<path class="st17" d="M423.8,304.8l0.7,0.7L423.8,304.8z"/>
<path class="st20" d="M135,162.3l-0.9-0.3l0.9-0.7L135,162.3z"/>
<path class="st20" d="M176.1,192.9l-0.1,0.3c-0.1-0.1-0.2-0.2-0.3-0.3c0,0,0.1-0.1,0.2-0.2L176.1,192.9z"/>
<path class="st11" d="M395.1,388l-1.3-0.8h1.4L395.1,388z"/>
<path class="st11" d="M353.9,403.7l-1.7,0.5l1.5-2.2L353.9,403.7z"/>
<path class="st6" d="M371.5,404.8c-0.8-2.2-1.7-3.4-1.5-4.4c0.5-1.9,1.2-3.8,2.2-5.5c2.4-4.4,3.6-9.4,3.5-14.4
	c-0.1-3.4,0.1-6.7,0.2-10.1c0.2-10.4,5.6-17.8,13.7-23.7c0.6-0.5,1.3-0.9,2-1.1c1.2-0.1,2.3,0,3.5,0.1c-0.2,1.2-0.5,2.5-0.9,3.6
	c-0.4,0.8-1.4,1.4-2.2,2c-6.8,5.8-11.1,12.4-10.6,22c0.5,9.3-0.3,18.5-5.8,26.6C374.7,401.4,373.5,402.6,371.5,404.8z"/>
<path class="st1" d="M430.6,293.6l5.2,2.2c1.5,1.3,3.1,2.5,4.5,3.9c7.1,6.7,7.2,16.4,0.1,23.2c-4,3.8-8.3,7.3-14.3,7.2l4.3-6.2
	c4.4-2.3,8.2-5.2,9.6-10.3c0.9-3.2,0.7-6.4-2-8.5c-3.4-2.5-6.9-4.7-10.6-6.7c-1.9-1.1-4.2-1.6-6.1-2.7c-0.8-0.5-0.9-2-1.4-3.1
	c1.1-0.4,2.2-1.3,3.2-1.1C425.6,292.1,428.1,292.8,430.6,293.6z"/>
<path class="st11" d="M404.2,336.9l4.5-1.5L404.2,336.9z"/>
</svg>
