<?xml version="1.0" encoding="UTF-8" standalone="no"?>
<svg
   xmlns:dc="http://purl.org/dc/elements/1.1/"
   xmlns:cc="http://creativecommons.org/ns#"
   xmlns:rdf="http://www.w3.org/1999/02/22-rdf-syntax-ns#"
   xmlns:svg="http://www.w3.org/2000/svg"
   xmlns="http://www.w3.org/2000/svg"
   viewBox="0 0 59.52 59.48"
   height="59.48"
   width="59.52"
   xml:space="preserve"
   id="svg2"
   version="1.1"><metadata
     id="metadata8"><rdf:RDF><cc:Work
         rdf:about=""><dc:format>image/svg+xml</dc:format><dc:type
           rdf:resource="http://purl.org/dc/dcmitype/StillImage" /></cc:Work></rdf:RDF></metadata><defs
     id="defs6" /><g
     transform="matrix(1.3333333,0,0,-1.3333333,0,59.48)"
     id="g10"><g
       transform="scale(0.1)"
       id="g12"><path
         id="path14"
         style="fill:#231f20;fill-opacity:1;fill-rule:nonzero;stroke:none"
         d="m 83.1289,131.387 c -2.293,0.82 -4.8047,-0.352 -5.625,-2.617 L 60.4648,81.9609 c -0.832,-2.2734 0.3516,-4.7929 2.625,-5.625 0.5,-0.1757 1.0079,-0.2617 1.504,-0.2617 1.789,0 3.4687,1.1016 4.121,2.8789 l 17.0313,46.8089 c 0.832,2.273 -0.3398,4.793 -2.6172,5.625" /><path
         id="path16"
         style="fill:#231f20;fill-opacity:1;fill-rule:nonzero;stroke:none"
         d="m 141.645,131.387 c -2.293,0.82 -4.805,-0.352 -5.625,-2.617 L 118.98,81.9609 c -0.832,-2.2734 0.352,-4.7929 2.625,-5.625 0.5,-0.1757 1.008,-0.2617 1.504,-0.2617 1.789,0 3.477,1.1016 4.121,2.8789 l 17.043,46.8089 c 0.821,2.273 -0.351,4.793 -2.628,5.625" /><path
         id="path18"
         style="fill:#231f20;fill-opacity:1;fill-rule:nonzero;stroke:none"
         d="m 200.16,131.387 c -2.293,0.82 -4.793,-0.352 -5.625,-2.617 L 177.496,81.9609 c -0.832,-2.2734 0.352,-4.7929 2.625,-5.625 0.5,-0.1757 1.008,-0.2617 1.504,-0.2617 1.797,0 3.477,1.1016 4.121,2.8789 l 17.043,46.8089 c 0.828,2.273 -0.351,4.793 -2.629,5.625" /><path
         id="path20"
         style="fill:#231f20;fill-opacity:1;fill-rule:nonzero;stroke:none"
         d="m 258.676,131.387 c -2.285,0.82 -4.793,-0.352 -5.625,-2.617 L 236.012,81.9609 c -0.821,-2.2734 0.351,-4.7929 2.625,-5.625 0.5,-0.1757 1.008,-0.2617 1.504,-0.2617 1.797,0 3.476,1.1016 4.121,2.8789 l 17.043,46.8089 c 0.828,2.273 -0.352,4.793 -2.629,5.625" /><path
         id="path22"
         style="fill:#231f20;fill-opacity:1;fill-rule:nonzero;stroke:none"
         d="m 317.191,131.387 c -2.285,0.82 -4.793,-0.352 -5.625,-2.617 L 294.535,81.9609 c -0.828,-2.2734 0.344,-4.7929 2.617,-5.625 0.5,-0.1757 1.008,-0.2617 1.504,-0.2617 1.797,0 3.477,1.1016 4.121,2.8789 l 17.043,46.8089 c 0.828,2.273 -0.351,4.793 -2.629,5.625" /><path
         id="path24"
         style="fill:#231f20;fill-opacity:1;fill-rule:nonzero;stroke:none"
         d="m 375.707,131.387 c -2.293,0.82 -4.793,-0.352 -5.625,-2.617 L 353.051,81.9609 c -0.828,-2.2734 0.344,-4.7929 2.617,-5.625 0.5,-0.1757 1.008,-0.2617 1.504,-0.2617 1.797,0 3.476,1.1016 4.133,2.8789 l 17.031,46.8089 c 0.828,2.273 -0.352,4.793 -2.629,5.625" /><path
         id="path26"
         style="fill:#231f20;fill-opacity:1;fill-rule:nonzero;stroke:none"
         d="m 59.7227,55.3125 c -2.2852,0.8203 -4.7969,-0.3437 -5.625,-2.6172 L 37.0547,5.88672 C 36.2266,3.61328 37.4063,1.09375 39.6836,0.261719 40.1797,0.0859375 40.6875,0 41.1875,0 c 1.7969,0 3.4766,1.10156 4.1211,2.89063 L 62.3477,49.6875 c 0.8203,2.2852 -0.3516,4.8047 -2.625,5.625" /><path
         id="path28"
         style="fill:#231f20;fill-opacity:1;fill-rule:nonzero;stroke:none"
         d="m 118.238,55.3125 c -2.297,0.8203 -4.797,-0.3437 -5.625,-2.6172 L 95.5703,5.88672 C 94.75,3.61328 95.9219,1.09375 98.1992,0.261719 98.6953,0.0859375 99.2031,0 99.7031,0 101.5,0 103.18,1.10156 103.824,2.89063 l 17.039,46.79687 c 0.832,2.2852 -0.351,4.8047 -2.625,5.625" /><path
         id="path30"
         style="fill:#231f20;fill-opacity:1;fill-rule:nonzero;stroke:none"
         d="m 176.754,55.3125 c -2.285,0.8203 -4.797,-0.3437 -5.625,-2.6172 L 154.086,5.88672 c -0.82,-2.27344 0.352,-4.79297 2.629,-5.625001 C 157.211,0.0859375 157.719,0 158.219,0 c 1.797,0 3.476,1.10156 4.121,2.89063 l 17.039,46.79687 c 0.832,2.2852 -0.352,4.8047 -2.625,5.625" /><path
         id="path32"
         style="fill:#231f20;fill-opacity:1;fill-rule:nonzero;stroke:none"
         d="m 235.27,55.3125 c -2.297,0.8203 -4.797,-0.3437 -5.625,-2.6172 L 212.613,5.88672 C 211.781,3.61328 212.953,1.09375 215.23,0.261719 215.727,0.0859375 216.234,0 216.734,0 c 1.797,0 3.477,1.10156 4.129,2.89063 l 17.032,46.79687 c 0.832,2.2852 -0.352,4.8047 -2.625,5.625" /><path
         id="path34"
         style="fill:#231f20;fill-opacity:1;fill-rule:nonzero;stroke:none"
         d="m 293.785,55.3125 c -2.285,0.8203 -4.797,-0.3437 -5.625,-2.6172 L 271.129,5.88672 c -0.832,-2.27344 0.34,-4.79297 2.617,-5.625001 C 274.242,0.0859375 274.75,0 275.25,0 c 1.797,0 3.477,1.10156 4.129,2.89063 L 296.41,49.6875 c 0.832,2.2852 -0.351,4.8047 -2.625,5.625" /><path
         id="path36"
         style="fill:#231f20;fill-opacity:1;fill-rule:nonzero;stroke:none"
         d="m 352.309,55.3125 c -2.293,0.8203 -4.805,-0.3437 -5.633,-2.6172 L 329.645,5.88672 C 328.813,3.61328 329.984,1.09375 332.262,0.261719 332.758,0.0859375 333.266,0 333.766,0 c 1.797,0 3.476,1.10156 4.129,2.89063 l 17.031,46.79687 c 0.832,2.2852 -0.352,4.8047 -2.617,5.625" /><path
         id="path38"
         style="fill:#231f20;fill-opacity:1;fill-rule:nonzero;stroke:none"
         d="M 366.656,173.125 H 88.2578 c -43.8281,0 -79.48436,35.645 -79.48436,79.473 0,36.211 24.45316,67.84 59.46486,76.933 1.6015,0.41 2.8398,1.688 3.1914,3.321 5.5078,25.554 28.5078,44.109 54.6793,44.109 5.743,0 11.387,-0.859 16.766,-2.566 1.934,-0.598 4.016,0.175 5.07,1.882 23.094,37.649 64.852,61.028 108.973,61.028 33.926,0 65.891,-13.157 89.98,-37.043 22.747,-22.559 36.125,-52.539 37.668,-84.442 0.086,-1.847 1.317,-3.429 3.075,-3.976 13.351,-4.149 25.527,-12.43 34.297,-23.328 10.109,-12.532 15.664,-28.313 15.664,-44.446 0,-39.121 -31.825,-70.945 -70.946,-70.945 z m 62.117,120.906 c -9.207,11.438 -21.765,20.313 -35.625,25.235 -2.324,32.961 -16.484,63.839 -40.066,87.226 -25.754,25.528 -59.902,39.59 -96.164,39.59 -46.035,0 -89.668,-23.816 -114.676,-62.371 -5.234,1.348 -10.644,2.031 -16.133,2.031 -29.3746,0 -55.3043,-20.207 -62.6481,-48.429 -37.5,-10.938 -63.45699375,-45.399 -63.45699375,-84.715 0,-48.664 39.58989375,-88.254 88.25389375,-88.254 H 366.656 c 43.965,0 79.727,35.761 79.727,79.726 0,18.125 -6.25,35.871 -17.61,49.961" /><path
         id="path40"
         style="fill:#231f20;fill-opacity:1;fill-rule:nonzero;stroke:none"
         d="m 301.781,370.645 c -28.34,20.722 -67.156,21.824 -96.629,2.742 -2.031,-1.317 -2.609,-4.043 -1.3,-6.074 1.32,-2.04 4.043,-2.618 6.074,-1.297 26.418,17.129 61.25,16.121 86.672,-2.453 20.515,-15 32.207,-39.149 31.269,-64.579 -0.09,-2.421 1.805,-4.464 4.227,-4.543 0.051,-0.007 0.109,-0.007 0.168,-0.007 2.343,0 4.285,1.863 4.375,4.226 1.043,28.352 -11.985,55.266 -34.856,71.985" /><path
         id="path42"
         style="fill:#231f20;fill-opacity:1;fill-rule:nonzero;stroke:none"
         d="m 328.695,281.082 c -2.422,0 -4.414,-1.992 -4.414,-4.414 0,-2.422 1.992,-4.414 4.414,-4.414 2.422,0 4.407,1.992 4.407,4.414 0,2.422 -1.985,4.414 -4.407,4.414" /></g></g></svg>