<svg id="Layer_1" data-name="Layer 1" xmlns="http://www.w3.org/2000/svg" viewBox="0 0 2059.95 471.2"><defs><style>.cls-1{fill:#c55b13;}.cls-2{fill:#c45a11;}.cls-3{fill:#c55b12;}.cls-4{fill:#2e38c9;}.cls-5{fill:#548b2e;}.cls-6{fill:#c05813;}.cls-7{fill:#538b2d;}.cls-8{fill:#2630ca;}.cls-9{fill:#373fc9;}.cls-10{fill:#568d31;}.cls-11{fill:#c15c18;}.cls-12{fill:#d5d6ed;}.cls-13{fill:#dadaef;}.cls-14{fill:#6468ca;}.cls-15{fill:#d5e2cc;}.cls-16{fill:#424ac7;}.cls-17{fill:#efd5c3;}.cls-18{fill:#e9c2a7;}.cls-19{fill:#f9f9fc;}.cls-20{fill:#2c36c6;}.cls-21{fill:#535ac8;}.cls-22{fill:#f7e9e0;}.cls-23{fill:#fefefe;}.cls-24{fill:#f9faf8;}</style></defs><title>InterACTWEL_weblogo_v5</title><path class="cls-1" d="M1683.17,91h22.88l31.3,219.18.47.09L1763.68,91.1h26.27L1749.39,390h-21.8l-33-229.7-33.1,229.81h-21.68c-1-7.35-2-14.67-3-22-1-6.74-2.07-13.46-3-20.21-.86-6.38-1.47-12.79-2.31-19.18-.61-4.58-1.47-9.13-2.13-13.7-.6-4.21-1.07-8.44-1.63-12.65-.93-7-1.89-14-2.83-21-.81-6-1.57-12-2.42-18.05-1-6.86-2.1-13.69-3-20.56-.84-6.39-1.43-12.81-2.23-19.21s-1.68-12.57-2.54-18.85S1612.9,192,1612,185.62c-1-6.62-2-13.23-2.94-19.85-.6-4.21-1-8.44-1.63-12.66-1-6.86-2-13.7-3-20.56-.83-6.15-1.48-12.33-2.3-18.48-.89-6.75-1.82-13.51-2.86-20.24-.32-2.06.14-3,2.36-3,7.86,0,15.73,0,23.95,0l25.94,220.78Z"/><path class="cls-2" d="M1431.07,181.21h-26.6V114.41h-66.21V365.59h66V292.84h26.85c0,1.32,0,2.54,0,3.75q0,34.87,0,69.73c0,12.24-5.23,19.44-16.72,22.87a15.94,15.94,0,0,1-4.44.16l-79.48-.09c-9,0-18-7.43-18.61-17.48-.15-2.37-.26-4.74-.26-7.11q0-124.66,0-249.32a40,40,0,0,1,1.4-11.67c2.61-8.41,9.09-12.46,17.59-12.62,16.87-.3,33.74-.16,50.61-.19,9,0,18,0,27,0,14.54.07,22.86,8.37,22.87,22.8q0,31.87,0,63.74C1431.07,178.61,1431.07,179.82,1431.07,181.21Z"/><path class="cls-1" d="M1196.69,90.23H1223l52.79,298.84h-26.48l-10.44-66c-1-.07-2.1-.2-3.17-.2-17.5,0-35,.08-52.49-.09-3.2,0-3.86,1.25-4.26,4-1.72,12-3.66,24-5.56,36-1.36,8.57-2.79,17.12-4.2,25.68a3.11,3.11,0,0,1-.39.74h-25.45Zm13,49.2-.51,0-26,159.79h52.37Z"/><path class="cls-2" d="M1915.74,225.5v23.94H1852V365.8h71v23.32h-97.52v-298H1922v23h-70V225.5Z"/><path class="cls-3" d="M902.68,301v66.84H957V334.34h24.41a7.29,7.29,0,0,1,.33,1.59c0,11.12.21,22.25-.11,33.36-.19,6.71-1.78,13.34-8.32,16.81a25.42,25.42,0,0,1-11.1,3.12c-22.23.3-44.47.18-66.71.2a17.47,17.47,0,0,1-17.12-15.87c-.29-4-.51-8-.51-12q-.05-65.41,0-130.81a58.65,58.65,0,0,1,1.63-15.41c2.19-7.88,8.46-11,15.85-11.08q30.68-.47,61.36-.63a49.31,49.31,0,0,1,10,.81c9.31,1.88,14.66,8.53,14.89,18.94.27,12.36.11,24.74.13,37.1,0,9.25-.08,18.49.05,27.74a9.74,9.74,0,0,1-2.52,6.63c-3.89,5-8.54,6.41-14.79,6.28C944,300.73,923.54,301,902.68,301Zm0-20.44h54.17V225.12H902.68Z"/><path class="cls-3" d="M711.76,226.77c-13.19.24-26.37.4-39.56.75-5.06.13-10.11.68-15.64,1.08V389.15H631.32V203.8H656l.47,5.09c5.07-.65,10-1.34,15-1.92,10.48-1.2,20.94-2.6,31.45-3.4a118.21,118.21,0,0,1,20.39,0c7.5.73,12.35,6,13.87,13.54a36.34,36.34,0,0,1,.67,7.07q.05,80.8,0,161.61c0,1,0,2,0,3.24H712.46v-4.49q0-76.3,0-152.61c0-1.5-.07-3-.1-4.49Z"/><path class="cls-2" d="M1533.92,115c0,1.5-.1,3-.1,4.49q0,132.54,0,265.08v4.6h-26.36v-4.6q0-132.54,0-265.08c0-1.5-.07-3-.1-4.49l-.6-.63h-45.57V91.16H1580v23.19h-45.44Z"/><path class="cls-2" d="M1965,389.05V91.13h26.18V365.77h68.79v23.28Z"/><path class="cls-3" d="M788.26,225.88H766.07V203.7H788.2V146.05h24.9v57.41h32.48v22.36H813.53V366.89H845.8c0,7,.09,13.62-.12,20.21,0,.78-1.63,2.15-2.51,2.16-12.86.18-25.73.46-38.58.1-8.71-.24-16.12-8.81-16.13-17.54q-.09-71-.2-142C788.26,228.66,788.26,227.55,788.26,225.88Z"/><path class="cls-4" d="M353.23,354.22l-.45.64-.3,1.61,0,1.47,0,.81-.13,2.88c-1.9,2.3-1.86,9.23.06,11.41l.6,2.25-.32,4.41-2.82,15.37-.39,1.1-1.22,2.52-1.85,4.21-2.4,5-.4,1.11-.58,1.47-.28,1.77.08.18-5.29,6.27-.73.7-5.38,5.78-2.16,1.74-15.2,6.4-2,1-4,1.23-6.53,2.55-4,1.17-8.78,3.19-1.84.45-2.53.9L280.54,445l-2.3.56-3,.93-3.81,1.13-2.2.35-6.8,1.89-1.44.37-1.56.41-1.47.27c-3.22-.21-6.52-.73-9,2.11l-1.42.26c-1.16-.25-2.36-.84-3.46-.69-2.8.38-5.56,1-8.32,1.66-13.2,3-26.4,5.9-39.57,9-1.77.42-3.35,1.66-5,2.53a.87.87,0,0,1,.15.4l-1.59-.24c-3-1-5.89-1.78-8.28,1.19l-7.4,1.36-3-.2-2.31.41-2.91.56-3.77-.21-3.81.5-2.16.51-1.55-.39c-.6-.46-1.2-1.33-1.79-1.31a82.44,82.44,0,0,0-8.42.69c-.65.09-1.22.89-1.82,1.36l-2.22.12c-3.23-.51-6.45-1.11-9.7-1.43-.46,0-1.05,1.26-1.58,1.94l-4.45-.15-.61-1.61-.95,1.27-1.55.24-1.4-.65-1.58-.32-3.81.18a.55.55,0,0,1,.15-.38c-3-2.68-6.32-2.48-9.81-1.35l-1.55.26-1.39-.63-3-.56-3.73-.82L93.75,466l-7.47-2.39c-2.48-1.19-4.89-2.57-7.46-3.53-4.14-1.56-8.39-2.86-12.59-4.27L63,454.6,58,452l-1-.26-2-1.19-1-.28-2-1.24-1-.29-2-1.32a.19.19,0,0,1-.31-.11l-1.93-1.41a.2.2,0,0,1-.32-.13c-.88-1.27-1.76-2.55-2.65-3.82q-4-5.68-8-11.35c-.88-1.24-1.8-2.45-2.7-3.67l-.44-.66q0-2.31,0-4.63l.57-5.16.4-2.32.36-4.43.4-3.07.31-1.42,7-15.52c4-4.88,7.26-10.7,12.12-14.46a143.48,143.48,0,0,1,52-25.65c2.83-.74,5.92-.49,8.89-.7l0,0,.75,9,0,0-3,.9-3.66.35c-4.48.9-9.1,1.35-13.4,2.8-9.58,3.22-18.73,7.43-26.77,13.72a.33.33,0,0,0-.4.23l-4.09,2.77a.34.34,0,0,0-.4.26l-2.6,2L60,382l-1.61,1.43-6.76,7.35-1.26,1.75a.41.41,0,0,0-.27.44l-1.2,1.81-1.84,3.38-3,8.67L43.58,409c-.54,5.61-1.76,11.27-1.34,16.81.23,3,3.29,5.72,5.08,8.57l1.55,1.56,4.42,3.71a.37.37,0,0,0,.42.27l1.82,1.23a.4.4,0,0,0,.45.26,30,30,0,0,0,3.58,2.5,163.09,163.09,0,0,0,39.56,14.27c6.64,1.42,13.46,2,20.19,3l2.21.18a18.35,18.35,0,0,0,3.91.69c12.42-.49,24.85-.94,37.26-1.69,4.78-.29,9.53-1.3,14.29-2l1.45-.17,3.8-.57,1.44-.2,3.06-.54,1.44-.21a18.94,18.94,0,0,0,2.92-.15c12.53-2.56,25.07-5.1,37.57-7.78,5.3-1.13,10.54-2.56,15.81-3.86L249,444l3-.65,4.45-1.11,4.56-1.09,1.44-.34,2-.69,1-.11,4.53-1.09,1.43-.35a25.08,25.08,0,0,0,4-.65c12.19-4,24.42-7.93,36.52-12.19,5.26-1.85,10.35-4.33,13.77-9.12l5.21-5.85,1.3-1.78a.33.33,0,0,0,.26-.38l1.24-1.87a.34.34,0,0,0,.24-.41l8.54-16.88.9-7.46q0-6,0-11.95l.07-14.28.3-3.09.39-2.93,7.48-23L351,326l-3.85,3.39-.7.74-.8.65-1.47,1.62-2.37,2.73c-.76,1.09-1.93,2.08-2.22,3.29-1.24,5-2.33,10.11-3.23,15.22a32.11,32.11,0,0,0,0,5.85l-.24,5.21q0,5.59,0,11.18l.31,3.71L336.4,382c0,.32,0,.64,0,1l-3.31,7.25a.33.33,0,0,0-.26.39c-4.77,3.82-9.4,7.84-14.37,11.38-3.28,2.33-7,4-10.59,5.93l-3.28,1.29-3.81,1.31-1.42.36-12.05,2.72-2.2.3-10.33,2.11-1,0-13.52,2-1.45.3-3.07.4-6,.42-2.29.3-2.17.42-3.06.42-3.69.37-2.3.42-4.5.4-2.27.25-1.44.3-3.06.47-4.47.37-8,1.4-1,0-5.27.51-3,.28-4.3.62-.94,0-11.29,2-1.45.23-2.31.49-2.18.35-3.05.45-2.19.4-2.32.32-3.68.43-3.09.22-9.66.46-4.58.33-5.17.49-1.57.34-1.43.36-1.59.29-32.24,0-2.3-.16-7.78-1.63-11-6.39,0,0-2.76-2.6a.36.36,0,0,0-.26-.41l-2.27-6-.19-1.46L86,395.41l.48-1.13,1.13-1.86,1.84-2.69L90.78,388c6-5.84,11.88-11.88,18.17-17.43,2.5-2.21,6-3.32,9-4.92l2,0a5.54,5.54,0,0,1,.63-.09l1.62,2.22.09-.08,4.68,4.47-.27,1.48,0,0-.8,0-.66.5L111,381.88,103.58,388,96,396.95a1.3,1.3,0,0,0-.69,0c-2.44,1.06-3,2.9-2.17,5.29l-.27,2.9-.22,1.61q0,1.53,0,3.05a.32.32,0,0,0-.43-.12l.07.72a.9.9,0,0,0,.54.29l.28,3.43.61,1.57L99,420.23l15,4.29,6.83.07,28.47-1.42.68-.11,9.06-.62,3.09-.29,19.46-3.3,1.43-.23,13.51-1.44,1.61-.23,2.95-1.1,1.45-.19,5.26.07,1.59-.31,15.65-2,1.59-.23,3.65-.54,1.6-.21,8.91-1.25,1.59-.28,6.64-.51,4.62-.44-.14-.38,4.58-.52,3.65-.44,1.55.3c2.69,0,5.4.09,8.07-.17.88-.09,1.67-1.17,2.5-1.79l1.49-.55a.36.36,0,0,0-.07.45l3.83-.69,1.43-.25,9.82-2,1.42-.27,1.6-.42,1.4-.34,4.57-1.32,1.75-.49,2-1,9.46-5,1.84-.94,3.78-2.3h0l6.09-6.06a.25.25,0,0,0,.17-.32c3-2.58,2.78-6,2.57-9.5l-.36-2.35-.37-2.91v-4.52l.42-3.66.37-3.09a32.44,32.44,0,0,1,.22-4c.82-4.68,1.75-9.34,2.64-14l.67-1.38.11-2.35,1.05-3.66,6.07-8.91,4.37-5.35,4.89-4.13,1.84-.93L360,310.1l3.7-.93c1.39,1.1,2.6,1.58,2.91-.89a1.84,1.84,0,0,0,.15-.46l2.22,0,4.58-.58,3.56,1.38.17,2.06c-4.13,4-8.28,8.05-12.35,12.14-.31.31-.09,1.17-.11,1.77a.63.63,0,0,1-.24.43l-1.21,1.84a.65.65,0,0,1-.24.45c-2.94,1.24-5.86,5.92-5.79,9.28a.63.63,0,0,1-.21.46L356,339.64,354.81,343l-.88.29.6.48-.7,2.89-.63,3.06-.17,1.42-.89.41.78.54Z"/><path class="cls-2" d="M584.08,389.17H558v-298h26.06Z"/><path class="cls-2" d="M1048.8,227.34V389.08h-25.15V203.77h24.62l.46,5.17c6-1,11.74-2.12,17.58-2.77,11.56-1.3,23.14-2.8,34.74-3.31s19,6.75,19.32,18.31c.35,14.35.08,28.72.08,43.38h-24.66V227.34h-47Z"/><path class="cls-5" d="M98.29,221.47c-4.78-3.56-9.46-7.27-14.36-10.66a246.78,246.78,0,0,0-38.44-22c-2.91-1.32-4.89-.92-7.4.5-9,5.06-16.35,12.07-23.51,19.34a82.73,82.73,0,0,1-7,6.73c-1.37,1.09-3.42,2.14-5,1.91-1-.16-1.75-2.58-2.61-4l.38-3.93L.8,205l.45-2.33.21-2.19.28-1.59.47-2.16.55-3.06L3,192.23l.48-1.57.31-1.42.45-1.58,1-3.68,4.38-12c3.62-7.87,7.45-15.54,13.08-22.31,6.9-8.29,8.36-6.29,16.49-3.91,3.66,1.07,7.21,2.5,11.22,3.48C38.79,133.42,26,118.31,21.6,98.53l-.59-3c.32-3.29-1.73-7.33,2.93-9.25L39.07,90.8,54.8,97.64l1.47.77,4.5,2.37L78,113.18v-2l3.78,5.14-1.32-.52c-1.18,1.87-1.83,4-3.23,4.75-1.11.57-3.61-.11-4.67-1.11C61.82,109.3,48.65,103.4,35.13,98.07c-1.66-.65-3.35-1.24-5-1.86l-.88.73c1.51,4,2.74,8.18,4.58,12,7.11,14.91,17.38,27.63,28.34,39.82,3.9,4.33,7.64,9.06,12.34,12.35,12.65,8.85,25.77,17,38.7,25.45l1.33,1.41,17.37,17.88L161,242.77l3-9,2.43-6.95c.42-1.17.85-2.34,1.25-3.52q5-14.88,10-29.76l.32,3.91,0,17.1-.3,4.6a6,6,0,0,0-1.08,1.47c-3.28,9.92-6.63,19.81-9.63,29.81-.44,1.48.82,3.47,1.3,5.22l1.1-.3,8.23-16.23.1,18.36c-4.66,7-4.28,6.68,0,11.91l0,22.93-1.86,1c-3.42.92-5.32-1.32-7.21-3.52-4.48-5.22-8.77-10.62-13.47-15.63-7.75-8.26-15.6-16.43-23.71-24.32-7-6.79-14.41-13.13-21.64-19.67l-1.79-1.91-.77.45.74,2.52.36,2.17.41,3.08.3,2.18.39,2.34.15,1.46.62,3.79.35,2.91.36,2.34.57,3.65.21,1.6.33,2.17,1.12,7.59.53,3.64,1,6.11.19,1.45,1.31,8.3L118,297.16l1.28,7.56.31,2.17.4,2.34.68,3.79.23,1.5.22,1.38.45,2.33.2,1.44.48,2.32.94,5.19,1.26,3.16c.68,4.35.93,8.83,2.18,13,.91,3,.58,4.86-2.17,6.26a.39.39,0,0,0-.63,0c-3,.19-4.3-1.91-5.42-4.19a.24.24,0,0,0,0-.33q-.15-1-.29-2.08l-.4-1.54-1.16-5.16-.27-1.6-.28-1.43-.5-2.32-.22-1.44-.5-2.32-.46-2.9-.35-1.58-.48-2.15-.85-1.74L111.18,307l-.14-1.53-.44-2.15-.26-1.61-.39-2.91-.44-2.33-.3-2.17-.43-2.33-1.89-12.65-.43-2.33-.31-2.17-.43-2.33-.48-3.66-.24-1.6-.4-2.16-.23-1.61-.44-3.64-.43-2.33-.28-2.18-.53-3.06-.37-2.92L102,247l-.32-2.17-.39-2.34-.24-2.18-.53-3.06-.46-3.65-.37-2.34-.49-3.66L99,226l-.43-2.92Zm76,61.52.87-.52c-1.75-3.29-3.22-6.76-5.29-9.83C159.36,257,148.89,241.36,138,226c-25.62-36.07-61.12-58.44-102.19-73-2.75-1-4.5-.69-6.42,1.7-10.8,13.38-16.62,28.85-19.52,45.59,0,.17.41.41.38.39L31.4,182.93c-1-.42-2-.9-3-1.21-2.65-.8-4.87-2.25-4-5.28.95-3.18,3.62-3.52,6.41-2.27,12.63,5.64,25.73,10.44,37.75,17.17,35,19.58,64.45,46.08,91.42,75.49C164.86,272.13,169.54,277.6,174.31,283Z"/><path class="cls-6" d="M177.73,219.13l.3-4.6c3.16.88,3.64,3.23,3.63,6.12q-.09,36.36,0,72.73c0,1.82-.48,4.24,2.57,3.67,2.45-.46,6.29,2.2,6.85-3.07,1.5-14,3.19-28,4.81-42.07,1.26-10.92,2.55-21.84,3.8-32.76.31-2.73,1.58-4.72,4.46-4.45,3.12.29,4,2.63,3.6,5.49,0,.37-.1.74-.15,1.11q-3.65,31.26-7.29,62.53c-.5,4.28-.92,8.56-1.38,12.8,8.48,1.38,8.59,1.25,10.31-6.07q8.39-35.74,16.85-71.47c.64-2.71,1.8-4.8,5-4.39,2.63.34,3.73,2.8,2.93,6.2Q227.8,247,221.62,273q-2.78,11.78-5.53,23.59c7.1,1.29,8.38.94,9.68-2.66q17-46.82,34-93.66a29.68,29.68,0,0,0,.72-3H256l-78,.14-.32-3.91.12-3.51a22.65,22.65,0,0,1,4.19-.79c26,0,52-.1,78,0,3.09,0,4.32-1,5.25-3.83,17.21-52.37-16.58-109.09-70.94-118.94-1-.18-2-.22-3-.32l-2.34-.41-5.16-.37-5.88-.9q0-3.53,0-7.06l5.18-.48,5.16.36,1.62.15c9.07,2.46,18.54,4,27.11,7.65a109.39,109.39,0,0,1,23.13,14c18.1,13.84,29,32.57,34.82,54.42.92,3.47,1.4,7.05,2.08,10.58l.44,3.08q0,10.11,0,20.22l-.37,2.34c-2.09,14.47-7.56,27.91-12.6,41.49-4.33,11.63-8.32,23.38-12.56,35-4.47,12.28-9.09,24.5-13.58,36.77-2.54,6.93-4.82,14-7.46,20.85-2.49,6.49-5.27,12.84-11.71,16.66-.75.44-1,2.15-1,3.28-.08,8.62,0,17.24,0,25.85,0,8-.91,9.13-8.73,10.39-5.74.92-11.5,1.74-17.25,2.61l-2.32.5-2.9.43-1.59.36-7.39,2.1-1-9.2,30-5.3,1.6-.35c.47-.6,1.33-1.19,1.34-1.79.09-8.72.06-17.44.06-26.59H177.28l1.88-8.32c4.84.14,9.68.4,14.52.39,5.45,0,10.9-.27,16.35-.42s8.65-3.76,10.82-8.41l-1.08-.71H177.71c0-4.31,0-8.12,0-11.93l.07-1.18q0-11.46,0-22.93,0-6,0-11.91-.05-9.18-.11-18.36Q177.68,229.12,177.73,219.13Z"/><path class="cls-7" d="M81.79,116.36,78,111.23c-1-.93-2-1.78-2.92-2.79-3.81-4.31-8.07-8-13.61-9.89-.45-1.37-1.41-2.8-1.25-4.09q.69-5.59,7.68-1.91a54.31,54.31,0,0,1,18.9,17c7.28,10.23,11.88,21.67,14.73,33.91,1,4.43,3.14,8.6,4.76,12.89l1.5,3.71,1-.32-.71-3.65-.65-9.59-.08-1.54-.08-21,.2-4.52.6-6,.32-3.09.33-2.17.48-3.07.38-2.16.46-1.58.19-1.44.47-1.57.24-1.44.56-1.56.78-2.45.7-2.05.8-1.69,1-2c2.79-3.58,5.37-7.36,8.49-10.64,1.28-1.35,1.77-2.06.81-3.6-5.52-8.87-10.8-17.91-16.63-26.58-2.6-3.87-6.21-7.07-9.49-10.46a17.16,17.16,0,0,0-3.42-2.18L109,75.16l.51,2.32.32,2.17.39,2.34.07,6-.86,1.44c-4.21,2.05-5.43,1.57-7.21-2.85l-.19-3.1-.55-3.65-.23-1.6L101,76.81l-.42-1.58-.27-1.43-1.48-5-.71-2.47-.57-1.55c-6.32-13.53-12.61-27.07-19-40.57-1.71-3.63-1.19-6.39,2.09-7.07,1.57-.32,3.52.52,5.14,1.2,7.24,3,13.36,7.71,19.11,13,12.64,11.53,21.08,25.95,28.39,41.15l2.61.78,1.31.09,1.66.19,1.44.18L144.09,75l11.16,7.85c2.68,4.16,5.36,8.33,8.09,12.46a6.32,6.32,0,0,0,1.32-.52l-.06,0,.09.29.3,0-.93,1.61,0,.25.91,1.62,1.13,2.62,2.85,6.31,1.68,4.23.59,1.76,1.36,3.8,2.51,8.18.52,1.56.37,1.42.37,1.58.45,1.42,1,4.59-.1,11.26-1.49.78-3.23-.61-2.13-4.65-.24-1.42-1.37-7.46-1.23-.61-.86,1.94-.94.2-4.73-1.66-.38-1.08-.8-1.92L159,129.55l-5.88-1.83-.22-.07,0-.23c.32-4.92,2.35-6.48,6.77-5a23.47,23.47,0,0,1,3.91,2c1,.57,2,1.21,3.2,1.92.61-5.63-1.84-9.14-5.89-9l-2-2-1.1-2.58-1-1.13-2.83-.8-4-2.24.85-4.09h0c2.17-.06,4.34-.15,6.51-.17,1.95,0,2.2-.68.9-2.07l-.75-1.22-1-1.8L155.24,97,153.3,94l-1.06-1.44L151.12,91l-1.87-2.22L147,86.47l-2.27-2L140.6,82.1,138,81.29c-2.91-1.6-5.62-1-8.24.71l-1.42.76-1.59,1.08-1.83,1.88a12.32,12.32,0,0,0-5.24,9.64L119.23,97l-1.84,7.35-.31,1.64-1.73,4.71.92.68,2.24-1.63,1.13-.88,6.63-.73,1.37,1.88-3.89,5.22-.78.48a14,14,0,0,0-2.14,2.92,22,22,0,0,0-.84,4.18l-1,.58c-2.52-.21-5.46-.87-3.78,3.48l-.15,1.76.09,1.23-.13,3.94a8.61,8.61,0,0,0-1,2.82c.13,4.68.41,9.36.74,14,0,.62.6,1.21.92,1.82l.2,2.39.41,5.14,0,1.77.78,5.7.18,1.68L119,178l1.1,1.35,2.66,3.16,2.56,2.94,2.18,2.33,0,0,3,3,0,0,2.29,2.2,3,2.6,1.25,1.24.18.18,3.58,2.83.19.12,1.64,1.26,1.53,1.23,0,5-1.13.68-5.73-1.62L132.82,204l-17-17.3-1-.66-.53-.59c-1.54-2.25-3-4.51-4.61-6.74C103.25,169.52,97.9,159.79,95,149,91.85,137.56,88.39,126.35,81.79,116.36Z"/><path class="cls-8" d="M342.79,412.43l-.08-.19,7.55-5.5,2.15-.8,1.62-2.19,1.46-2.32,2.11-2.28,1.6-3.06,1.63-7.35.59-1.56c1.36-6.65,2.86-13.28,4-20,1.11-6.3,1.86-12.66,2.77-19,2-.37,3.15-1,1.07-2.9l3.3-3.22,1.7-1.35,1.27-.93,1.75-1.28a.78.78,0,0,1,.46-.26c.94-.25,1.89-.44,2.81-.75,3.59-1.2,7.16-2.44,10.74-3.66l1.7-1.36c6.17-1.65,12.39-3.18,18.49-5.06,1.3-.4,2.2-2.1,3.29-3.2a.78.78,0,0,1,.45-.25l2.53-2,1.5-1.48L422.4,316l1.05-.78-1.1-.74-1.56-1.52L417.73,310l-7.41-5.17-1.59-.06-9-.83-1.55-.63-4-.67-2.18-2.2-.7-.91L390.6,298c.55-.88,1.47-1.72,1.59-2.65a43.53,43.53,0,0,0,0-5.78c.32-3.75,2.71-6.18,5.35-8.47,1.8-1.56,3.51-3.23,5.26-4.85l1.07-.52c5.77-1.87,11.51-3.85,17.32-5.58,5.52-1.64,11.11-3,16.68-4.5l1.68-1.37,2.94-.15,1.55-.64h4.49l1.55.66,1.78-.24,1.86,1.19.86,2.07,0,3.82a61.52,61.52,0,0,0-7.64,3.66c-3.12,2-5.93,4.52-8.88,6.82l-.77.74c-.71.63-1.85,1.16-2,1.91a2.78,2.78,0,0,0,1.22,2.34,44.78,44.78,0,0,0,8.75,3.85c8.92,2.33,14,8.34,16.94,16.64-1.17,1.29-1.54,2.43.61,3.06l.07,6-.68,2.31c-3.81,4.67-7.65,9.31-11.4,14-1.58,2-3,4.11-4.48,6.18a.7.7,0,0,1-.43.26L444,340a.74.74,0,0,1-.45.24l-1.68-.18-2.36,1.46-2.95,1.6c-2.62-1.44-2.92.28-3.05,2.24a.39.39,0,0,1-.36.33,8,8,0,0,0-2.85,0C424.64,348,419,350.3,413.45,353c-3.24,1.57-6.14,3.82-9.2,5.77a.72.72,0,0,1-.44.25L402,360.24l-1.24.94L395,366.22c-2.38-.08-2,1.64-2,3.08q0,9,0,17.92l-.66,7.68-.06,2.76,0,.93-2.91,7.6-2.92,3-1.76,1.29a.76.76,0,0,1-.45.25l-1.82,1.2L380.55,413l-6.29,3.54-8.6,4.21c-1.85.47-3.75.8-5.54,1.43-3.8,1.32-7.54,2.79-11.31,4.2l-1.55.65-2.21.08-1.59,0-6.26.07a1.13,1.13,0,0,0-.47-.18l.41-2.89,1.24-3.06c1.8-2.25,3.64-4.47,5.32-6.8C343.88,414,343.11,413,342.79,412.43Zm84.09-104,0-.06.58.85,1.36,1.82-.46,1.92-.72,5.43c-.37,1.12-.46,2.47-1.15,3.32-2,2.46-4.22,4.72-6.36,7.06-5.5,2-11,4-16.46,6.18-.5.2-.58,1.43-.86,2.18l-1.06.46a45,45,0,0,0-17.63,4.68c-3.33,1.38-7,2.36-7.51,6.86l-3.21,5c-.68.92-1.85,1.8-1.95,2.78-.3,2.82-.16,5.69-.2,8.54-2.29.9-1.67,2.31-.65,3.78l-.13,4.47-.62,2.28-1.6,9-.64,2.28-1.45,4.43-3,6.94c-1.33,6-7.55,10-7.3,18.08l8.06-3.82,4.74-2.11L372,409a1.55,1.55,0,0,1,.64-.17c3.24,1.56,4.5-.36,5.32-3l.53-.62c4.34-.47,6.23-3.87,8.12-7.07.46-.78-.21-2.22-.36-3.36q0-1.51,0-3c3.94-.43,1.44-3.51,2.16-5.26q0-1.87,0-3.73,0-3.38,0-6.76l-.73-3.74,1.47-3.76-.71-4.49.74-1.49c.81-.14,2.09,0,2.37-.47,3.69-6.21,10-8.82,15.91-12.15,1-.59,1.62-2,2.41-3l1.35-.66,16.18-5.5,8.27-3.73,2.84-3.14.13.16-.11-.17,2.24-1.49.15.13-.13-.15,1.6.14,3.72-3.95,2.13-2.1c3-2.66,6.72-4.88,8.72-8.14,1.18-1.92,2-5.88-1.05-8.29l.07-.75c.08-1,.6-2.3.16-3-1.7-2.54-3.29-5.46-5.69-7.15-3.18-2.24-6.44-5.32-11.06-4L438,295c-2.28-2.54-4.62-5-8.52-4.18l.1-.13.08-11.59,1.67-5-3.24.87-18.43,5.14-1.72.76c-2.59,1.59-6.3,2-6.59,6l-1.82,1.6-2,2.23a.4.4,0,0,1-.15.52c-.47.46-1.25.87-1.35,1.4-.76,3.81,3.41,6.4,8.25,5.18l1.42.25.74,0H408l1,.55.26-.06.23.14,9.14,2.89,0,0,2.28,1.54,0,0,2.36,1.57.29,0,.24.17.7.69,1.64,2Z"/><path class="cls-4" d="M321.08,333.26l-1,1.87L318.84,337l0,.07-.48.69-1.91,2.77-1.46,1.67-9.66,5.41-.74-.19-1.45-1.48.63-7.48,5.5-6.37,1.07-5.65q0-5.58,0-11.16l-.62-6-.18-1.45-.83-2.79-4-7.1-3.87-3.73-1.17-.9-1.85-1.31-17.29-7.33-3.79-1.42-3.43-1.87-1.71-1.45-1.49-1.43-.75-.83c-2.88-6.35-1.8-10.55,4.56-16.48a46.78,46.78,0,0,1,5.8-4,41.44,41.44,0,0,1,25.63,1.66c9.47,4.8,13.84,13.7,18.15,22.64A71.86,71.86,0,0,1,327.92,307l-.12,3-.6,6-.15,1.45L325,325l-.64,1.69Zm-3.71-34.56c.35-1.11.61-1.47.53-1.75-2.81-10-6-19.92-14-27.15-6-5.42-13.34-4.62-20.54-3.2a6.54,6.54,0,0,0-2.95,2.18c-3.21,3.44-2.85,4.8,1.67,6C296.4,278.49,309.24,284.49,317.36,298.69Z"/><path class="cls-4" d="M462.69,294.95l1.56-1.48,1.53-.7,2.93-.3,4.32-1.54,1.68-.66,6.5-3.23,7-3.47,7.92-4.1,1.86-1,1.94-1.18,1.8-1.1,1.88-1.22,7.11-4.84c5.52-3,11.05-2.66,16.59,0l6.06,6.12,1.47,3.77-.08,5.26-2.12,5.3c-2.45,4.69-7,6.82-11.33,9.16l-3.82,1.25-1.43.28-3.79.55-7.44.33-8.31.41-20.19.31-8.36-.12-1.46-.15C463.21,301,461,299,462.69,294.95Zm32.67-3.13.33,1.09c5.92-.55,11.93-.63,17.72-1.81,3.47-.71,6.78-2.85,9.77-4.92,1.09-.75,1.95-3.95,1.34-4.64a11.65,11.65,0,0,0-6-3.55c-1.33-.28-3.13,1.27-4.61,2.17-5.56,3.35-11.08,6.77-16.6,10.18C496.66,290.77,496,291.32,495.37,291.82Z"/><path class="cls-4" d="M355.86,242.4l.6-1.84,1.35-1.8h0l1.72-1.4,3.43-1.89,13.54-2.87,2.29,0,6.8,1.33,3.25,1.69.1.31.31-.06c4.44,3.13,8.49,6.6,10.61,11.81l.47,1.58.42,2.9q0,4.92,0,9.85l-.42,8.16-.37,1.59-1,2.16-7.42,10.38L387,286l-5.17-.83c-.29-2.06-.46-4.14-.89-6.17-.54-2.58-1.29-5.11-2-7.67a.33.33,0,0,0-.23-.37L375,267.23a.31.31,0,0,0-.36-.24l-1.91-1.18-7.46-4.58-.72-.8h0L363,258.92l-4.48-4.47-3.1-7.47v-1.51Zm33.27,26.73,1.45-.33c.23-3.4.6-6.81.65-10.21.16-10.77-6.59-17-17.25-15.62-2.77.36-5.38,1.92-8.06,2.93,1.77,2.28,3.14,5.09,5.38,6.73C377.88,257.43,385.35,261.16,389.13,269.13Z"/><path class="cls-5" d="M164.61,94.7l.06,0L155.41,81c-2.92-6-5.93-12-8.72-18.09a31,31,0,0,1-1.43-5.63l-.49-1.57-.36-2.16L144,52l-.52-3.64-.14-1.62q0-6,0-12l.39-2.34,2.4-2.46,3.13.07a53.82,53.82,0,0,1,2.12,5.87,16.49,16.49,0,0,1,0,4.06l0,2.27.46,6.65.27,1.61,1.75,7.43.75,2,2.57,6.38L162,75.24c4.11,6.22,8.09,12.53,12.39,18.61,2.45,3.48,4.07,6.94,3.61,11.34-.32,3.13-.06,6.33-.06,10.14l-9.9-16.13-1.78-2a.5.5,0,0,0-.18-.48Z"/><path class="cls-6" d="M193.42,393.93l4-5H178.15v-8.12h31.77c0-4.1,0-7.79,0-11.48,0-2.65.23-5.23,3.74-5.25s4.46,2.11,4.43,5.17c0,4.87-.07,9.74,0,14.6,0,3.14-1.92,5.63-4.43,5.29-5.94-.79-8.45,3.21-11.24,6.83a6.09,6.09,0,0,1-5.68,2.61c-4.11-.15-8.24-.15-12.35,0-1.17.05-2.31,1-3.46,1.51,1.1.45,2.21,1.32,3.3,1.29,3.68-.12,7.35-.59,11-.86a15,15,0,0,1,2.51.22l.28,1c-1.59.49-3.17,1.33-4.77,1.4-5.11.2-10.23.12-15.35.14q-.07-3.67-.13-7.34c3.94-.2,7.9-.28,11.83-.65C190.92,395.25,192.16,394.43,193.42,393.93Z"/><path class="cls-7" d="M164.61,198.18l1.08-3.78,7.5-22.84c-.75-.11-1-.24-1.22-.16a4.82,4.82,0,0,0-.89.6l-4.93-2.23-.89-2.41-.82-.91-1.7-.93-4.6-1.07-1-4.5c3.26-3.82,9.4-3.33,13.48,1.19a61.63,61.63,0,0,1,3.83,5.39l2.19-7.58,1.22-.51-.12,24-.43,1.58-.35,1.41-11.93,41.32-2.48,5.63c-5,1.05-6.35-.33-5.82-5.77l2.6-9.72,1.07-3.78L163,203.4l1.13-3.76Z"/><path class="cls-9" d="M213.38,441.34c6.85-1.69,13.69-3.45,20.57-5,7.25-1.67,14.54-3.18,21.81-4.77l3.28-.63,11.7-1.76.79-.11,3.18-.74c1.35-.15,2.7-.34,4.05-.44,2.79-.21,5.59-.38,8.39-.57l.11,2.7-9.68,4.15-2.36.47-2.12.35-1.6.26-8.91,1.2-1.61.26-2.9.44-2.34.36-2.9.47-1.6.26-5.91,1.07-1.59.41-2.14.44-1.58.43c-6.47,1.81-12.92,3.7-19.42,5.41-3.49.92-7.05,1.52-10.58,2.26l-2.33.31L201,449l-7.51,0-3.07-2.6,1.35-2.05,3.22-.87.76-.11,2.32-.27,1.14-.31,13.12-1.22Z"/><path class="cls-10" d="M177.79,396q.07,3.67.13,7.34l-6.92.26-1.55-.17-2.21-.54-9-2.82c-9-3.06-15.55-9.52-21.48-16.54-2.91-3.44-5-7.54-7.51-11.35l-2.36-4.51c-1.48-5.09-.16-7.73,3.74-7.17,1.17.17,2.84,1,3.21,2a52.53,52.53,0,0,0,13.52,20.12c7.83,7.12,16.64,13.26,28.13,13Z"/><path class="cls-10" d="M133.56,41.47c1.31,7.11,4.4,13.46,8.14,19.57a21.41,21.41,0,0,1,1.53,4.43L142.54,67c-2.79,2.24-5,1.92-7.19-1.07A53.1,53.1,0,0,1,125,41.55L124.63,40,124.28,37,123.89,34l-.09-4.47,0-1.52.07-1.46.38-3.09,1-5.18,1.24-3.82c1.1-1.41,2-3.16,3.38-4.11.79-.53,3.36-.06,3.58.53.71,1.91.71,4.1,1,6.17l-.73,2-.37,1.41L133,22l-.33,2.17-.23,1.61.6,13.35Z"/><path class="cls-10" d="M104.23,112l.25,1.43.49,2.32.67,3.81-.25,4.18-4.91,1.87L99,124.74l-1.16-2.17L97.48,121c-1.53-6.27-3-12.56-4.61-18.81-.88-3.44-1.52-7-3-10.2-2.38-5-5.4-9.64-8.15-14.43-.86-1.5-1.74-3-2.62-4.46l.11-1.68L81,69.16l4.54.05c8.76,8.94,12.21,20.51,15.89,32,.34,1.06.65,2.14,1,3.21l.54,2.05.76,3.23Z"/><path class="cls-9" d="M105,443.11l36.06.08,1.15-.31c3.31-.24,6.63-.38,9.93-.76,4.79-.55,9.57-1.27,14.35-1.92h2.26L171,442l-.15,1.49c-1.95.93-3.81,2.3-5.86,2.71-4.68.93-9.46,1.4-14.2,2l-3.1.26c-13.58.11-27.16.24-40.74.3-4.36,0-8.71-.19-13.07-.29l-1.6-.28c-1.82-.87-4.37-.92-4.28-3.88l3.61-1.44,10.33.11Z"/><path class="cls-6" d="M192,77.08c7.44,2.69,14.37,4.54,20.66,7.66S224.44,92.1,230.19,96c2.19,1.49,3.15,3.74,1.23,6.1s-4.29,1.91-6.51,0a72.93,72.93,0,0,0-32.61-15.84c-2.44-.5-4.54-1.86-4-4.45C188.61,80.23,190.5,78.9,192,77.08Z"/><path class="cls-9" d="M188.26,439.23l-5.56-2.49.62-2.15,10.93-1.2,1.6-.17c5.22-1,10.46-1.92,15.65-3.05,7-1.53,14-3.23,21-4.86l2.36-.31,3.65-.45,3.84-.34a47.35,47.35,0,0,1,6.67.12c1.27.19,2.4,1.24,3.6,1.9-1,1-1.83,2.48-3.06,3.05-1.51.7-3.35.69-5,1l-1.6.24-8.24.59-1,.28c-5.22,1-10.47,1.84-15.66,3-5.69,1.25-11.33,2.76-17,4.15l-1.58.28-8.17.42Z"/><path class="cls-11" d="M229.47,8.7c3.13.74,5.18,3.55,4.22,6.23-3.35,9.35-6.84,18.64-10.36,27.92-1,2.62-2.19,5.16-3.37,7.7-1,2.08-2.77,2.75-4.4,1.22-1.31-1.23-3.06-3.59-2.66-4.81,3.87-11.66,8.07-23.22,12.45-34.7C225.91,10.77,228.05,9.88,229.47,8.7Z"/><path class="cls-11" d="M309.75,76.29c1.14.87,3.06,1.61,3.5,2.86.63,1.78.85,3.84-1.75,5.3-9.81,5.5-19.42,11.37-29.18,17-1.74,1-3.94,1.92-5.79,1.7-1.2-.14-2.66-2.27-3-3.76-.26-1,.85-2.92,1.89-3.58,5.54-3.53,11.23-6.83,16.9-10.15,4.69-2.75,9.43-5.43,14.17-8.09A27.14,27.14,0,0,1,309.75,76.29Z"/><path class="cls-11" d="M251.81,73.35c-1.48-1.4-3.39-2.44-3.92-3.95-.44-1.27.3-3.43,1.24-4.62,4.23-5.35,8.72-10.5,13.13-15.7,3.29-3.88,6.63-7.72,9.9-11.61,1.67-2,3.45-2.8,5.68-.89s2.44,4,.67,6.21c-3.1,3.93-6.17,7.87-9.4,11.68-4.82,5.69-9.76,11.29-14.69,16.89A18.44,18.44,0,0,1,251.81,73.35Z"/><path class="cls-9" d="M66.1,435c-7-6.19-8.17-14.28-7.41-23,.13-1.47,0-3,0-4.45l.29-2.33c1.94-6.25,4.17-12.5,9.48-16.63,3.25-2.53,7.23-4.21,11.08-5.8.92-.38,2.62,1.1,4,1.73-.9,1.15-1.57,2.92-2.73,3.34-10.51,3.83-16.46,12.31-16.53,24q0,4.6.07,9.19,2.19,4.39,4.37,8.78c1.12,2.27,2.61,4.62-1.11,6Z"/><path class="cls-6" d="M311.26,129.2l10.43-1.76,2.32-.49,2.9-.45h1.71c2.3.68,3.77,2.14,3.21,4.6s-2.12,4.38-5.2,4.15a17.67,17.67,0,0,0-3.28.36l-1.61.29-2.17.31-2.32.48-2.9.42-1.6.36-6.65,1.2-1.61.26-2.89.44-1.59.39-2.9.42-1.6.31c-1.36.13-2.94.75-4,.27-1.57-.68-3.75-2.06-3.9-3.34s1.55-3.66,2.94-4.17c3.22-1.18,6.74-1.52,10.14-2.2l1.61-.24,2.16-.33,2.32-.5,2.9-.43Z"/><path class="cls-10" d="M178.45,45.09c0,3.94-3.19,6.29-4.71,9.48-2.07,4.35-4,8.78-6.14,13.07a26.78,26.78,0,0,1-3.25,4.18h-1.67l-1.4-.49-1.1-7.43c3.21-10,7.8-19,16.13-25.78l1.38.08Z"/><path class="cls-10" d="M124.36,99.64a12,12,0,0,1,23.56-2.53c.59,2.47.22,4.58-2.41,5.48s-4.39-.27-5.24-2.77c-.75-2.22-1.86-3.89-4.51-3.43s-3.31,2.14-3.28,4.62a3.68,3.68,0,0,1-4.31,4C125,104.78,124.27,102.4,124.36,99.64Z"/><path class="cls-5" d="M135.76,168.23a10.13,10.13,0,0,0,2.62-1.28c6.76-6.28,17.27-3.65,20,5,.81,2.58.51,4.91-2.15,6s-4.23-.52-5.6-2.9c-.84-1.46-2.71-3.15-4.2-3.24-2.39-.14-3.43,1.9-3.41,4.42,0,2.68-1.62,4.65-4.16,4-1.57-.38-3.2-2.47-3.81-4.16-.52-1.42.44-3.35.66-5.06a27.67,27.67,0,0,0,.08-2.87Z"/><path class="cls-9" d="M293.26,423.21l-6.73,1.06-12,1.71-1.1-1.17,2.36-4.16,4-1.21,1.82-.61c11.38-1.48,22.75-3,32.95-8.88A5.74,5.74,0,0,1,317,409c.88,0,2.19.17,2.56.75a2.73,2.73,0,0,1-.38,2.61,24.46,24.46,0,0,1-5.33,4.06c-4,2.07-8.13,3.81-12.2,5.68l-1.6.36-5.15.51Z"/><path class="cls-7" d="M133.51,150.23c3-2.76,5.89-5.53,10.4-5.6a12.14,12.14,0,0,1,12,9.25c.53,2.55-.12,4.55-2.66,5.37s-4.13-.4-4.95-2.71c-.76-2.15-1.74-4-4.39-3.73-2.84.26-3.48,2.28-3.63,4.74-.19,3.29-3.19,3.49-5.31,4.66l.07.05v-1l-2-2.07.48-9Z"/><path class="cls-10" d="M115.73,152.48c-.32-.61-.88-1.2-.92-1.82-.32-4.67-.6-9.35-.74-14a8.61,8.61,0,0,1,1-2.82c.69-.66,1.34-1.37,2.07-2,2.5-2.08,4.76-4.68,7.61-6,3.3-1.57,5.18,0,6,3.67.15.65.86,1.18,1.3,1.76l-1.76,8.9-.68-7.42c-2.94.64-5.77,1.26-5.69,5.77,0,2.85-2.11,4.09-5,3.61a29.34,29.34,0,0,1-3.28-1Z"/><path class="cls-5" d="M130.33,140.11l1.76-8.9,1.47-2,6.71-3.12,1.51,0,4,.78,1.19.4,2.55,1.85,2.83,4.15q0,2.74.05,5.47l-1.24,1.11c-2.63.09-4.33-.77-5.29-3.58-1.24-3.61-4.29-4.06-7.14-1.45l-1.36,4.9L132,142Z"/><path class="cls-5" d="M144.95,108.91l2.1,1.46,1.83,2.37.51,1-.15,6.89-1,.48-4.24-.89h0l-.79-1.51L141,115.28c-1.38-.15-3-.81-4.11-.36-3.16,1.26-2.65,4.25-2.6,6.93l-1.8,1.53-2.92-.08-1.29-.89-1-2.92,0-1.5,3.21-7.11,1.28-1.21,1.71-1,1.07-.52,2.68-.77,1.5-.12Z"/><path class="cls-11" d="M186,333.24l2.95-.4,1.55-.35c2.09-.15,4.32-.81,6.22-.28,1.54.43,3.9,2.51,3.73,3.46a6.68,6.68,0,0,1-3.57,4.51c-3.59,1.23-7.49,1.55-11.27,2.24-2.39.43-4.78.84-7.67,1.35,0-3,0-5.84,0-8.63l2.12-.84,1.46-.21Z"/><path class="cls-5" d="M146.43,193.73l0,1.5-.86,1.58-1,.85-4.54-.86-.63-1.07c-.65-5.59,2.24-9.49,6.16-12.89l1.13-.46,10.9,1.59,2.24,2.18,1.66,8.11-.89,1c-3.43.92-4.73-1.77-6.44-3.77l-.37-.69c-2-3-3.27-3.12-6.07-.38l0,.22h-.22Z"/><path class="cls-12" d="M34.74,405.26l-.31,1.42q-.34,0-.68.05c.09-1.87-.26-3.91.35-5.59,3-8.2,6.73-16.15,12.72-22.57a61.4,61.4,0,0,1,12-9.36c11.54-7.38,23.68-13.71,36.72-17.93,6-1.93,12.32-2.57,18.49-3.79l.77,1.44c-3,.21-6.06,0-8.89.7a143.48,143.48,0,0,0-52,25.65C49,379,45.74,384.86,41.75,389.74Z"/><path class="cls-9" d="M72.1,413.51c2-1.11,3.46-.35,4.19,1.55a21,21,0,0,1,1.58,6.11c.31,5.53,3.36,8.92,8,11.29a8.21,8.21,0,0,1,2.31,1.19,32.47,32.47,0,0,1,2.58,3.56c-1.38.48-3,1.66-4.12,1.33-6.82-2-12.18-5.67-13.78-13.19-.36-1.7-.7-3.41-1.06-5.11Z"/><path class="cls-10" d="M133.07,159.2l2,2.07-.88.69.86.29-.07-.05.78,6,0,0c-3.44,1.26-7.06,2.1-7,7.11,0,1.06-2.7,3.17-3.8,2.95a5.88,5.88,0,0,1-3.77-3.7c-1.3-5.64,3.07-11.33,9.33-12.89C131.78,161.35,133.91,161.78,133.07,159.2Z"/><path class="cls-10" d="M133.55,150.2c-4.64.72-6,2.29-7.13,6.41-.38,1.44-2.34,3.5-3.49,3.45a5.69,5.69,0,0,1-4.22-3.12c-1.87-5.75,4.2-13.58,10.23-13.53a4,4,0,0,1,4.32,4.16c0,.89.16,1.77.24,2.66Z"/><path class="cls-11" d="M178.45,45.09l-.76-6.89q0-.61,0-1.22V.51L179.27,0c.79,1.51,2.24,3,2.26,4.53.19,12,.23,24,0,35.92C181.47,42,179.52,43.55,178.45,45.09Z"/><path class="cls-13" d="M114,424.52l-15-4.29c.43-.15.87-.47,1.28-.42,5.52.62,11,1.82,16.55,1.85,12.94.07,25.9-.16,38.83-.78,7.27-.35,14.49-1.78,21.74-2.59a17.05,17.05,0,0,1,4.15.56l-19.46,3.3-3.09.29-9.06.62a.6.6,0,0,0-.68.11l-28.47,1.42Z"/><path class="cls-10" d="M167.28,141.95l1.46,1.55,2.56,7.56-.41,1.23-1.7,1.46c-3.12.89-4.75-.45-6.07-3.31a6.19,6.19,0,0,0-4.1-2.92c-2.76-.45-4.61-1.47-4.56-4.34s2.28-4.07,4.88-3.88a38.68,38.68,0,0,1,6.11,1.4Z"/><path class="cls-14" d="M462.13,306.92c-2.94-8.3-8-14.31-16.94-16.64a44.78,44.78,0,0,1-8.75-3.85,2.78,2.78,0,0,1-1.22-2.34c.16-.75,1.3-1.28,2-1.91-.61,2.47.85,3.62,2.83,4.42l13.65,5.44h0l3,2.28.72.71c4.18,5.86,7.78,11.94,7.71,19.48l-.2,1.45c-2.06,3.75-3.75,7.78-6.29,11.17-2.7,3.6-6.21,6.6-9.37,9.86h0l-3,1.48c1.49-2.06,2.89-4.19,4.48-6.18,3.76-4.71,7.6-9.35,11.4-14l.68-2.31q0-3-.07-6Z"/><path class="cls-9" d="M105.78,362.19c3.05,2.94.62,4.18-1.69,5.46l-17.83,9.93H84c-2-2.27-1.15-4.22,1-5.58,4.35-2.78,8.84-5.34,13.28-8l3.77-1.45Z"/><path class="cls-13" d="M297.51,439.24l4-1.17,6.53-2.55,4-1.23,2-1,15.2-6.4c-.85.95-1.51,2.35-2.57,2.77-11.31,4.47-22.56,9.16-34.08,13-11.3,3.8-22.86,6.85-34.38,9.95-3.43.92-7.13.89-10.7,1.29a3.32,3.32,0,0,1,.06-.63l1.42-.26,9-2.11,1.47-.27,1.56-.41,1.44-.37,6.8-1.89,2.2-.35,3.81-1.13,3-.93,2.3-.56,3.81-1.26,2.53-.89,1.84-.45Z"/><path class="cls-13" d="M380.55,413l1.91-1.07,1.82-1.2a.76.76,0,0,0,.45-.25l1.76-1.29,2.92-3,5-8.46c1.18,4.82-1.49,8.4-4.45,11.38a35.49,35.49,0,0,1-9.37,6.65c-11.69,5.77-23.24,11.94-36,15.18-2.5.64-4.84,1-6.31-1.8,1.7.25,3.65,1.16,5.06.63,7.51-2.83,14.88-6,22.29-9.07l8.6-4.21Z"/><path class="cls-14" d="M360.82,388.74l-1.63,7.35-1.6,3.06-2.11,2.28-1.69.55,2.58-6.44.3-1.11,1-2,.46-1.81.85-2,.34-1.42,2.7-14.32.24-2.19.54-6.05L363,361l1.38-9.79,1.68-3.62,2.23-1.52-.09,2.18c-.91,6.33-1.67,12.69-2.77,19-1.17,6.69-2.68,13.31-4,20Z"/><path class="cls-13" d="M446.24,338.47l3-1.48c-.73,4.92-5.3,5.72-8.6,7.3-8.92,4.25-18.24,7.67-27.22,11.8-6.43,3-12.88,6.14-16.07,13.18-.16.36-.79.5-1.21.74l-.34-3.78,4.94-5.06,1.24-.94,1.81-1.25a.72.72,0,0,0,.44-.25c4.66-2.08,9.33-4.14,14-6.24,5-2.25,9.94-4.54,14.91-6.81a.39.39,0,0,0,.36-.33l2.91-1.09,4.14-2.36a.72.72,0,0,0,.58-.2l2.4-1.48A.74.74,0,0,0,444,340l1.81-1.26A.7.7,0,0,0,446.24,338.47Z"/><path class="cls-15" d="M165.07,226.79,177,185.48c-.17,1.31-.39,2.62-.44,3.94,0,.18.8.4,1.22.6l-.12,3.51q-5,14.88-10,29.75c-.4,1.18-.83,2.35-1.25,3.52Zm11-33.88-.2-.27c-.08.08-.24.2-.22.22a2.73,2.73,0,0,0,.31.34Z"/><path class="cls-12" d="M119.33,461.18c-6.74-1-13.55-1.61-20.19-3a163.09,163.09,0,0,1-39.56-14.27,30,30,0,0,1-3.58-2.5c5,2.05,10.08,4,15,6.18a136.05,136.05,0,0,0,38.73,10.93,52.76,52.76,0,0,1,6.23.84A14,14,0,0,1,119.33,461.18Z"/><path class="cls-12" d="M177,458.39c-4.76.68-9.5,1.69-14.29,2-12.41.75-24.84,1.2-37.26,1.69a18.35,18.35,0,0,1-3.91-.69l6-.74L129,460l11.23-.13,1.52-.62,16.47-.15,1.53-.6c4.44-.25,8.89-.57,13.33-.72A20.46,20.46,0,0,1,177,458.39Z"/><path class="cls-12" d="M57,451.77l1,.26,5,2.57,3.21,1.19,20,7.81L93.75,466a3.12,3.12,0,0,1,0,.68c-3.53-.74-7.18-1.11-10.56-2.29-12.22-4.26-24.66-8.07-35.49-15.49-1.11-.76-1.8-2.15-2.68-3.25l1.46.15a.2.2,0,0,0,.32.13l1.93,1.41a.19.19,0,0,0,.31.11l2,1.33,1,.29,2,1.24,1,.28Z"/><path class="cls-13" d="M368.31,346l-2.23,1.52c1-5.37,5.28-7.81,9.34-10.38,9.82-6.24,21.14-8.53,32-12.13,2.95-1,5.83-2.13,8.75-3.21l.34.37L415.24,324a.78.78,0,0,0-.45.25c-7.84,2.44-15.77,4.61-23.47,7.41-4.7,1.71-9,4.38-13.55,6.63a.78.78,0,0,0-.46.26l-1.75,1.28-1.27.93-1.7,1.35-3.3,3.22Z"/><path class="cls-16" d="M247.56,453.32a3.32,3.32,0,0,0-.06.63l-2.17.33-4.58,1.13-2.16.46-24.08,5.58-1.44.27L207,463l-1.45.23-2.31.49-1.43.3-5.33,1.15-1.42.3-1.58.43-2.29-.07c1.67-.86,3.25-2.11,5-2.53,13.17-3.09,26.37-6,39.57-9,2.76-.62,5.52-1.28,8.32-1.66C245.21,452.48,246.41,453.06,247.56,453.32Z"/><path class="cls-12" d="M244.5,444.91c-5.27,1.29-10.51,2.72-15.81,3.85-12.51,2.67-25,5.22-37.57,7.78a18.94,18.94,0,0,1-2.92.15,56.55,56.55,0,0,1,7.06-2.55c13.29-3,26.61-5.85,40-8.57C238.22,445,241.4,445.12,244.5,444.91Z"/><path class="cls-14" d="M437.84,265.64c-5.56,1.49-11.16,2.86-16.68,4.5-5.81,1.73-11.55,3.71-17.32,5.58l9.09-5.1,1.79-.49c9.82-2.77,19.67-5.46,29.46-8.34,3.13-.92,5.61-.45,7.64,2.11l-1.78.24-1.55-.66H444l-1.55.64-2.94.15Z"/><path class="cls-12" d="M275.22,434.61l2.36-.47-.52,2.41,11-4.29c12.13-4.39,25.23-6.46,35.63-15a6.36,6.36,0,0,1,2-.7c-3.42,4.8-8.5,7.27-13.77,9.12-12.1,4.26-24.33,8.19-36.52,12.19a25.08,25.08,0,0,1-4,.65l1.63-1.75Z"/><path class="cls-13" d="M419.27,320.5l-1.5,1.48-1.31.24-.34-.37a14.93,14.93,0,0,1,1.16-2.67c2.94-4.32,2.13-7.32-3.08-9-4.58-1.45-9.38-2.22-14.09-3.23-4.22-.91-8.17-2.36-10.58-6.19-.56-.88-.18-2.35-.24-3.55l1,.43a.38.38,0,0,0,.34.35l.78,1.56.7.91,2.18,2.2c1.9,1,3.71,2.27,5.72,2.84,5.87,1.66,11.83,3,17.75,4.52l3.06,2.91Z"/><path class="cls-13" d="M451.83,263.9c-2-2.56-4.51-3-7.64-2.11-9.79,2.88-19.64,5.58-29.46,8.34.68-.64,1.26-1.63,2.06-1.87,9.36-2.79,18.74-5.56,28.16-8.14,4.25-1.16,11.75,2.72,13.39,6.78.28.69-.35,1.75-.57,2.64l-4.09-4.45Z"/><path class="cls-13" d="M207.75,415.72l-5.26-.07c.74-.47,1.44-1.24,2.24-1.35,12.47-1.8,24.94-3.59,37.44-5.17,2.22-.28,4.56.38,6.85.6a2.83,2.83,0,0,1,0,.7l-6.64.51-1.59.29-8.91,1.25-1.6.21-3.65.53-1.59.24-15.65,2Z"/><path class="cls-12" d="M102,362.56,98.27,364l-.1-.77-1.45,0q-12.17,5.64-24.35,11.26c-1.18.54-2.46.88-3.7,1.32,8-6.29,17.19-10.5,26.77-13.72,4.29-1.44,8.92-1.9,13.4-2.8l-3.07,1Z"/><path class="cls-13" d="M354.81,343l1.14-3.36,1.23-2.56a.63.63,0,0,0,.21-.46l5.79-9.28a.64.64,0,0,0,.24-.45l1.21-1.84a.63.63,0,0,0,.24-.43l6.43-6.28c-1.64,2.7-3.19,5.46-4.95,8.09-4.19,6.26-8.91,12.22-10.26,20-.13.72-1.27,1.26-1.94,1.88l-.32-1.61.7-2.89Z"/><path class="cls-13" d="M294.74,402.91l-1.4.34-1.6.42-1.42.27-9.82,2-1.43.25-3.83.69a.36.36,0,0,1,.07-.45c1.54-.86,3-2.35,4.64-2.49a86.73,86.73,0,0,0,29-8.28,12.93,12.93,0,0,1,3.56-.55l-9.46,5-2,1-1.75.49Z"/><path class="cls-13" d="M350.26,406.73l-7.55,5.5.28-1.77.58-1.47.39-1.11,2.4-5,1.85-4.21,1.22-2.52.39-1.1,3.42-5.6c-.15,1.55,0,3.21-.52,4.61-1.16,3.08-2.62,6-4.05,9-.83,1.72-.32,2.28,1.46,2l.36.31Z"/><path class="cls-9" d="M395.83,366.23l.34,3.78-.37,13.42-.58,3.79-1.39,0-.82,0q0-9,0-17.92c0-1.44-.38-3.16,2-3.08Z"/><path class="cls-14" d="M391.51,284.32l7.42-10.38,0,1.54c.35.52.72,1.49,1.06,1.48a11.12,11.12,0,0,0,2.76-.72c-1.75,1.62-3.46,3.29-5.26,4.85-2.64,2.3-5,4.72-5.35,8.48L389.53,292l-.17-1.55Z"/><path class="cls-14" d="M365.66,420.7c-7.42,3.06-14.79,6.25-22.29,9.07-1.41.53-3.36-.39-5.06-.63l-1.11-2,6.26-.07,1.59,0,2.21-.08,1.55-.65c3.77-1.41,7.51-2.88,11.31-4.2C361.92,421.5,363.81,421.17,365.66,420.7Z"/><path class="cls-12" d="M47.32,434.36c-1.78-2.85-4.85-5.6-5.08-8.57-.43-5.54.8-11.2,1.34-16.81.22,3,.64,6.06.61,9.09C44.14,423.74,43.84,429.4,47.32,434.36Z"/><path class="cls-12" d="M307.86,408c3.55-2,7.32-3.59,10.59-5.93,5-3.54,9.59-7.57,14.37-11.38-2.87,3.54-5.12,8-8.76,10.4C319.22,404.21,313.31,405.73,307.86,408Z"/><path class="cls-13" d="M465.14,314.51c.08-7.54-3.53-13.63-7.71-19.48l5.26-.08c-1.69,4,.51,6.08,3.81,7.59-.17,1.64-.32,3.29-.51,4.93C465.72,309.82,465.43,312.17,465.14,314.51Z"/><path class="cls-15" d="M115.79,186.65l17,17.3-.93,1.93L114.52,188l.31-.36Z"/><path class="cls-17" d="M210,314.55c-5.45.15-10.9.4-16.35.42-4.84,0-9.68-.25-14.52-.39a6.14,6.14,0,0,1,2-.76q13.45-.07,26.9,0A6.42,6.42,0,0,1,210,314.55Z"/><path class="cls-10" d="M160.86,117.34c4-.15,6.5,3.36,5.89,9-1.18-.71-2.17-1.35-3.2-1.92a23.47,23.47,0,0,0-3.91-2c-4.42-1.45-6.45.11-6.77,5-.15-1.44-.93-3.7-.33-4.17a12.85,12.85,0,0,1,5.55-2.09c1.1-.19,2.37.53,3.54.92s2.17.83,3.53,1.37C165.59,119.61,164.19,117.75,160.86,117.34Z"/><path class="cls-12" d="M347.19,329.44,351,326l.59.62-7.48,23c.09-2.24-.24-4.6.35-6.69,1.16-4.09,2.83-8,4.29-12Z"/><path class="cls-13" d="M449.28,337c3.16-3.26,6.67-6.26,9.37-9.86,2.54-3.39,4.23-7.42,6.29-11.17.18.9.77,1.95.49,2.66a41,41,0,0,1-13,17.43C451.64,336.68,450.34,336.69,449.28,337Z"/><path class="cls-13" d="M453.7,292.05l-13.65-5.44c-2-.8-3.45-1.94-2.83-4.42l.77-.74,5.23-2.33-3.9,4.88c4,1.89,7.84,3.59,11.56,5.49A14.5,14.5,0,0,1,453.7,292.05Z"/><path class="cls-13" d="M329.89,341.43c-.89,4.67-1.82,9.33-2.64,14a32.45,32.45,0,0,0-.22,4l-.37,3.09-.42,3.66-.67,0c-.25-1.79-.92-3.63-.68-5.35.78-5.64,1.81-11.25,2.94-16.83C328,343.08,329.17,342.3,329.89,341.43Z"/><path class="cls-13" d="M214.5,461.44l24.08-5.58c-5.21,1.61-10.37,3.4-15.64,4.74C220.24,461.3,217.32,461.19,214.5,461.44Z"/><path class="cls-12" d="M327.92,307a71.86,71.86,0,0,0-4.45-25.59c1.42,3.21,3.32,6.29,4.13,9.65a80.69,80.69,0,0,1,1.55,12.87C329.21,304.93,328.35,306,327.92,307Z"/><path class="cls-16" d="M46.51,445.8l-1.46-.15-6-5.92L33,428.49l.22-1.53c.9,1.22,1.82,2.43,2.7,3.67q4,5.66,8,11.35C44.75,443.25,45.62,444.53,46.51,445.8Z"/><path class="cls-12" d="M305.32,258.79a41.44,41.44,0,0,0-25.63-1.66c1.85-.77,3.64-1.91,5.57-2.25a32.79,32.79,0,0,1,18.61,2.38C304.46,257.5,304.84,258.26,305.32,258.79Z"/><path class="cls-12" d="M336.4,359.55a32.11,32.11,0,0,1,0-5.85c.91-5.1,2-10.18,3.23-15.22.3-1.21,1.46-2.2,2.22-3.29-1.29,5.54-2.61,11.07-3.87,16.62C337.39,354.37,336.92,357,336.4,359.55Z"/><path class="cls-15" d="M155.41,81l9.25,13.72a6.33,6.33,0,0,1-1.32.52c-2.74-4.13-5.41-8.3-8.09-12.46Z"/><path class="cls-14" d="M443.22,279.13,438,281.46c2.95-2.29,5.76-4.79,8.88-6.82a61.53,61.53,0,0,1,7.64-3.66l1.2-.29.3.29a42.89,42.89,0,0,1-3.76,2.95c-2.81,1.76-5.72,3.37-8.58,5A.52.52,0,0,0,443.22,279.13Z"/><path class="cls-18" d="M171.08,172a4.82,4.82,0,0,1,.89-.6c.19-.08.47,0,1.22.16l-7.5,22.84c1.66-6.17,3.35-12.32,5-18.5A27,27,0,0,0,171.08,172Z"/><path class="cls-12" d="M86,395.41l-2.24,18.89c-.22-.11-.61-.19-.63-.33-.9-6.29-1.49-12.55,2.2-18.28C85.4,395.52,85.73,395.49,86,395.41Z"/><path class="cls-14" d="M371.31,318.33l-6.43,6.28c0-.6-.2-1.45.11-1.77,4.07-4.09,8.22-8.11,12.35-12.14l.27,1.08-4,4.25Z"/><path class="cls-19" d="M274.48,426l12-1.71.62,3c-2.8.19-5.59.35-8.39.57-1.35.1-2.7.29-4.05.44Z"/><path class="cls-13" d="M352.29,361.64l.13-2.88,0-.81,0-1.47.36,0h.36c.26,4.83.62,9.66.73,14.49a18.13,18.13,0,0,1-1,4.34l-.6-2.25Q352.32,367.34,352.29,361.64Z"/><path class="cls-14" d="M394.46,397.73l-5,8.46,2.91-7.6q0-.46,0-.93,0-1.38.06-2.76c.48-1,1-1.89,1.45-2.85s.82-1.76,1.22-2.64l.59.89L395.2,394l-.33,1.59Z"/><path class="cls-13" d="M201,415.84l-2.95,1.1-1.61.23L183,418.61c2.68-.88,5.3-2.16,8.05-2.55C194.32,415.59,197.7,415.88,201,415.84Z"/><path class="cls-13" d="M327,376c.21,3.46.47,6.93-2.57,9.5q.58-7.39,1.15-14.78.34,0,.69,0l.37,2.91Z"/><path class="cls-17" d="M177.79,396l-2.26-.42c3.36-.51,6.7-1.16,10.07-1.5,2.59-.26,5.22-.13,7.83-.17-1.27.5-2.51,1.32-3.81,1.44C185.69,395.74,181.73,395.82,177.79,396Z"/><path class="cls-13" d="M402.78,276.24A11.12,11.12,0,0,1,400,277c-.34,0-.71-1-1.06-1.48,3.36-1.4,6.7-2.88,10.11-4.18a20.16,20.16,0,0,1,3.87-.68l-9.09,5.1Z"/><path class="cls-14" d="M353.24,389.48l-3.42,5.6,2.82-15.37Z"/><path class="cls-12" d="M342.48,389.41l-8.54,16.88c1-2.33,1.92-4.72,3.09-7C338.75,396,340.65,392.7,342.48,389.41Z"/><path class="cls-12" d="M527.31,270.07c-5.54-2.62-11.06-3-16.59,0C514.79,265.31,523.1,265.29,527.31,270.07Z"/><path class="cls-13" d="M362,372.92l-2.7,14.32c0-2.1-.39-4.27,0-6.27A68.92,68.92,0,0,1,362,372.92Z"/><path class="cls-16" d="M129,471c.53-.68,1.12-2,1.58-1.94,3.25.32,6.47.92,9.7,1.43q0,.33,0,.65Z"/><path class="cls-12" d="M260.29,418.11l13.52-2C269.63,418.93,265.05,419.15,260.29,418.11Z"/><path class="cls-19" d="M114.78,348.94,114,347.5c0-2,0-4.08,0-6.42l2.94.39.12,1.46c-1.44,1.82-.48,2.24,1.28,2.19a.24.24,0,0,1,0,.34L116.22,349l-1.42,0Z"/><path class="cls-13" d="M443.66,279c2.87-1.67,5.77-3.29,8.58-5A42.89,42.89,0,0,0,456,271l1.47-.81c-.37,1-.46,2.55-1.16,2.91C452.18,275.19,447.9,277,443.66,279Z"/><path class="cls-13" d="M369,307.84l-2.22,0c1.74-3.25,4.82-3.51,7.77-2.85,1.08.24,1.73,2.39,2.58,3.67l-3.56-1.38Z"/><path class="cls-10" d="M145.52,182.83c-3.92,3.4-6.81,7.3-6.16,12.89C137.39,190.46,139.92,185.17,145.52,182.83Z"/><path class="cls-10" d="M138.76,134.82c2.85-2.6,5.91-2.15,7.14,1.45,1,2.81,2.66,3.67,5.29,3.58-2.68,1.78-4.32.48-5.49-1.94C143.61,133.57,143,133.27,138.76,134.82Z"/><path class="cls-15" d="M160.18,63.89l1.1,7.43.73,3.92-4.74-8.91Z"/><path class="cls-12" d="M89.23,424.79l11,6.39C95.46,430.89,91.42,429.43,89.23,424.79Z"/><path class="cls-13" d="M337.13,424.11l-.41,2.89-2-3-3.3,1.13,5.38-5.78Z"/><path class="cls-12" d="M379,271.35c.66,2.55,1.41,5.09,2,7.67.43,2,.6,4.11.89,6.17-.77-1.32-2-2.58-2.21-4C379.16,278,379.18,274.64,379,271.35Z"/><path class="cls-15" d="M39.07,90.8,23.95,86.23c.31-.36.75-1.07.9-1C29.6,87,34.33,88.92,39.07,90.8Z"/><path class="cls-12" d="M33,428.49,39,439.73C35.5,437.82,32,431.4,33,428.49Z"/><path class="cls-19" d="M288.05,432.27l-11,4.29.52-2.41,9.68-4.15Z"/><path class="cls-10" d="M130.53,110.86,127.32,118c0-.94,0-1.89,0-3.16l-3.56.42,3.89-5.22Z"/><path class="cls-19" d="M126.92,367.69l2.36,4.51-1.05,0-1.26,0-4.68-4.47Z"/><path class="cls-12" d="M376.49,232.61,363,235.48C367.08,232.7,371.46,231.15,376.49,232.61Z"/><path class="cls-16" d="M142.5,470.42c.6-.47,1.17-1.27,1.82-1.36a82.44,82.44,0,0,1,8.42-.69c.58,0,1.19.85,1.79,1.31l-3,.78-5.91.41Z"/><path class="cls-20" d="M389.53,292l2.65-2.48a43.63,43.63,0,0,1,0,5.78c-.11.93-1,1.77-1.59,2.65a.38.38,0,0,1-.34-.35l-.81-2Z"/><path class="cls-13" d="M356.38,395.53,353.8,402l0,.06-1.49,2.16-.06.07-1.71,1.14-.36-.31Z"/><path class="cls-12" d="M343.38,370q0,6,0,11.95Q343.38,376,343.38,370Z"/><path class="cls-13" d="M337.78,325.12,331.71,334C331.09,331.23,334.57,326.13,337.78,325.12Z"/><path class="cls-13" d="M391.51,284.32l-2.15,6.18L387,286Z"/><path class="cls-12" d="M287.3,413.63l12.05-2.72-6.83,2.62-1.52.67Z"/><path class="cls-12" d="M336.16,375.94q0-5.59,0-11.18Q336.16,370.35,336.16,375.94Z"/><path class="cls-12" d="M274.77,416.05l10.33-2.11C282.11,416.88,278.51,416.8,274.77,416.05Z"/><path class="cls-15" d="M9.65,171.94,5.27,184c.18-1.58,0-3.3.62-4.72C6.92,176.73,8.37,174.37,9.65,171.94Z"/><path class="cls-13" d="M360,310.1l-11.16,4.62C350.4,312.17,356.8,309.52,360,310.1Z"/><path class="cls-10" d="M157.55,184l-10.9-1.59C150.64,180.44,154.26,181.09,157.55,184Z"/><path class="cls-10" d="M134.31,121.84c-.05-2.67-.56-5.67,2.6-6.93,1.14-.46,2.73.21,4.11.36-4.47-.27-5.29.4-5.88,4.65A7.8,7.8,0,0,1,134.31,121.84Z"/><path class="cls-15" d="M171.3,151.05l-2.56-7.56,2.17-.76,2.13,4.65Z"/><path class="cls-10" d="M119.69,95.36a12.32,12.32,0,0,1,5.24-9.64Z"/><path class="cls-12" d="M186.79,427.84l11.29-2Z"/><path class="cls-13" d="M103.58,388l7.38-6.13C109.77,385.44,107,387.17,103.58,388Z"/><path class="cls-13" d="M364.39,351.19,363,361C362,357.51,361.22,354.07,364.39,351.19Z"/><path class="cls-13" d="M400.76,262q0-4.92,0-9.85C402.51,254.52,402.52,259.64,400.76,262Z"/><path class="cls-21" d="M273.82,407c-.83.63-1.62,1.7-2.5,1.79-2.67.26-5.38.14-8.07.17q0-.34,0-.68l1.43-.26,3.08-.4,2.89-.47,1.57-.42Z"/><path class="cls-13" d="M324.23,385.82l-6.09,6.06Z"/><path class="cls-10" d="M154.12,191.47c1.71,2,3,4.7,6.44,3.77C156.82,197.16,155.47,196.36,154.12,191.47Z"/><path class="cls-16" d="M105,468.3c3.49-1.14,6.85-1.33,9.81,1.35l-3,.1-3.08-.43-3.65-.39Q105,468.62,105,468.3Z"/><path class="cls-12" d="M114.8,349l1.42,0c.15,2.53.37,5.06.41,7.6,0,.46-.7.93-1.08,1.4Z"/><path class="cls-18" d="M163,203.4l-2.53,9.74Z"/><path class="cls-19" d="M64.32,421.06q0-4.6-.07-9.19Q64.28,416.46,64.32,421.06Z"/><path class="cls-18" d="M165.07,226.79h1.38L164,233.75l-1.44-1.33Z"/><path class="cls-18" d="M159.37,216.93l-2.6,9.72Z"/><path class="cls-10" d="M140,196.79l4.54.86-4.37.88.59,1.28L137.18,197Z"/><path class="cls-10" d="M119,178l-1.63-8.82Z"/><path class="cls-13" d="M468,302.69l8.36.12C473.51,304.58,470.72,304.83,468,302.69Z"/><path class="cls-16" d="M181.48,467.15c2.39-3,5.32-2.2,8.28-1.19a2.88,2.88,0,0,0,0,.67l-4.39.46-2.33.34Z"/><path class="cls-13" d="M496.51,302.5l8.31-.41Z"/><path class="cls-10" d="M158.16,102.23c1.3,1.39,1,2.06-.9,2.07-2.17,0-4.34.11-6.51.17,1.52-.49,3-1,4.57-1.48C156.26,102.71,157.22,102.49,158.16,102.23Z"/><path class="cls-15" d="M116.24,286l-1.31-8.3C117,280.19,117.7,282.92,116.24,286Z"/><path class="cls-10" d="M129.77,82c2.62-1.71,5.34-2.31,8.24-.71Z"/><path class="cls-17" d="M158.27,400.08l9,2.82Z"/><path class="cls-12" d="M303.72,338.46l-.63,7.48C299.87,343.81,300.09,341.24,303.72,338.46Z"/><path class="cls-12" d="M44,406.81l3-8.67Z"/><path class="cls-12" d="M355.47,247l3.1,7.47C355.14,253,354.52,250.29,355.47,247Z"/><path class="cls-12" d="M496.14,279.46l-7.92,4.1Z"/><path class="cls-10" d="M161.45,194.26l-1.66-8.11C161.74,188.56,163.68,191,161.45,194.26Z"/><path class="cls-19" d="M193.51,449.08l7.51,0A5.8,5.8,0,0,1,193.51,449.08Z"/><path class="cls-10" d="M117.4,104.34,119.23,97Z"/><path class="cls-15" d="M167.2,135.19l.86-1.94,1.23.61,1.37,7.46c-.58-1.26-1.09-2.56-1.75-3.77A21.41,21.41,0,0,0,167.2,135.19Z"/><path class="cls-15" d="M113.23,266.48l-1.12-7.59C113.86,261.22,114.69,263.68,113.23,266.48Z"/><path class="cls-12" d="M212.54,424.35l8-1.4Z"/><path class="cls-15" d="M119.27,304.73,118,297.16C119.87,299.44,120.65,301.9,119.27,304.73Z"/><path class="cls-12" d="M83.91,415.75l2.27,6C83.26,420.57,82.64,418.52,83.91,415.75Z"/><path class="cls-14" d="M457.47,270.17,456,271l-.29-.29-1.16-3.53-.86-2.07,4.09,4.45A1.11,1.11,0,0,0,457.47,270.17Z"/><path class="cls-10" d="M140.26,126.12l-6.71,3.12Z"/><path class="cls-10" d="M120,122.81a22,22,0,0,1,.84-4.18,14,14,0,0,1,2.14-2.92c-.48,1.49-.89,3-1.47,4.45A20.84,20.84,0,0,1,120,122.81Z"/><path class="cls-13" d="M347,315.65l-4.89,4.13C341.83,317,343.3,315.8,347,315.65Z"/><path class="cls-12" d="M333.07,390.25l3.31-7.25A6.8,6.8,0,0,1,333.07,390.25Z"/><path class="cls-10" d="M149.25,120.65l.15-6.89C151,116.09,152.07,118.41,149.25,120.65Z"/><path class="cls-19" d="M72.1,413.51l-.31,6.72C69.85,417.89,70,415.22,72.1,413.51Z"/><path class="cls-10" d="M118.52,109.74l-2.24,1.63-.92-.68,1.73-4.71Z"/><path class="cls-13" d="M395.62,390.29l-.59-.89.1-1.37.1-.81.58-3.79Z"/><path class="cls-12" d="M325,325l2.09-7.55C328.22,320.51,327,322.88,325,325Z"/><path class="cls-10" d="M132,142l5.41-2.27C136.54,142.73,134.84,143.73,132,142Z"/><path class="cls-12" d="M385.58,234l-6.8-1.33A5.3,5.3,0,0,1,385.58,234Z"/><path class="cls-10" d="M153.14,127.73l5.88,1.83Z"/><path class="cls-15" d="M114.73,276.23l-1-6.11C115.82,271.89,116.18,273.92,114.73,276.23Z"/><path class="cls-13" d="M481.21,287l-6.5,3.23Z"/><path class="cls-12" d="M309.7,309.24l.62,6Z"/><path class="cls-12" d="M327.21,316l.6-6Z"/><path class="cls-10" d="M147.67,190.41c2.8-2.74,4.08-2.66,6.07.38Z"/><path class="cls-12" d="M34,409.76l-.36,4.43-.65,0,.56-6Z"/><path class="cls-10" d="M115.24,126.88c-1.68-4.35,1.26-3.69,3.78-3.48C117.66,124.45,115,124.07,115.24,126.88Z"/><path class="cls-13" d="M373.62,316l4-4.25C378.63,315.41,375.91,315.52,373.62,316Z"/><path class="cls-13" d="M362.83,364.68l-.54,6.05Z"/><path class="cls-12" d="M321.08,333.26l3.25-6.53Z"/><path class="cls-15" d="M105.4,123.72l.25-4.18,1.79-.08-.2,4.52Z"/><path class="cls-13" d="M207,463l6.06-1.26Z"/><path class="cls-12" d="M275.74,420.65l-2.36,4.16-.8-3.43Z"/><path class="cls-17" d="M177.89,64.51l5.88.9C181.63,66.3,179.47,67.28,177.89,64.51Z"/><path class="cls-10" d="M144.95,108.91l-6.19-1.69Z"/><path class="cls-10" d="M126.28,108.13l-6.63.73C121.72,107.39,123.83,106.2,126.28,108.13Z"/><path class="cls-12" d="M53.3,439.63l-4.42-3.71Z"/><path class="cls-17" d="M183.08,57l-5.18.48C179.4,54.78,181.18,55.2,183.08,57Z"/><path class="cls-12" d="M310.3,326.43l-1.07,5.65Z"/><path class="cls-12" d="M206.3,424.9l5.27-.51Z"/><path class="cls-10" d="M116.33,160l-.41-5.14Z"/><path class="cls-10" d="M137.23,206.49l5.73,1.62C140.39,209.9,138.75,208.4,137.23,206.49Z"/><path class="cls-15" d="M177.91,158.43l-1.22.51q0-1.92,0-3.84h1.52Z"/><path class="cls-10" d="M117.16,167.48l-.78-5.7Z"/><path class="cls-12" d="M142.5,470.42l3.09.46-5.34.31q0-.33,0-.65Z"/><path class="cls-12" d="M532.64,290.52l2.12-5.3Z"/><path class="cls-21" d="M93.14,402.29c-.81-2.39-.28-4.23,2.17-5.29l-1.56,5.23-.3.09Z"/><path class="cls-12" d="M300.8,294.16l3.87,3.73Z"/><path class="cls-15" d="M108.06,156.09l.71,3.65-1,.32-1.5-3.71Z"/><path class="cls-13" d="M196.49,465.14l5.33-1.15Z"/><path class="cls-12" d="M375,267.23l3.77,3.76Z"/><path class="cls-19" d="M91.58,442.89,88,444.32l-.29-1.75Z"/><path class="cls-13" d="M353,351.14l.17-1.42.37,0,.37,0c1.12,1.72,1.72,3.35-.7,4.51l-.31-2.14Z"/><path class="cls-12" d="M151.5,470.47l3-.78,1.55.39Z"/><path class="cls-12" d="M152.27,431.53l4.58-.33Z"/><path class="cls-21" d="M326.23,370.74q-.34,0-.69,0l0-4.48.68,0Q326.23,368.48,326.23,370.74Z"/><path class="cls-21" d="M249,410.42a2.83,2.83,0,0,0,0-.7l4.58.26Z"/><path class="cls-13" d="M258,409.08l-4.58.52C254.75,407.34,256.38,408,258,409.08Z"/><path class="cls-15" d="M85.52,69.21,81,69.16C82.52,67.07,84,66.95,85.52,69.21Z"/><path class="cls-10" d="M161.53,133.72l4.73,1.66C164,136.76,162.52,135.95,161.53,133.72Z"/><path class="cls-10" d="M152.44,138.74q0-2.74-.05-5.47Q152.41,136,152.44,138.74Z"/><path class="cls-13" d="M93.75,402.22,95.3,397a1.3,1.3,0,0,1,.69,0Z"/><path class="cls-19" d="M102,362.56l3.74-2.24q0,.94,0,1.87Z"/><path class="cls-10" d="M144.09,207.42l0-5C146,204.1,145.88,205.77,144.09,207.42Z"/><path class="cls-12" d="M32.71,421.67q0,2.31,0,4.63C30.89,424.76,30.91,423.22,32.71,421.67Z"/><path class="cls-22" d="M186,333.24l-4.48.84C182.6,331.49,184.29,332.26,186,333.24Z"/><path class="cls-18" d="M157.19,159.94l1,4.5C156.2,163.29,155.14,161.95,157.19,159.94Z"/><path class="cls-15" d="M166.28,97.16l1.77,2-1.93,1.91L165,98.49Z"/><path class="cls-15" d="M98.79,68.75l1.48,5Z"/><path class="cls-13" d="M240.74,455.4l4.58-1.13Z"/><path class="cls-12" d="M261,441.12l-4.56,1.09Z"/><path class="cls-10" d="M140.6,82.1l4.18,2.38Z"/><path class="cls-12" d="M270,438.89,265.46,440Z"/><path class="cls-12" d="M64.19,378.79,68.28,376Z"/><path class="cls-15" d="M177.86,136l-1-4.59Z"/><path class="cls-12" d="M114.65,470l3.81-.18a4.82,4.82,0,0,1,0,.65Z"/><path class="cls-12" d="M162.05,469.06l3.77.21-3.82.43A3.87,3.87,0,0,1,162.05,469.06Z"/><path class="cls-10" d="M130.47,190.75l-3-3Z"/><path class="cls-12" d="M199,425.8l4.3-.62Z"/><path class="cls-10" d="M122.73,182.49l-2.66-3.16Z"/><path class="cls-15" d="M.38,209.39,0,213.32Z"/><path class="cls-13" d="M512.27,301.76l3.79-.55Z"/><path class="cls-15" d="M108.06,231.22l-.74-2.52.77-.45,1.79,1.91Z"/><path class="cls-10" d="M150.76,104.47l-.85,4.09Z"/><path class="cls-15" d="M110.28,246.22l-.62-3.79Z"/><path class="cls-16" d="M162.05,469.06a3.87,3.87,0,0,0,0,.64l-3.76-.13Z"/><path class="cls-12" d="M182.25,457.65l-3.8.57Z"/><path class="cls-13" d="M473,290.92l-4.32,1.54Z"/><path class="cls-10" d="M145.82,126.88l-4-.78Z"/><path class="cls-10" d="M144,120.23l4.24.89Z"/><path class="cls-19" d="M242.35,424.19l-3.84.34C239.62,422.44,241,423,242.35,424.19Z"/><path class="cls-12" d="M300.77,410.55l3.81-1.31Z"/><path class="cls-13" d="M318.14,391.86l-3.78,2.3Z"/><path class="cls-19" d="M275.22,434.61l-2.17,2.18-.06-.87.11-1Z"/><path class="cls-12" d="M534.85,280l-1.47-3.77Z"/><path class="cls-12" d="M276.7,283.2l3.79,1.42Z"/><path class="cls-15" d="M144.09,75l-3.81-1.31Z"/><path class="cls-15" d="M172.59,117.21l-1.36-3.8Z"/><path class="cls-15" d="M170.65,111.65,169,107.42Z"/><path class="cls-13" d="M517.49,300.93l3.82-1.25Z"/><path class="cls-15" d="M126.56,14.42l-1.24,3.82Z"/><path class="cls-12" d="M252,443.32l-3,.65Z"/><path class="cls-19" d="M105,443.11l-3.11-.11Z"/><path class="cls-12" d="M343.75,352.64l-.3,3.09Z"/><path class="cls-15" d="M108.83,236.46l-.41-3.08Z"/><path class="cls-15" d="M21,95.48l.59,3Z"/><path class="cls-15" d="M100.53,237.23l.53,3.06Z"/><path class="cls-12" d="M255.78,418.81l3.07-.4Z"/><path class="cls-12" d="M355.86,242.4l-.4,3.07Z"/><path class="cls-12" d="M242.29,420.36l3.06-.42Z"/><path class="cls-15" d="M102.7,252.24l.53,3.06Z"/><path class="cls-19" d="M188.26,439.23l3,0C190.28,441.18,189.28,441.17,188.26,439.23Z"/><path class="cls-10" d="M153.3,94,155.24,97Z"/><path class="cls-12" d="M225,422.58l3.06-.47Z"/><path class="cls-12" d="M171,468.3l3,.2-3.07.43Q171,468.62,171,468.3Z"/><path class="cls-15" d="M109.17,105.14l-.48,3.07Z"/><path class="cls-15" d="M149.32,30,146.19,30C147.27,28.19,148.32,28.11,149.32,30Z"/><path class="cls-12" d="M108.69,469.32l3.08.43Z"/><path class="cls-15" d="M108.36,110.39l-.32,3.09Z"/><path class="cls-10" d="M153.94,110.79l2.83.8Z"/><path class="cls-16" d="M34,409.76l-.45-1.57.17-1.45q.34,0,.68-.05Z"/><path class="cls-15" d="M102,83.48l.19,3.1Z"/><path class="cls-12" d="M186.75,456.91l-3.06.54Z"/><path class="cls-17" d="M277.45,147.24l-.44-3.08Z"/><path class="cls-13" d="M267.79,407.59l-3.08.4Z"/><path class="cls-19" d="M147.67,448.48l3.1-.26Z"/><path class="cls-10" d="M146.43,193.73l1-3.1Z"/><path class="cls-15" d="M2.75,193.66l-.55,3.06Z"/><path class="cls-15" d="M123.89,34l.39,3.09Z"/><path class="cls-12" d="M166.51,430.74l3.09-.22Z"/><path class="cls-12" d="M177.79,429.37l3.05-.45Z"/><path class="cls-15" d="M124.29,23.42l-.38,3.09Z"/><path class="cls-19" d="M347.19,329.44l1.6,1.54-2.29-.79Z"/><path class="cls-15" d="M124.44,330.34l-1.26-3.16Z"/><path class="cls-13" d="M456.71,294.32l-3-2.28Z"/><path class="cls-12" d="M86.44,422.17l2.76,2.6Z"/><path class="cls-14" d="M366.66,308.29c-.31,2.47-1.52,2-2.91.89Z"/><path class="cls-10" d="M127.47,187.75l-2.18-2.33Z"/><path class="cls-19" d="M191.78,444.42l-1.35,2.05-1.1-1.08Z"/><path class="cls-12" d="M61.19,381l2.6-2Z"/><path class="cls-14" d="M353.93,349.71l-.37,0-.37,0,.63-3.06.32,1.61Z"/><path class="cls-10" d="M149.56,129.12,147,127.27Z"/><path class="cls-10" d="M127.34,119.48l1,2.92Z"/><path class="cls-10" d="M132.78,193l-2.29-2.2Z"/><path class="cls-10" d="M147,86.47l2.2,2.29Z"/><path class="cls-10" d="M148.89,112.74l-1.83-2.37Z"/><path class="cls-22" d="M180.08,334.29l-2.12.84.74-2.19Z"/><path class="cls-15" d="M110.23,82l-.39-2.34Z"/><path class="cls-15" d="M109.51,77.48,109,75.16Z"/><path class="cls-12" d="M336.4,382l.06-2.39Z"/><path class="cls-19" d="M84,377.59h2.25L85,378.86Z"/><path class="cls-17" d="M277.06,169.81l.37-2.34Z"/><path class="cls-15" d="M109.51,296.48l.44,2.33Z"/><path class="cls-16" d="M33,414.23l.65,0-.4,2.32Z"/><path class="cls-19" d="M59,405.22l-.29,2.33Z"/><path class="cls-12" d="M308.69,305l.83,2.79Z"/><path class="cls-16" d="M123,470.56l.95-1.27.61,1.61-1.53.3Q123,470.88,123,470.56Z"/><path class="cls-19" d="M207.69,448.55l2.33-.31Z"/><path class="cls-15" d="M120,309.23l-.4-2.34Z"/><path class="cls-12" d="M108,432.81l2.3.16Z"/><path class="cls-17" d="M189.77,363.24l2.32-.5Z"/><path class="cls-12" d="M173.28,430.08l2.32-.32Z"/><path class="cls-10" d="M157.8,112.72l1.1,2.58Z"/><path class="cls-15" d="M105,115.74l-.49-2.32Z"/><path class="cls-19" d="M234.87,425l-2.36.31Z"/><path class="cls-16" d="M171,468.3q0,.31,0,.63l-2.27-.22Z"/><path class="cls-13" d="M183,467.43l2.33-.34Z"/><path class="cls-15" d="M104.23,112l-.55-2.31Z"/><path class="cls-16" d="M99,467.37l3,.56Z"/><path class="cls-10" d="M129.58,123.29l2.92.08Z"/><path class="cls-17" d="M324,126.94l-2.32.49Z"/><path class="cls-15" d="M122.24,322l-.48-2.32Z"/><path class="cls-13" d="M203.25,463.69l2.31-.49Z"/><path class="cls-17" d="M306.76,130l-2.32.5Z"/><path class="cls-15" d="M121.56,318.22l-.45-2.33Z"/><path class="cls-17" d="M317.25,136.68l2.32-.48Z"/><path class="cls-15" d="M143.79,32.41l-.39,2.34Z"/><path class="cls-10" d="M137.26,107.34l-2.68.77Z"/><path class="cls-12" d="M183,428.57l2.31-.49Z"/><path class="cls-15" d="M108.79,292l.43,2.33Z"/><path class="cls-15" d="M109.52,241l-.39-2.34Z"/><path class="cls-17" d="M188.93,65.78l2.34.41Z"/><path class="cls-15" d="M101.3,242.47l.39,2.34Z"/><path class="cls-12" d="M247.52,419.53l2.29-.3Z"/><path class="cls-15" d="M115.46,331l.5,2.32Z"/><path class="cls-15" d="M102,247l.31,2.35Z"/><path class="cls-15" d="M133.56,41.47,133,39.16Z"/><path class="cls-15" d="M111,251.48l-.36-2.34Z"/><path class="cls-15" d="M103.51,257.48l.43,2.33Z"/><path class="cls-12" d="M236.3,421.15l2.3-.42Z"/><path class="cls-19" d="M183.32,434.58l-.62,2.15-1.07-1.22Z"/><path class="cls-19" d="M168.77,440.2h-2.26Q167.64,437.62,168.77,440.2Z"/><path class="cls-12" d="M229.53,421.8l2.27-.25Z"/><path class="cls-12" d="M255.76,437.48l2.34-.36Z"/><path class="cls-21" d="M330.66,337.69l-.11,2.35Z"/><path class="cls-15" d="M151.47,42.24l0-2.27Z"/><path class="cls-15" d="M105.73,272.48l.43,2.33Z"/><path class="cls-15" d="M106.46,277l.43,2.33Z"/><path class="cls-15" d="M1.25,202.66.8,205Z"/><path class="cls-15" d="M135.86,73.17l-2.61-.78Z"/><path class="cls-15" d="M99.71,231.24l.37,2.34Z"/><path class="cls-12" d="M112.51,358.92l3-.9Z"/><path class="cls-15" d="M114.74,327.23l.5,2.32Z"/><path class="cls-13" d="M122.2,367.8l-1.62-2.22Z"/><path class="cls-18" d="M165.26,167.35l.89,2.41Z"/><path class="cls-12" d="M123,470.56q0,.32,0,.64l-1.58-.39Z"/><path class="cls-12" d="M300,422.48l1.6-.36Z"/><path class="cls-12" d="M251.25,438.22l1.6-.26Z"/><path class="cls-12" d="M105,468.3q0,.31,0,.62l-1.59-.37Z"/><path class="cls-19" d="M66.1,435l1.47.83Z"/><path class="cls-12" d="M145.53,432.36l1.57-.34Z"/><path class="cls-12" d="M261,436.68l1.61-.26Z"/><path class="cls-16" d="M118.51,470.5a4.82,4.82,0,0,0,0-.65l1.58.32Z"/><path class="cls-12" d="M273.11,435l-.11,1-1.49-.7Z"/><path class="cls-15" d="M133,22l.46-1.57Z"/><path class="cls-21" d="M93.74,415.75l-.61-1.57Z"/><path class="cls-15" d="M123.84,28l0,1.52Z"/><path class="cls-12" d="M332.21,409l-1.3,1.78Z"/><path class="cls-19" d="M195.85,433.22l-1.6.17Z"/><path class="cls-15" d="M133.77,19l.73-2Z"/><path class="cls-19" d="M242.92,430.5l1.6-.24Z"/><path class="cls-19" d="M159.78,458.52l-1.53.6Z"/><path class="cls-19" d="M291,414.2l1.52-.67Z"/><path class="cls-19" d="M141.78,459.27l-1.52.62Z"/><path class="cls-19" d="M129,460l-1.52.61Z"/><path class="cls-12" d="M264.47,440.09l-2,.69Z"/><path class="cls-19" d="M170.83,443.47,171,442l1.19.64Z"/><path class="cls-16" d="M93.78,466.67a3.12,3.12,0,0,0,0-.68l1.53.57Z"/><path class="cls-12" d="M240,440.56l1.58-.43Z"/><path class="cls-13" d="M193.49,465.87l1.58-.43Z"/><path class="cls-15" d="M132.39,25.81l.23-1.61Z"/><path class="cls-13" d="M189.72,466.63a2.88,2.88,0,0,1,0-.67l1.59.24Z"/><path class="cls-12" d="M293.26,423.21l1.6-.22Z"/><path class="cls-12" d="M55.55,441.12l-1.82-1.23Z"/><path class="cls-12" d="M142.51,433l1.59-.29Z"/><path class="cls-12" d="M243.74,439.69l1.59-.41Z"/><path class="cls-12" d="M259,430.91l-3.28.63Z"/><path class="cls-19" d="M92.26,448.21l1.6.28Z"/><path class="cls-19" d="M199.44,438.78l1.58-.28Z"/><path class="cls-12" d="M363,258.92l1.52,1.52Z"/><path class="cls-15" d="M111.78,256.72l-.21-1.6Z"/><path class="cls-13" d="M400.32,249.28l-.47-1.58Z"/><path class="cls-15" d="M142.54,67l.69-1.52Z"/><path class="cls-12" d="M357.81,238.77l-1.35,1.8Z"/><path class="cls-12" d="M359.52,237.38l-1.72,1.4Z"/><path class="cls-15" d="M99,226l.26,1.59Z"/><path class="cls-15" d="M98.29,221.47l.23,1.6Z"/><path class="cls-15" d="M79.18,71.39l-.11,1.68Z"/><path class="cls-15" d="M162.68,71.81h0Z"/><path class="cls-10" d="M142.59,201.2l-1.64-1.26Z"/><path class="cls-15" d="M1.74,198.88l-.28,1.59Z"/><path class="cls-18" d="M164.61,198.18l-.5,1.47Z"/><path class="cls-15" d="M138.83,73.46l-1.66-.19Z"/><path class="cls-10" d="M145.54,196.81l.86-1.58Z"/><path class="cls-10" d="M137,196.81l-1.25-1.24Z"/><path class="cls-15" d="M3.49,190.65,3,192.23Z"/><path class="cls-15" d="M4.25,187.66l-.45,1.58Z"/><path class="cls-15" d="M144,52l.38,1.59Z"/><path class="cls-15" d="M144.78,55.72l.49,1.57Z"/><path class="cls-13" d="M465.78,292.77l-1.53.7Z"/><path class="cls-12" d="M297.78,291.95l1.85,1.31Z"/><path class="cls-12" d="M271.56,279.89l1.71,1.45Z"/><path class="cls-17" d="M189.86,57.48l-1.62-.15Z"/><path class="cls-12" d="M499.93,277.27,498,278.44Z"/><path class="cls-15" d="M154.7,60l-.75-2Z"/><path class="cls-12" d="M503.62,274.95l-1.88,1.22Z"/><path class="cls-13" d="M400,271.77l.37-1.59Z"/><path class="cls-15" d="M105,267.23l.24,1.6Z"/><path class="cls-12" d="M372.74,265.8l1.91,1.18Z"/><path class="cls-15" d="M97.51,64.73l.57,1.55Z"/><path class="cls-15" d="M104.37,263.46l.23,1.61Z"/><path class="cls-10" d="M115.18,129.87l-.09-1.23Z"/><path class="cls-17" d="M328.62,126.49h0Z"/><path class="cls-15" d="M175.63,127l-.52-1.56Z"/><path class="cls-15" d="M99,124.74l1.48.84Z"/><path class="cls-15" d="M97.48,121l.37,1.59Z"/><path class="cls-10" d="M143.22,118.73l.79,1.51Z"/><path class="cls-10" d="M133.52,108.62l-1.71,1Z"/><path class="cls-15" d="M114.74,87.22l-1,2Z"/><path class="cls-15" d="M109.43,89.43l.86-1.44Z"/><path class="cls-15" d="M102.92,106.44l-.54-2.05Z"/><path class="cls-15" d="M110,101.41l-.46,1.58Z"/><path class="cls-10" d="M156.37,99.22l1,1.8Z"/><path class="cls-15" d="M110.67,98.39,110.2,100Z"/><path class="cls-22" d="M56.26,98.4l-1.47-.77Z"/><path class="cls-15" d="M111.47,95.4,110.91,97Z"/><path class="cls-15" d="M113,90.9l-.7,2.05Z"/><path class="cls-10" d="M151.12,91l1.12,1.56Z"/><path class="cls-15" d="M177.36,184.06l.43-1.58Z"/><path class="cls-18" d="M162.74,165.51l1.7.93Z"/><path class="cls-15" d="M100.54,75.22l.42,1.58Z"/><path class="cls-15" d="M101.24,78.23l.23,1.6Z"/><path class="cls-15" d="M169.19,153.75l1.7-1.46Z"/><path class="cls-15" d="M176.27,148l1.49-.78Z"/><path class="cls-15" d="M107.32,145l.08,1.54Z"/><path class="cls-15" d="M167.28,141.95l-1.83-1.25Z"/><path class="cls-17" d="M295.51,140.48l1.6-.31Z"/><path class="cls-10" d="M126.76,83.84l1.59-1.08Z"/><path class="cls-17" d="M300,139.74l1.59-.39Z"/><path class="cls-17" d="M304.5,138.91l1.61-.26Z"/><path class="cls-17" d="M312.76,137.45l1.6-.36Z"/><path class="cls-17" d="M321.75,135.88l1.61-.29Z"/><path class="cls-10" d="M160.34,130.72l.8,1.92Z"/><path class="cls-17" d="M302.27,130.79l-1.61.24Z"/><path class="cls-17" d="M311.26,129.2l-1.59.34Z"/><path class="cls-15" d="M176.37,130l-.37-1.58Z"/><path class="cls-15" d="M124.63,40l.37,1.59Z"/><path class="cls-15" d="M116.24,334.73l.27,1.6Z"/><path class="cls-12" d="M318.84,337l1.21-1.88Z"/><path class="cls-12" d="M314.94,342.19l1.46-1.67Z"/><path class="cls-15" d="M117.08,342.92l-.12-1.46a1.78,1.78,0,0,1,.71,0l.4,1.54Z"/><path class="cls-17" d="M208.52,351.29l-1.6.35Z"/><path class="cls-14" d="M353.2,356.46h-.36l-.36,0,.3-1.61Z"/><path class="cls-17" d="M185.27,364l1.59-.36Z"/><path class="cls-21" d="M120,365.67l-2,0Z"/><path class="cls-13" d="M127,372.19l1.26,0-1.54,1.43Z"/><path class="cls-12" d="M58.41,383.42,60,382Z"/><path class="cls-12" d="M90.78,388l-1.37,1.75Z"/><path class="cls-13" d="M359,388.66l-.85,2Z"/><path class="cls-12" d="M50.38,392.51l1.26-1.75Z"/><path class="cls-12" d="M87.57,392.42l-1.13,1.86Z"/><path class="cls-13" d="M357.69,392.46l-1,2Z"/><path class="cls-12" d="M48.91,394.77l1.2-1.81Z"/><path class="cls-13" d="M394.87,395.56l.33-1.59Z"/><path class="cls-17" d="M169.45,403.44l1.55.17Z"/><path class="cls-13" d="M92.65,406.8l.22-1.61Z"/><path class="cls-13" d="M272.26,406.7l-1.57.42Z"/><path class="cls-12" d="M333.71,406.7l-1.24,1.87Z"/><path class="cls-13" d="M263.27,408.26q0,.34,0,.68l-1.55-.3Z"/><path class="cls-14" d="M389.45,295.66l.81,2-1-.43Z"/><path class="cls-15" d="M152.19,50.49l-.27-1.61Z"/><path class="cls-15" d="M110.34,301.71l.26,1.61Z"/><path class="cls-15" d="M111,305.47l.14,1.53Z"/><path class="cls-15" d="M143.38,46.71l.14,1.62Z"/><path class="cls-15" d="M120.89,314.52l-.23-1.5,1.3.82Z"/><path class="cls-15" d="M112.59,318.86l.85,1.74Z"/><path class="cls-15" d="M113.93,322.74l.35,1.58Z"/><path class="cls-22" d="M190.51,332.48l-1.55.35Z"/><path class="cls-12" d="M344.22,332.46l1.47-1.62Z"/><path class="cls-22" d="M177.71,37q0,.61,0,1.22l-1.38-.09Z"/><path class="cls-22" d="M177.78,292.31l-.07,1.18-1.79-.2Z"/><path class="cls-19" d="M96.73,363.21l1.45,0Z"/><path class="cls-12" d="M123.82,349.64a.39.39,0,0,1,.63,0l-.41.94Z"/><path class="cls-19" d="M281.59,418.84l-1.82.61Z"/><path class="cls-22" d="M1533.92,115l.6-.63Z"/><path class="cls-22" d="M1506.76,114.35l.6.63Z"/><path class="cls-12" d="M271.53,429l-.79.11Z"/><path class="cls-13" d="M92.85,410.75a.9.9,0,0,1-.54-.29l-.07-.72a.32.32,0,0,1,.43.12,3.85,3.85,0,0,1,.29.58C93,410.51,92.89,410.64,92.85,410.75Z"/><path class="cls-22" d="M711.76,226.77l.59.71Z"/><path class="cls-19" d="M233.67,431.37l1-.28Z"/><path class="cls-12" d="M364.56,260.43l.72.8Z"/><path class="cls-12" d="M318.31,337.75l.48-.69Z"/><path class="cls-12" d="M389.24,235.89l-.31.06-.1-.31A.38.38,0,0,1,389.24,235.89Z"/><path class="cls-21" d="M125.25,374.18l.66-.5a6.93,6.93,0,0,1-.09.69A.7.7,0,0,1,125.25,374.18Z"/><path class="cls-13" d="M125.82,374.37a6.94,6.94,0,0,0,.09-.69l.8,0Z"/><path class="cls-12" d="M304.54,347.42l.74.19Z"/><path class="cls-22" d="M219.76,305.43l1.08.71Z"/><path class="cls-19" d="M213.38,441.34l-1,.3Z"/><path class="cls-19" d="M199.22,442.86l-1.14.31Z"/><path class="cls-19" d="M195.76,443.45l-.76.11Z"/><path class="cls-12" d="M269.32,277.62l.75.83Z"/><path class="cls-19" d="M142.23,442.87l-1.15.31Z"/><path class="cls-16" d="M86.28,463.6l-20-7.81c4.2,1.41,8.44,2.71,12.58,4.27C81.39,461,83.8,462.41,86.28,463.6Z"/><path class="cls-16" d="M342.79,412.43c.33.62,1.09,1.56.91,1.82-1.68,2.34-3.53,4.55-5.33,6.8l-.87-2.35Z"/><path class="cls-16" d="M34.74,405.26l7-15.52Z"/><path class="cls-14" d="M363.18,327.33l-5.79,9.28C357.33,333.26,360.24,328.58,363.18,327.33Z"/><path class="cls-14" d="M352.29,361.64q0,5.7.06,11.41C350.43,370.87,350.39,363.94,352.29,361.64Z"/><path class="cls-21" d="M280.5,405.95l9.82-2Z"/><path class="cls-16" d="M258,450.95l-9,2.11C251.49,450.21,254.79,450.74,258,450.95Z"/><path class="cls-16" d="M297.51,439.24l-8.78,3.19Z"/><path class="cls-21" d="M114,424.52l6.83.07Z"/><path class="cls-16" d="M269.28,448l-6.8,1.89Z"/><path class="cls-16" d="M308,435.52l-6.53,2.55Z"/><path class="cls-14" d="M337.5,418.7l.87,2.35-1.24,3.06-.36-4.71Z"/><path class="cls-14" d="M346.36,402.92l-2.4,5Z"/><path class="cls-16" d="M63,454.6,58,452Z"/><path class="cls-21" d="M294.74,402.91l4.57-1.32Z"/><path class="cls-14" d="M369,307.84l4.58-.58Z"/><path class="cls-16" d="M275.29,446.53l-3.81,1.13Z"/><path class="cls-21" d="M326.66,362.56l.37-3.09Z"/><path class="cls-21" d="M159,422.44l3.09-.29Z"/><path class="cls-21" d="M275.24,406.88l3.83-.69Z"/><path class="cls-21" d="M327,376l-.36-2.35Z"/><path class="cls-14" d="M357.19,337.08,356,339.64Z"/><path class="cls-16" d="M280.54,445l-2.3.56Z"/><path class="cls-14" d="M349.43,396.18l-1.22,2.52Z"/><path class="cls-21" d="M240.76,411.22l1.59-.29Z"/><path class="cls-21" d="M207.75,415.72l1.59-.31Z"/><path class="cls-16" d="M51,448.77l-2-1.33Z"/><path class="cls-16" d="M48.75,447.34l-1.93-1.41Z"/><path class="cls-16" d="M261,450.27l-1.56.41Z"/><path class="cls-16" d="M57,451.77l-2-1.2Z"/><path class="cls-21" d="M196.49,417.17l1.61-.23Z"/><path class="cls-21" d="M225,413.44l1.59-.24Z"/><path class="cls-16" d="M314,433.31l-2,1Z"/><path class="cls-16" d="M54,450.3l-2-1.24Z"/><path class="cls-21" d="M230.25,412.67l1.6-.21Z"/><path class="cls-21" d="M301.05,401.1l2-1Z"/><path class="cls-21" d="M291.74,403.66l1.6-.42Z"/><path class="cls-14" d="M364.64,325l-1.21,1.84Z"/><path class="cls-14" d="M343.56,409l-.58,1.47Z"/><path class="cls-16" d="M286.89,442.89l-2.53.89Z"/><path class="cls-14" d="M353,351.14l-.11.95-.78-.54Z"/><path class="cls-14" d="M354.81,343l-.28.76-.6-.48Z"/><path class="cls-21" d="M92.24,409.73l.07.72Z"/><path class="cls-21" d="M149.26,423.17a.6.6,0,0,1,.68-.11Z"/><path class="cls-14" d="M352.45,357.95l0,.81Z"/><path class="cls-22" d="M177.74,257.47q0,6,0,11.91C173.46,264.15,173.08,264.46,177.74,257.47Z"/><path class="cls-23" d="M117.08,342.92l1,.1q.14,1,.29,2.08C116.59,345.17,115.64,344.74,117.08,342.92Z"/><path class="cls-15" d="M113.19,186.59l1.09-1.19.53.59,0,1.64-.31.36Z"/><path class="cls-15" d="M164.61,94.7l1.49,2-2,.18,0-.25L165,95l-.3,0Z"/><path class="cls-23" d="M164.09,96.87l2-.18a.49.49,0,0,1,.18.48L165,98.49Z"/><path class="cls-24" d="M114.83,187.63l0-1.64,1,.66Z"/><path class="cls-23" d="M165,95l-.93,1.6Z"/><path class="cls-14" d="M373.36,354.15c-1.2,10.37-2.64,20.71-3.53,31.1-.91,10.62-8.35,18.58-12,28.88l6-1.25-8.06,3.82c-.25-8.07,6-12.07,7.3-18.08,2.29-1.75,3.59-3.94,3-6.94l1.45-4.43.64-2.28,1.6-9,.62-2.28.13-4.47.65-3.78c0-2.85-.1-5.72.2-8.54C371.51,355.95,372.68,355.07,373.36,354.15Z"/><path class="cls-14" d="M377.77,338.29c4.5-2.24,8.85-4.92,13.55-6.63,7.7-2.8,15.64-5,23.47-7.41-1.08,1.1-2,2.8-3.29,3.2-6.1,1.88-12.31,3.41-18.49,5.06l-1.7,1.36c-3.58,1.22-7.16,2.46-10.74,3.66C379.66,337.85,378.71,338,377.77,338.29Z"/><path class="cls-14" d="M429.84,314.44a64,64,0,0,1-1.15,7.23c-.48,1.77-.51,2.64,1.63,2.23l-4.27,6.25-6.78.87.82-2.25c2.14-2.34,4.37-4.6,6.36-7.06.69-.86.79-2.2,1.15-3.32Z"/><path class="cls-20" d="M389.28,362.49c3.36-6.45,9.07-10.25,15.28-13.45,1.72-.89,3.6-1.46,5.4-2.18-.79,1-1.37,2.42-2.41,3-5.86,3.34-12.22,5.94-15.91,12.15C391.38,362.48,390.1,362.35,389.28,362.49Z"/><path class="cls-14" d="M433.15,345.68c-5,2.27-9.93,4.56-14.91,6.81-4.65,2.1-9.32,4.16-14,6.24,3.06-1.95,6-4.2,9.2-5.77,5.5-2.66,11.19-4.93,16.85-7.25A8,8,0,0,1,433.15,345.68Z"/><path class="cls-14" d="M417.73,310c-5.92-1.49-11.88-2.86-17.75-4.52-2-.57-3.82-1.87-5.72-2.84l4,.67,1.55.63,9,.83,1.59.06Z"/><path class="cls-20" d="M456,309.23c-2.47-6.33-7.51-9.8-13.53-12.23a20.26,20.26,0,0,1-3.06-1.9c4.62-1.3,7.87,1.79,11.06,4,2.4,1.69,4,4.61,5.69,7.15C456.64,306.93,456.12,308.22,456,309.23Z"/><path class="cls-20" d="M420.09,328.77l-.82,2.25-10.51,4.45-4.52,1.47-1.48.19c.28-.75.37-2,.86-2.18C409.08,332.79,414.59,330.8,420.09,328.77Z"/><path class="cls-20" d="M448.31,326.4a10.47,10.47,0,0,1,1.76-2.71c4.41-3.56,5.84-8.33,5.91-13.72,3.09,2.4,2.23,6.37,1.05,8.29C455,321.53,451.31,323.74,448.31,326.4Z"/><path class="cls-14" d="M411.31,346.2l19.27-8.28-3.09,2.78Z"/><path class="cls-14" d="M401.71,337.58l-18.33,6.34.7-1.66A45,45,0,0,1,401.71,337.58Z"/><path class="cls-20" d="M426.7,280.7l3-1.62q0,5.79-.08,11.59C426,288.39,425.28,286,426.7,280.7Z"/><path class="cls-21" d="M430.56,293.65l-1.06-2.85c3.9-.77,6.24,1.64,8.52,4.18l-2.3.85Z"/><path class="cls-9" d="M378.55,405.17l7.77-10.43c.15,1.14.82,2.58.36,3.36C384.78,401.31,382.88,404.71,378.55,405.17Z"/><path class="cls-9" d="M386.33,376l2.21-12,.71,4.49-1.47,3.76.73,3.74Z"/><path class="cls-20" d="M397.45,291.22c-.21,4.82,4.29,4.71,6.9,6.58-4.83,1.22-9-1.37-8.25-5.18C396.2,292.09,397,291.68,397.45,291.22Z"/><path class="cls-9" d="M386.26,389.48q0-4.5,0-9l2.23,2.25q0,1.87,0,3.73Z"/><path class="cls-20" d="M384.07,342.26l-.7,1.66-6.8,5.2C377.05,344.62,380.75,343.64,384.07,342.26Z"/><path class="cls-20" d="M388.5,382.74l-2.23-2.25.06-4.5h2.18Q388.51,379.36,388.5,382.74Z"/><path class="cls-20" d="M427.49,340.69l3.09-2.78,1.72-.69,3.46-.26Z"/><path class="cls-20" d="M409.51,298.72l9.14,2.89Z"/><path class="cls-20" d="M395.13,388l-.1,1.37c-.41.88-.8,1.77-1.22,2.64s-1,1.9-1.45,2.85l.66-7.68.82,0Z"/><path class="cls-14" d="M419.27,320.5l1.52-7.55,1.56,1.52q0,.76,0,1.52Z"/><path class="cls-14" d="M435.76,337l-3.46.26,6.3-3.4Z"/><path class="cls-14" d="M395.83,366.23H395l5.74-5.05Z"/><path class="cls-20" d="M366.11,391.68c.56,3-.74,5.18-3,6.94Z"/><path class="cls-20" d="M386.26,389.48l2.24-3c-.72,1.75,1.78,4.83-2.16,5.26Z"/><path class="cls-20" d="M372.69,408.83l5.32-3C377.19,408.47,375.93,410.39,372.69,408.83Z"/><path class="cls-14" d="M380.55,413l-6.29,3.54Z"/><path class="cls-20" d="M429.84,314.44l-2.25,3.94.72-5.43,1.28.1Z"/><path class="cls-20" d="M442.56,331.08l3.62-2.57-3.72,3.95Z"/><path class="cls-20" d="M436.42,344.26l-2.91,1.09c.13-2,.43-3.67,3-2.24Z"/><path class="cls-14" d="M436.42,344.26l.14-1.15,2.95-1.6,1.05.39Z"/><path class="cls-20" d="M371.21,365.47l-.65,3.78C369.54,367.78,368.92,366.38,371.21,365.47Z"/><path class="cls-20" d="M387.79,372.24l1.47-3.76Z"/><path class="cls-20" d="M368.31,346l1-.73c2.08,1.86.91,2.53-1.07,2.9Z"/><path class="cls-20" d="M454.55,267.16l1.16,3.53-1.2.29Z"/><path class="cls-20" d="M462.13,306.92l.61,3.06C460.58,309.35,461,308.22,462.13,306.92Z"/><path class="cls-14" d="M368.58,410.77,372,409Z"/><path class="cls-20" d="M357.59,399.15l1.6-3.06Z"/><path class="cls-14" d="M416.47,322.22l1.31-.24-2.53,2Z"/><path class="cls-14" d="M350.48,405.41l1.71-1.14.21,1.66-2.15.8Z"/><path class="cls-20" d="M462.8,316l-.68,2.31Z"/><path class="cls-20" d="M370.43,373.72l-.62,2.28Z"/><path class="cls-20" d="M368.2,385l-.64,2.28Z"/><path class="cls-14" d="M438.62,333.81l2.24-1.49Z"/><path class="cls-20" d="M440.57,341.9l-1.05-.39,2.36-1.47-.72,1.66A.72.72,0,0,1,440.57,341.9Z"/><path class="cls-14" d="M441.15,341.7l.72-1.66,1.68.18Z"/><path class="cls-20" d="M353.8,402l1.69-.55L354,403.74l-.1-.08-.17-1.62Z"/><path class="cls-20" d="M418.62,301.57l2.27,1.55Z"/><path class="cls-20" d="M352.41,405.93l-.21-1.66.06-.07,1.66-.54.1.08Z"/><path class="cls-20" d="M399.56,288.47l-2,2.23Z"/><path class="cls-20" d="M420.87,303.07l2.36,1.57Z"/><path class="cls-20" d="M348.81,426.33l-1.55.65Z"/><path class="cls-20" d="M345.05,427.06l-1.59,0Z"/><path class="cls-14" d="M386.49,409.15l-1.76,1.29Z"/><path class="cls-14" d="M384.28,410.69l-1.82,1.2Z"/><path class="cls-20" d="M409.68,280.07l-1.71.76Z"/><path class="cls-20" d="M437.84,265.64l1.68-1.37Z"/><path class="cls-20" d="M448.51,263.47l1.55.66Z"/><path class="cls-20" d="M442.46,264.12l1.55-.64Z"/><path class="cls-20" d="M391.32,333.88l1.7-1.36Z"/><path class="cls-14" d="M375.56,339.83l1.75-1.28Z"/><path class="cls-14" d="M445.81,338.73,444,340Z"/><path class="cls-14" d="M372.59,342.1l1.7-1.35Z"/><path class="cls-14" d="M403.82,359,402,360.24Z"/><path class="cls-20" d="M360.82,388.74l.59-1.56Z"/><path class="cls-20" d="M399.77,304l-1.55-.63Z"/><path class="cls-20" d="M410.32,304.86l-1.59-.06Z"/><path class="cls-14" d="M429.59,313.06l-1.28-.1.46-1.92Z"/><path class="cls-20" d="M422.4,316q0-.76,0-1.52l1.1.74Z"/><path class="cls-14" d="M442.56,331.08l-.1,1.38-1.6-.14Z"/><path class="cls-14" d="M392.08,300.47l-.7-.91Z"/><path class="cls-20" d="M392.3,397.66q0,.46,0,.93Q392.31,398.12,392.3,397.66Z"/><path class="cls-20" d="M408,298.1l1,.55Z"/><path class="cls-20" d="M405.77,298.05l.74,0Z"/><path class="cls-20" d="M426.84,308.37l.58.85Z"/><path class="cls-20" d="M426.1,307.44l.77,1Z"/><path class="cls-20" d="M423.76,304.79l.7.69Z"/><path class="cls-23" d="M135,162.26l-.86-.29.88-.69Z"/><path class="cls-23" d="M176.12,192.91l-.11.3a2.73,2.73,0,0,1-.31-.34s.15-.14.22-.22Z"/><path class="cls-14" d="M395.13,388l-1.29-.79,1.39,0Z"/><path class="cls-14" d="M353.92,403.66l-1.66.54,1.49-2.16Z"/><path class="cls-9" d="M371.54,404.79c-.78-2.21-1.66-3.41-1.45-4.37a20.7,20.7,0,0,1,2.22-5.54,27.55,27.55,0,0,0,3.47-14.38c-.08-3.37.14-6.74.2-10.11.18-10.43,5.65-17.81,13.7-23.68a4.7,4.7,0,0,1,2-1.06,20.52,20.52,0,0,1,3.45.14,15.9,15.9,0,0,1-.89,3.65c-.41.82-1.43,1.35-2.19,2-6.77,5.76-11.14,12.44-10.61,22,.52,9.28-.33,18.54-5.8,26.62C374.67,401.39,373.46,402.56,371.54,404.79Z"/><path class="cls-4" d="M430.56,293.65l5.16,2.19c1.51,1.3,3.07,2.54,4.52,3.9,7.1,6.67,7.24,16.41.1,23.23-4,3.79-8.27,7.29-14.28,7.17l4.27-6.25c4.39-2.33,8.16-5.21,9.58-10.31.91-3.25.67-6.44-2.05-8.53a93.07,93.07,0,0,0-10.56-6.71c-1.92-1.1-4.21-1.57-6.08-2.72-.79-.49-.94-2-1.38-3.07,1.08-.39,2.25-1.26,3.22-1.08A72.74,72.74,0,0,1,430.56,293.65Z"/><path class="cls-14" d="M404.24,336.93l4.52-1.47Z"/></svg>