<?xml version="1.0" standalone="no"?>
<!DOCTYPE svg PUBLIC "-//W3C//DTD SVG 20010904//EN"
 "http://www.w3.org/TR/2001/REC-SVG-20010904/DTD/svg10.dtd">
<svg version="1.0" xmlns="http://www.w3.org/2000/svg"
 width="326.000000pt" height="327.000000pt" viewBox="0 0 326.000000 327.000000"
 preserveAspectRatio="xMidYMid meet">
<metadata>
Created by potrace 1.15, written by Peter Selinger 2001-2017
</metadata>
<g transform="translate(0.000000,327.000000) scale(0.100000,-0.100000)"
fill="#000000" stroke="none">
<path d="M1450 3254 c-138 -22 -178 -30 -265 -56 -55 -16 -104 -34 -110 -39
-5 -5 -18 -9 -30 -9 -28 -1 -187 -85 -177 -94 4 -5 0 -7 -8 -5 -8 2 -26 -3
-40 -10 -39 -22 -53 -51 -25 -51 8 0 15 -4 15 -10 0 -14 -13 -13 -28 2 -9 9
-12 9 -12 -3 0 -8 -13 -23 -30 -32 -36 -22 -40 -4 -5 19 28 18 59 63 33 48 -7
-4 -55 -38 -105 -76 -90 -66 -110 -88 -78 -88 8 0 15 -4 15 -10 0 -13 -6 -13
-30 2 -17 11 -25 7 -64 -31 -25 -25 -43 -48 -40 -53 3 -5 0 -7 -8 -6 -7 2 -12
-5 -12 -14 1 -11 -4 -14 -14 -10 -11 4 -14 1 -9 -12 4 -9 3 -15 -2 -12 -11 7
-43 -29 -34 -38 5 -4 3 -6 -3 -4 -17 5 -67 -60 -60 -78 3 -8 2 -13 -3 -10 -18
12 -117 -136 -105 -156 4 -6 3 -8 -3 -5 -5 3 -20 -15 -32 -40 -16 -34 -18 -43
-7 -34 17 15 21 4 7 -18 -5 -7 -13 -11 -19 -8 -9 6 -63 -122 -96 -228 -49
-159 -72 -391 -56 -560 6 -60 11 -117 11 -125 2 -75 50 -253 101 -380 37 -91
35 -88 51 -66 8 11 19 15 30 10 18 -7 23 -24 7 -24 -5 0 -10 5 -10 10 0 6 -4
10 -9 10 -14 0 -21 -54 -8 -65 7 -5 12 -14 12 -20 0 -5 13 -35 29 -64 26 -51
29 -54 42 -36 8 10 14 23 14 28 0 4 4 6 9 3 5 -3 7 -19 5 -35 -2 -21 2 -34 16
-44 11 -8 17 -17 13 -20 -10 -10 -44 35 -38 51 3 8 0 12 -7 10 -6 -2 -13 -9
-15 -14 -5 -16 58 -95 69 -87 6 3 8 1 5 -4 -6 -9 21 -53 43 -73 3 -3 27 -31
54 -62 27 -32 55 -58 64 -58 12 0 12 4 -4 22 l-19 21 28 -18 c18 -11 25 -21
18 -28 -13 -13 20 -49 109 -118 41 -32 81 -64 88 -70 33 -28 154 -89 164 -83
6 4 8 3 5 -3 -6 -9 48 -39 83 -45 8 -2 19 -8 25 -14 14 -15 143 -59 260 -89
105 -26 140 -31 117 -16 -11 7 -10 9 3 14 9 4 14 3 11 -2 -3 -5 2 -15 11 -22
12 -11 63 -14 222 -14 215 0 236 3 437 55 125 32 153 43 308 118 121 59 169
89 161 102 -3 5 -1 11 5 15 5 3 10 1 10 -5 0 -24 179 120 273 219 37 39 67 79
67 88 0 9 3 14 6 10 3 -3 18 8 32 25 24 28 25 31 8 43 -9 7 -13 16 -8 19 6 3
13 -1 16 -10 3 -8 11 -12 17 -9 7 5 1 17 -16 35 l-26 27 27 29 26 29 -16 -27
c-21 -35 -20 -45 3 -58 17 -9 26 -1 70 68 28 42 51 85 51 94 0 9 5 20 11 24
18 11 50 96 44 118 -5 16 -4 18 4 6 8 -12 11 -11 16 5 4 11 12 33 17 48 6 15
8 30 5 34 -3 3 0 12 8 19 7 7 26 64 41 126 26 106 28 129 31 352 2 207 0 253
-17 340 -22 112 -88 316 -102 316 -5 0 -7 4 -4 8 8 13 -95 213 -147 284 -78
109 -158 201 -241 278 -62 58 -237 190 -251 190 -6 0 -17 -6 -25 -12 -12 -11
-12 -10 -1 4 11 14 7 20 -31 41 -152 89 -429 181 -588 197 -41 4 -368 8 -390
4z m-400 -766 c0 -3 -6 -9 -12 -11 -7 -3 10 -6 39 -6 36 -1 57 4 68 16 14 14
18 14 26 2 5 -8 9 -20 10 -26 1 -7 3 -17 4 -23 1 -5 3 -14 4 -20 0 -5 7 -7 15
-4 8 3 17 0 22 -7 4 -7 3 -10 -4 -5 -6 3 -15 -1 -20 -10 -10 -18 -34 -11 -31
9 4 34 -2 67 -13 67 -9 0 -12 -15 -10 -50 l4 -50 686 -1 c378 -1 691 -1 696 0
4 1 5 -10 2 -25 -4 -14 -9 -40 -12 -58 -3 -17 -9 -49 -14 -71 -5 -22 -16 -76
-24 -120 -35 -186 -117 -599 -121 -605 -3 -4 -7 -27 -9 -51 -3 -24 -16 -91
-29 -149 -13 -58 -30 -134 -36 -170 -7 -36 -19 -95 -27 -132 -18 -85 -18 -84
6 -108 11 -11 15 -20 9 -20 -5 0 -8 -4 -4 -9 3 -5 1 -12 -4 -15 -5 -3 -11 1
-15 9 -3 8 0 15 6 15 9 0 9 3 1 11 -13 13 -37 1 -39 -18 -3 -33 -5 -39 -25
-51 -16 -10 -20 -10 -18 0 7 52 -30 81 -78 59 -21 -10 -28 -9 -34 1 -13 20
-11 24 24 42 17 8 25 16 17 16 -8 0 -22 -5 -30 -10 -11 -7 -23 0 -48 28 -20
21 -25 25 -13 8 41 -56 11 -95 -31 -40 -12 14 -27 23 -35 20 -8 -3 -11 -1 -8
4 6 9 -25 14 -80 13 -19 0 -35 10 -58 36 -62 70 -64 71 -121 71 -50 0 -57 -3
-84 -36 -16 -19 -29 -47 -29 -61 0 -14 -6 -29 -13 -33 -7 -4 -10 -13 -6 -19 5
-7 1 -9 -9 -5 -9 4 -14 13 -11 21 5 11 -2 13 -32 9 -29 -5 -32 -4 -12 3 18 7
20 9 7 10 -23 1 -57 -17 -57 -30 0 -6 5 -7 10 -4 5 3 10 2 10 -4 0 -15 -18
-23 -22 -9 -6 16 -27 1 -39 -26 -7 -15 -8 -9 -4 24 3 25 2 39 -1 33 -3 -7 -18
-14 -32 -14 -17 -1 -21 -3 -9 -6 25 -7 21 -32 -8 -43 -14 -5 -25 -16 -25 -25
0 -24 -38 -18 -43 8 -2 12 -4 7 -3 -10 2 -25 -2 -32 -14 -30 -8 1 -17 5 -20 9
-3 4 -27 -1 -53 -10 -38 -14 -51 -15 -67 -4 -13 8 -20 8 -20 1 0 -5 -4 -7 -10
-4 -9 5 34 52 100 108 12 10 19 25 16 33 -3 8 -2 13 3 10 15 -9 31 18 21 34
-8 12 -10 11 -11 -5 0 -11 -3 -14 -6 -7 -2 6 -11 12 -19 12 -9 0 -12 -4 -9
-10 3 -5 1 -18 -5 -27 -9 -16 -10 -15 -5 4 5 17 3 21 -8 18 -8 -4 -18 4 -25
20 -6 14 -16 25 -22 25 -19 0 -10 17 15 28 24 11 36 0 15 -13 -5 -3 -10 -11
-10 -18 0 -8 3 -8 12 1 7 7 20 12 30 12 30 0 20 16 -21 35 -28 12 -50 15 -79
10 -43 -7 -82 -38 -63 -50 14 -8 14 -55 0 -55 -6 0 -8 8 -4 19 3 11 1 22 -5
26 -5 3 -10 0 -10 -8 0 -10 -8 -13 -27 -9 -16 3 -22 7 -15 9 6 3 12 12 12 22
0 24 28 60 64 82 17 10 26 19 19 19 -17 0 -70 -47 -89 -79 -15 -26 -21 -28
-60 -23 -44 5 -94 -16 -94 -39 0 -5 10 0 22 11 31 28 93 25 93 -5 0 -15 -8
-21 -32 -23 -33 -3 -59 -31 -45 -47 4 -5 -9 1 -29 13 -33 20 -90 33 -63 14 16
-10 26 -60 14 -67 -5 -3 -10 1 -10 10 0 30 -35 12 -38 -19 -3 -22 -6 -26 -13
-15 -8 12 -10 12 -19 -1 -7 -12 -12 -12 -22 -2 -29 29 -98 1 -98 -40 0 -10 -5
-18 -11 -18 -5 0 -7 -5 -4 -11 5 -7 2 -7 -11 0 -11 5 -27 12 -37 15 -37 12 -5
105 47 137 17 10 27 19 23 19 -5 0 -5 5 -1 11 4 7 9 7 13 2 3 -6 16 3 29 19
18 22 20 28 8 28 -8 0 -19 -8 -25 -17 -5 -10 -12 -15 -16 -11 -3 3 0 16 7 27
10 17 20 20 49 17 51 -6 65 9 79 84 15 82 24 126 43 220 9 41 26 127 37 190
12 63 48 248 80 410 33 162 61 311 64 330 3 19 12 62 21 94 8 32 13 61 10 64
-3 3 1 12 8 20 9 12 9 16 0 19 -19 7 19 40 44 39 13 -1 23 -4 23 -8z m1718
-45 c2 -13 6 -23 10 -23 4 0 6 -344 4 -764 -2 -639 0 -765 12 -775 34 -29 36
2 39 725 l2 709 3 -717 c1 -508 -1 -719 -9 -724 -8 -4 -8 -9 0 -17 13 -13 15
-47 2 -47 -22 0 -41 13 -41 29 1 14 2 14 14 -2 8 -11 17 -14 20 -8 6 9 -29 41
-45 41 -8 0 -3 -45 7 -61 4 -7 3 -9 -4 -5 -6 3 -13 2 -17 -4 -4 -6 -91 -10
-235 -10 -193 0 -229 2 -234 15 -6 16 18 162 59 356 32 155 44 229 33 223 -4
-3 -8 -17 -9 -32 0 -24 -1 -25 -9 -7 -13 30 -12 57 1 49 9 -5 10 1 5 20 -4 18
-3 25 4 21 5 -3 10 -14 10 -23 0 -43 19 14 39 115 24 130 25 137 9 127 -7 -4
-8 -3 -4 5 4 6 11 9 15 7 4 -3 18 54 32 125 14 71 22 129 17 129 -4 0 -8 -9
-8 -19 0 -23 -16 -36 -25 -21 -4 6 0 19 9 29 9 10 16 26 17 37 0 18 1 18 8 -1
10 -24 8 -30 55 225 46 245 54 283 69 292 7 5 41 7 77 6 59 -3 65 -5 68 -25z
m39 -1175 c-1 -211 -2 -41 -2 377 0 418 1 590 2 383 2 -207 2 -549 0 -760z"/>
<path d="M1452 2192 c-7 -5 -10 -17 -6 -28 4 -14 3 -16 -4 -5 -8 11 -16 7 -41
-20 -17 -19 -29 -39 -26 -46 2 -8 -2 -10 -12 -6 -13 5 -15 2 -10 -11 5 -13 3
-17 -6 -13 -16 6 -94 -109 -89 -131 2 -8 -1 -11 -7 -7 -7 3 -11 -2 -11 -14 0
-12 -4 -21 -8 -21 -5 0 -14 -12 -20 -26 -7 -14 -8 -23 -2 -19 5 3 10 1 10 -4
0 -6 -6 -11 -14 -11 -34 0 -174 -400 -162 -464 4 -19 3 -26 -3 -18 -11 18 -23
-58 -16 -106 4 -28 3 -32 -4 -17 -9 18 -10 17 -10 -8 -1 -25 1 -27 20 -17 26
14 213 5 204 -10 -2 -3 5 -11 16 -18 17 -11 19 -9 21 25 1 21 2 47 3 58 1 11
6 40 13 65 6 25 23 90 37 145 14 55 36 130 49 168 13 37 22 67 19 67 -2 0 -13
-5 -23 -10 -15 -8 -18 -7 -14 3 3 8 -2 17 -10 20 -20 8 -21 27 -1 27 8 0 15
-4 15 -9 0 -5 11 -8 24 -8 20 0 26 8 41 56 10 31 28 85 41 121 13 36 24 72 26
80 2 8 6 17 9 20 5 4 29 57 86 188 4 9 -11 12 -58 12 -35 0 -70 -4 -77 -8z"/>
<path d="M1785 2159 c-25 -23 -44 -49 -43 -58 2 -8 -4 -16 -12 -16 -8 -1 -14
-6 -12 -13 1 -7 -4 -12 -11 -12 -18 0 -38 -36 -30 -56 5 -13 3 -16 -10 -11 -9
3 -17 2 -17 -3 0 -5 -6 -15 -14 -22 -25 -26 -98 -163 -98 -186 -1 -30 11 -40
22 -22 13 20 12 3 0 -21 -8 -13 -18 -18 -35 -15 -15 3 -26 -1 -29 -11 -9 -21
-8 -23 9 -17 11 5 13 2 9 -9 -3 -9 -11 -14 -18 -11 -14 5 -36 -56 -36 -102 0
-20 -3 -25 -9 -16 -11 18 -24 -48 -15 -73 5 -12 4 -16 -4 -11 -12 7 -33 -54
-52 -152 -10 -49 -9 -64 4 -96 10 -24 12 -36 4 -34 -6 2 -12 12 -14 22 -6 39
-12 24 -23 -55 -7 -44 -10 -84 -7 -87 3 -3 32 -5 64 -5 58 0 59 0 113 56 30
31 50 58 44 60 -5 3 -7 8 -3 12 4 4 14 3 22 -4 9 -8 21 -8 38 -2 20 7 26 20
35 69 6 33 9 71 6 83 -4 15 -3 20 5 15 8 -5 12 1 12 16 0 26 44 175 85 288 33
91 47 148 40 160 -3 4 -2 10 3 12 4 1 23 44 41 93 19 50 52 128 75 175 22 47
42 88 44 93 2 4 -28 7 -67 7 -70 0 -72 -1 -116 -41z"/>
<path d="M2157 2151 c-35 -35 -46 -53 -41 -67 4 -14 3 -15 -4 -6 -7 11 -16 5
-40 -24 -17 -21 -29 -41 -26 -46 3 -4 0 -8 -5 -8 -40 0 -251 -467 -255 -562
-1 -16 -4 -28 -7 -28 -4 0 -9 -19 -13 -42 -4 -24 -9 -58 -13 -77 -5 -29 -3
-33 10 -28 17 6 42 -25 30 -37 -3 -3 2 -6 13 -7 17 0 17 -1 -4 -16 l-22 -15
44 -29 c25 -15 52 -39 61 -52 11 -18 28 -26 63 -31 26 -3 66 -17 88 -30 l42
-24 1 85 c2 94 17 255 30 323 6 27 6 46 0 48 -5 2 -9 8 -9 13 0 6 4 8 8 5 5
-3 19 45 31 107 24 120 87 326 126 409 13 29 21 56 18 61 -3 5 -1 12 4 16 5 3
21 30 36 59 l27 52 -55 0 c-51 0 -72 -12 -42 -23 7 -4 8 -6 1 -6 -6 -1 -17 6
-24 14 -7 8 -15 15 -19 15 -3 0 -28 -22 -54 -49z"/>
</g>
</svg>
