<?xml version="1.0" encoding="iso-8859-1"?>
<!-- Generator: Adobe Illustrator 19.0.0, SVG Export Plug-In . SVG Version: 6.00 Build 0)  -->
<svg version="1.1" id="Capa_1" xmlns="http://www.w3.org/2000/svg" xmlns:xlink="http://www.w3.org/1999/xlink" x="0px" y="0px"
	 viewBox="0 0 511.974 511.974" style="enable-background:new 0 0 511.974 511.974;" xml:space="preserve">
<g transform="translate(-1)">
	<g transform="translate(2 1)">
		<path style="fill:#37474F;" d="M474.608,463.876H35.483c-10.026,0.038-19.293-5.333-24.244-14.05s-4.817-19.428,0.351-28.019
			L231.238,59.482c2.618-4.415,6.435-7.995,11.008-10.325c13.021-6.705,29.01-2.195,36.608,10.325l219.648,362.325
			c5.168,8.591,5.302,19.301,0.35,28.019C493.901,458.544,484.634,463.914,474.608,463.876z"/>
		<path style="fill:#607D8B;" d="M449.008,463.876H35.483c-10.026,0.038-19.293-5.333-24.244-14.05s-4.817-19.428,0.351-28.019
			L231.238,59.482c2.618-4.415,6.435-7.995,11.008-10.325c4.573,2.33,8.39,5.911,11.008,10.325l219.648,362.325
			c5.168,8.591,5.302,19.301,0.35,28.019C468.301,458.544,459.034,463.914,449.008,463.876z"/>
		<path style="fill:#F57C00;" d="M451.292,429.572c-0.621,0.103-1.248,0.16-1.877,0.171H63.025
			c-3.086,0.007-5.935-1.658-7.441-4.352c-1.506-2.694-1.435-5.993,0.188-8.618l186.112-307.029l6.997-11.605
			c1.545-2.581,4.331-4.16,7.339-4.16s5.794,1.58,7.339,4.16l138.923,229.205l48.811,80.555l5.376,8.875
			c1.444,2.345,1.667,5.242,0.601,7.781S453.977,428.961,451.292,429.572z"/>
		<path style="fill:#FF9801;" d="M420.657,429.743H63.025c-3.086,0.007-5.935-1.658-7.441-4.352
			c-1.506-2.694-1.435-5.993,0.188-8.618l186.112-307.029l131.84,217.6l54.272,89.429c1.587,2.645,1.628,5.939,0.11,8.623
			C426.587,428.08,423.742,429.741,420.657,429.743z"/>
		<path style="fill:#795548;" d="M246.492,276.143v153.6l-184.661,0c-3.086,0.007-5.934-1.659-7.441-4.352
			c-1.506-2.694-1.435-5.992,0.187-8.618l90.368-149.163l5.205-8.533h79.275C238.84,259.104,246.465,266.729,246.492,276.143z"/>
		<path style="fill:#00838F;" d="M451.292,407.898v21.845h-30.635c3.084-0.002,5.929-1.663,7.448-4.347
			c1.519-2.685,1.477-5.978-0.11-8.623l-54.272-89.429h28.757L451.292,407.898z"/>
		<path style="fill:#00BCD4;" d="M420.657,429.743H246.492v-102.4c27.725-11.099,58.246-13.159,87.211-5.888l6.741,1.621
			c10.884,2.74,22.057,4.172,33.28,4.267l54.272,89.429c1.587,2.645,1.628,5.939,0.11,8.623
			C426.587,428.08,423.742,429.741,420.657,429.743z"/>
	</g>
	<g>
		<path d="M288.134,56.064c-6.602-10.865-18.394-17.499-31.107-17.5c-12.714-0.001-24.506,6.631-31.109,17.496L6.309,418.385
			c-6.863,11.151-7.087,25.16-0.583,36.525c6.384,11.5,18.539,18.596,31.692,18.5h439.217c13.101,0.028,25.198-7.013,31.645-18.418
			c6.447-11.405,6.242-25.4-0.537-36.611L288.134,56.064z M493.45,446.535c-3.388,6.101-9.838,9.864-16.817,9.808H37.417
			c-6.937,0.026-13.349-3.692-16.771-9.727c-3.422-6.035-3.322-13.446,0.262-19.386L240.517,64.91v-0.004
			c3.508-5.761,9.765-9.276,16.509-9.275c6.745,0.001,13.001,3.518,16.507,9.279l219.608,362.317
			C496.774,433.12,496.893,440.528,493.45,446.535z"/>
		<path d="M442.382,376.399l-0.057-0.095L271.625,94.672c-3.095-5.104-8.631-8.221-14.6-8.221c-5.969,0-11.505,3.117-14.6,8.221
			L49.267,413.36c-3.194,5.271-3.298,11.855-0.273,17.225c3.025,5.37,8.71,8.692,14.873,8.692h386.317
			c6.163,0,11.848-3.322,14.873-8.692c3.025-5.37,2.921-11.953-0.273-17.225L442.382,376.399z M332.875,380.543
			c-10.24-5.446-21.592-8.473-33.183-8.85c-15.296-0.098-30.231,4.646-42.667,13.553v-11.3
			c10.722-12.357,26.307-19.413,42.667-19.319c9.16,0.431,18.102,2.939,26.15,7.333c18.545,8.397,39.606,17.866,87.987,0.269
			l7.977,13.16c-4.828,1.336-9.547,3.041-14.114,5.1l0.009-0.004C366.242,395.614,349.275,387.955,332.875,380.543z
			 M404.809,347.347c-39.312,13.707-55.937,6.292-71.933-0.937c-10.24-5.446-21.592-8.473-33.183-8.85
			c-15.296-0.098-30.231,4.646-42.667,13.553v-11.366c10.557-12.651,26.19-19.955,42.667-19.937
			c9.156,0.452,18.081,3.031,26.067,7.533c21.691,11.662,47.235,13.852,70.595,6.053L404.809,347.347z M257.025,103.522
			l130.067,214.594c-18.152,5.229-37.641,2.981-54.125-6.244c-10.222-5.61-21.621-8.737-33.275-9.129
			c-15.345-0.083-30.308,4.785-42.667,13.881v-39.481c-0.015-14.132-11.468-25.585-25.6-25.6h-64.116L257.025,103.522z
			 M63.842,422.251l0.025-0.042l93.098-153.6h74.46c4.711,0.005,8.529,3.822,8.533,8.533v145.09L63.842,422.251z M257.025,422.23
			v-14.151c10.722-12.357,26.307-19.413,42.667-19.319c9.16,0.431,18.102,2.939,26.15,7.333c18.608,8.417,39.717,17.958,88.483,0.1
			c5.383-2.375,10.973-4.246,16.701-5.591l19.158,31.607L257.025,422.23z"/>
	</g>
</g>
<g>
</g>
<g>
</g>
<g>
</g>
<g>
</g>
<g>
</g>
<g>
</g>
<g>
</g>
<g>
</g>
<g>
</g>
<g>
</g>
<g>
</g>
<g>
</g>
<g>
</g>
<g>
</g>
<g>
</g>
</svg>
