<svg id="svg" version="1.1" xmlns="http://www.w3.org/2000/svg" xmlns:xlink="http://www.w3.org/1999/xlink" width="400" height="266.6666666666667" viewBox="0, 0, 400,266.6666666666667"><g id="svgg"><path id="path0" d="M43.774 3.436 C 43.558 3.572,43.316 4.555,43.166 5.898 C 42.871 8.543,42.534 9.893,41.817 11.298 C 41.392 12.130,41.242 13.204,41.049 16.766 C 40.761 22.084,40.372 25.320,39.851 26.707 C 39.640 27.272,39.289 28.207,39.073 28.787 C 38.824 29.452,38.577 31.738,38.404 34.987 C 38.108 40.535,37.699 43.037,36.804 44.793 C 36.322 45.738,36.194 46.668,35.968 50.880 C 35.665 56.516,35.208 59.577,34.452 61.028 C 33.765 62.344,33.640 63.238,33.336 68.999 C 33.064 74.150,32.643 76.595,31.726 78.354 C 31.252 79.264,31.128 80.169,30.927 84.182 C 30.624 90.245,30.286 92.556,29.434 94.392 C 28.819 95.717,28.712 96.449,28.379 101.600 C 27.966 107.989,27.720 109.516,26.768 111.595 C 26.190 112.858,26.086 113.594,25.870 117.927 C 25.574 123.887,25.247 126.081,24.367 128.000 C 23.792 129.256,23.661 130.059,23.456 133.600 C 23.027 141.033,22.634 143.593,21.707 145.010 C 21.239 145.726,20.807 149.105,20.797 152.133 C 20.785 155.650,20.105 159.943,19.321 161.454 C 18.697 162.657,18.609 163.221,18.382 167.457 C 18.021 174.207,17.476 177.611,16.567 178.777 C 16.169 179.288,15.985 180.825,15.732 185.733 C 15.446 191.268,15.166 193.028,14.249 195.029 C 13.669 196.297,13.559 197.058,13.320 201.448 C 13.004 207.270,12.531 210.307,11.730 211.665 C 11.240 212.496,11.116 213.300,10.899 217.054 C 10.532 223.385,10.035 226.783,9.212 228.572 C 8.590 229.926,8.494 230.574,8.264 234.980 C 7.966 240.705,7.468 243.902,6.662 245.268 C 6.164 246.112,6.049 246.893,5.826 250.923 C 5.498 256.858,5.012 260.229,4.283 261.629 C 3.606 262.928,3.622 262.956,5.264 263.226 C 6.998 263.511,355.776 263.516,356.226 263.231 C 356.442 263.094,356.684 262.112,356.834 260.768 C 357.129 258.123,357.466 256.774,358.183 255.368 C 358.608 254.537,358.758 253.462,358.951 249.900 C 359.239 244.583,359.628 241.347,360.149 239.959 C 360.360 239.395,360.711 238.459,360.927 237.880 C 361.176 237.215,361.423 234.928,361.596 231.680 C 361.892 226.132,362.301 223.630,363.196 221.874 C 363.678 220.929,363.806 219.999,364.032 215.786 C 364.335 210.151,364.792 207.090,365.548 205.639 C 366.235 204.323,366.360 203.428,366.664 197.668 C 366.936 192.517,367.357 190.072,368.274 188.313 C 368.748 187.403,368.872 186.498,369.073 182.485 C 369.376 176.422,369.714 174.110,370.566 172.275 C 371.181 170.950,371.288 170.218,371.621 165.067 C 372.034 158.678,372.280 157.151,373.232 155.072 C 373.810 153.809,373.914 153.073,374.130 148.739 C 374.426 142.780,374.753 140.585,375.633 138.667 C 376.208 137.410,376.339 136.607,376.544 133.067 C 376.973 125.634,377.366 123.074,378.293 121.656 C 378.761 120.941,379.193 117.561,379.203 114.533 C 379.215 111.016,379.895 106.724,380.679 105.212 C 381.303 104.010,381.391 103.445,381.618 99.209 C 381.979 92.460,382.524 89.056,383.433 87.890 C 383.831 87.379,384.015 85.841,384.268 80.933 C 384.554 75.399,384.834 73.639,385.751 71.637 C 386.331 70.369,386.441 69.608,386.680 65.218 C 386.996 59.396,387.469 56.359,388.270 55.001 C 388.760 54.171,388.884 53.367,389.101 49.613 C 389.468 43.282,389.965 39.884,390.788 38.094 C 391.410 36.741,391.506 36.093,391.736 31.687 C 392.034 25.962,392.532 22.765,393.338 21.399 C 393.836 20.555,393.951 19.774,394.174 15.743 C 394.502 9.808,394.988 6.438,395.717 5.038 C 396.394 3.738,396.378 3.711,394.736 3.441 C 393.002 3.155,44.224 3.150,43.774 3.436 " stroke="none" fill="#fcfc04" fill-rule="evenodd"></path><path id="path1" d="M39.620 1.375 C 39.519 2.131,39.213 3.421,38.939 4.241 C 38.136 6.642,37.890 8.246,37.469 13.830 C 37.190 17.537,36.915 19.559,36.541 20.644 C 35.709 23.062,35.254 25.933,34.935 30.780 C 34.717 34.082,34.474 35.794,34.010 37.296 C 33.069 40.338,32.855 41.633,32.543 46.150 C 32.216 50.875,31.886 53.169,31.346 54.461 C 30.764 55.855,30.197 59.685,29.869 64.436 C 29.643 67.716,29.391 69.368,28.810 71.388 C 28.019 74.136,27.614 76.992,27.308 81.981 C 27.210 83.584,26.971 85.504,26.777 86.247 C 26.583 86.991,26.182 88.500,25.886 89.600 C 25.554 90.832,25.184 93.694,24.923 97.057 C 24.627 100.857,24.341 102.960,23.981 103.985 C 23.172 106.286,22.698 109.256,22.390 113.944 C 22.234 116.322,21.939 118.927,21.735 119.733 C 21.531 120.540,21.120 122.157,20.821 123.326 C 20.502 124.575,20.109 127.635,19.867 130.749 C 19.577 134.481,19.298 136.494,18.924 137.557 C 18.126 139.826,17.643 142.870,17.346 147.514 C 17.082 151.627,16.830 153.318,16.257 154.825 C 15.637 156.455,15.193 159.402,14.821 164.338 C 14.609 167.166,14.255 170.017,14.036 170.673 C 13.104 173.468,12.780 175.355,12.389 180.267 C 12.161 183.127,11.801 186.127,11.588 186.933 C 11.375 187.740,11.018 189.060,10.795 189.867 C 10.386 191.344,10.114 193.603,9.609 199.733 C 9.434 201.851,9.099 203.796,8.691 205.067 C 7.925 207.453,7.565 209.932,7.190 215.423 C 6.989 218.361,6.731 220.087,6.272 221.556 C 5.399 224.351,5.117 226.128,4.802 230.800 C 4.479 235.587,4.351 236.471,3.714 238.324 C 2.975 240.471,2.686 242.331,2.261 247.693 C 1.785 253.696,1.562 254.667,0.656 254.667 L 0.000 254.667 0.000 257.600 C 0.000 260.531,0.000 260.533,0.650 260.533 C 1.224 260.533,1.321 260.682,1.471 261.800 C 1.760 263.943,1.976 264.385,2.822 264.568 C 4.227 264.873,356.959 264.828,357.761 264.523 C 358.635 264.191,358.923 264.506,358.929 265.800 C 358.937 267.437,360.152 267.011,360.380 265.292 C 360.481 264.536,360.787 263.246,361.061 262.425 C 361.864 260.025,362.110 258.421,362.531 252.837 C 362.810 249.130,363.085 247.108,363.459 246.023 C 364.291 243.604,364.746 240.733,365.065 235.886 C 365.283 232.585,365.526 230.873,365.990 229.371 C 366.931 226.328,367.145 225.034,367.457 220.517 C 367.784 215.791,368.114 213.498,368.654 212.205 C 369.236 210.812,369.803 206.982,370.131 202.231 C 370.357 198.950,370.609 197.299,371.190 195.278 C 371.981 192.531,372.386 189.675,372.692 184.686 C 372.790 183.083,373.029 181.163,373.223 180.419 C 373.417 179.675,373.818 178.167,374.114 177.067 C 374.446 175.834,374.816 172.972,375.077 169.610 C 375.373 165.810,375.659 163.706,376.019 162.682 C 376.828 160.380,377.302 157.410,377.610 152.722 C 377.766 150.345,378.061 147.740,378.265 146.933 C 378.469 146.127,378.880 144.510,379.179 143.341 C 379.498 142.091,379.891 139.032,380.133 135.917 C 380.423 132.185,380.702 130.173,381.076 129.110 C 381.874 126.841,382.357 123.797,382.654 119.152 C 382.918 115.039,383.170 113.349,383.743 111.841 C 384.363 110.212,384.807 107.265,385.179 102.329 C 385.391 99.501,385.745 96.650,385.964 95.993 C 386.896 93.199,387.220 91.312,387.611 86.400 C 387.839 83.540,388.199 80.540,388.412 79.733 C 388.625 78.927,388.982 77.607,389.205 76.800 C 389.614 75.323,389.886 73.064,390.391 66.933 C 390.566 64.816,390.901 62.870,391.309 61.600 C 392.075 59.214,392.435 56.735,392.810 51.244 C 393.011 48.306,393.269 46.579,393.728 45.111 C 394.601 42.316,394.883 40.539,395.198 35.867 C 395.521 31.080,395.649 30.196,396.286 28.343 C 397.025 26.195,397.314 24.335,397.739 18.974 C 398.215 12.970,398.438 12.000,399.344 12.000 L 400.000 12.000 400.000 9.067 C 400.000 6.135,400.000 6.133,399.350 6.133 C 398.776 6.133,398.679 5.985,398.529 4.867 C 398.240 2.723,398.024 2.281,397.178 2.098 C 395.773 1.794,43.041 1.839,42.239 2.144 C 41.365 2.476,41.077 2.161,41.071 0.867 C 41.063 -0.770,39.848 -0.345,39.620 1.375 M396.805 3.353 C 397.432 3.981,397.205 6.691,396.375 8.474 C 395.661 10.008,395.213 12.874,394.820 18.442 C 394.516 22.728,394.322 24.123,393.892 25.087 C 393.139 26.781,392.598 30.283,392.285 35.502 C 392.118 38.282,391.860 40.371,391.592 41.102 C 390.459 44.194,390.256 45.539,389.616 54.182 C 389.462 56.272,389.207 57.871,388.950 58.368 C 388.204 59.810,387.744 62.451,387.458 66.933 C 387.158 71.631,386.772 74.618,386.406 75.061 C 385.705 75.909,385.163 79.635,384.553 87.784 C 384.395 89.896,384.153 91.400,383.910 91.784 C 383.078 93.098,382.591 96.324,382.141 103.507 C 381.979 106.078,381.744 107.765,381.453 108.441 C 380.626 110.354,380.273 112.124,379.996 115.733 C 379.455 122.788,379.212 124.800,378.828 125.397 C 378.170 126.419,377.609 129.913,377.221 135.408 C 376.926 139.586,376.730 140.968,376.265 142.133 C 375.465 144.137,374.982 147.311,374.683 152.539 C 374.429 156.956,374.374 157.318,373.727 158.800 C 373.086 160.268,372.559 163.558,372.276 167.867 C 371.910 173.429,371.753 174.688,371.344 175.336 C 370.724 176.316,370.134 179.671,369.856 183.792 C 369.494 189.159,369.185 191.417,368.671 192.445 C 367.994 193.802,367.509 196.931,367.208 201.899 C 366.885 207.215,366.807 207.737,366.108 209.222 C 365.470 210.578,364.893 214.605,364.564 220.000 C 364.360 223.337,364.185 224.467,363.652 225.867 C 362.817 228.060,362.470 230.318,362.130 235.782 C 361.850 240.274,361.680 241.337,360.986 242.935 C 360.352 244.395,360.032 246.633,359.626 252.439 C 359.331 256.647,359.134 258.073,358.714 259.022 C 358.419 259.688,358.041 260.891,357.875 261.696 C 357.658 262.740,357.387 263.278,356.927 263.580 C 356.341 263.964,340.398 263.996,180.016 263.934 L 3.748 263.867 3.195 263.313 C 2.568 262.686,2.795 259.976,3.625 258.193 C 4.339 256.658,4.787 253.792,5.180 248.225 C 5.484 243.938,5.678 242.544,6.108 241.580 C 6.861 239.886,7.402 236.383,7.715 231.165 C 7.882 228.385,8.140 226.295,8.408 225.565 C 9.541 222.472,9.744 221.127,10.384 212.485 C 10.538 210.395,10.793 208.796,11.050 208.298 C 11.796 206.857,12.256 204.216,12.542 199.733 C 12.842 195.036,13.228 192.049,13.594 191.606 C 14.295 190.757,14.837 187.032,15.447 178.883 C 15.605 176.771,15.847 175.267,16.090 174.883 C 16.922 173.569,17.409 170.343,17.859 163.159 C 18.021 160.588,18.256 158.901,18.547 158.226 C 19.374 156.313,19.727 154.542,20.004 150.933 C 20.545 143.879,20.788 141.866,21.172 141.270 C 21.830 140.248,22.391 136.753,22.779 131.259 C 23.074 127.081,23.270 125.699,23.735 124.533 C 24.535 122.529,25.018 119.355,25.317 114.128 C 25.571 109.711,25.626 109.349,26.273 107.867 C 26.914 106.399,27.441 103.108,27.724 98.800 C 28.090 93.237,28.247 91.979,28.656 91.331 C 29.276 90.351,29.866 86.996,30.144 82.875 C 30.506 77.508,30.815 75.249,31.329 74.222 C 32.006 72.865,32.491 69.736,32.792 64.768 C 33.115 59.452,33.193 58.930,33.892 57.444 C 34.530 56.089,35.107 52.062,35.436 46.667 C 35.640 43.330,35.815 42.199,36.348 40.800 C 37.183 38.607,37.530 36.349,37.870 30.885 C 38.150 26.393,38.320 25.329,39.014 23.731 C 39.647 22.272,39.968 20.034,40.373 14.243 C 40.668 10.029,40.866 8.606,41.301 7.576 C 41.605 6.856,41.982 5.667,42.139 4.933 C 42.312 4.125,42.656 3.418,43.012 3.139 C 43.568 2.703,53.140 2.681,219.926 2.739 L 396.252 2.800 396.805 3.353 M39.436 14.400 C 39.436 17.253,39.128 19.051,38.774 18.267 C 38.461 17.573,38.462 11.836,38.776 10.800 L 39.018 10.000 39.227 11.067 C 39.342 11.653,39.436 13.153,39.436 14.400 M396.691 15.103 C 396.908 16.262,396.674 21.244,396.367 22.000 C 395.884 23.186,395.529 18.101,395.903 15.371 C 396.106 13.887,396.442 13.773,396.691 15.103 M36.916 30.665 C 36.926 32.206,36.823 33.947,36.689 34.533 L 36.444 35.600 36.114 34.267 C 35.684 32.526,35.668 31.397,36.037 28.911 C 36.458 26.083,36.894 26.953,36.916 30.665 M394.234 34.000 C 394.278 37.204,393.894 39.956,393.564 38.800 C 392.976 36.736,393.318 29.412,393.932 30.933 C 394.080 31.300,394.216 32.680,394.234 34.000 M34.353 47.600 C 34.362 49.067,34.277 50.747,34.164 51.333 L 33.958 52.400 33.613 51.200 C 33.262 49.977,33.370 45.408,33.784 44.000 L 33.980 43.333 34.158 44.133 C 34.256 44.573,34.344 46.133,34.353 47.600 M391.722 49.483 C 391.996 51.373,391.618 55.733,391.181 55.733 C 390.832 55.733,390.587 52.303,390.775 50.054 C 391.046 46.801,391.311 46.641,391.722 49.483 M31.867 64.213 C 31.867 67.110,31.626 69.048,31.305 68.727 C 30.955 68.377,30.746 64.029,30.997 62.335 C 31.421 59.480,31.867 60.443,31.867 64.213 M389.253 66.684 C 389.453 69.028,388.802 73.734,388.499 72.133 C 388.244 70.785,388.211 66.610,388.443 64.922 C 388.669 63.270,389.029 64.052,389.253 66.684 M29.335 81.067 C 29.339 82.607,29.242 84.347,29.120 84.933 L 28.899 86.000 28.583 84.587 C 28.184 82.802,28.184 81.513,28.586 78.667 C 28.995 75.761,29.324 76.814,29.335 81.067 M386.736 84.133 C 386.779 86.847,386.433 89.207,386.049 88.822 C 385.680 88.454,385.623 83.301,385.969 81.733 L 386.205 80.667 386.456 81.467 C 386.594 81.907,386.720 83.107,386.736 84.133 M26.844 98.893 C 26.707 101.981,26.291 102.965,25.985 100.924 C 25.761 99.431,25.983 94.591,26.299 94.083 C 26.686 93.462,26.972 95.993,26.844 98.893 M384.133 101.146 C 384.133 102.789,384.025 104.613,383.893 105.200 L 383.653 106.267 383.431 105.333 C 382.903 103.116,383.219 97.246,383.833 97.860 C 384.020 98.046,384.133 99.289,384.133 101.146 M24.302 114.533 C 24.295 116.147,24.184 117.887,24.055 118.400 L 23.822 119.333 23.478 117.733 C 23.147 116.194,23.205 113.851,23.642 111.137 L 23.825 110.000 24.070 110.800 C 24.205 111.240,24.309 112.920,24.302 114.533 M381.722 116.445 C 381.979 118.322,381.364 123.322,380.991 122.390 C 380.660 121.564,380.597 116.488,380.900 115.067 C 381.169 113.800,381.415 114.213,381.722 116.445 M21.781 132.346 C 21.716 133.930,21.589 135.300,21.498 135.391 C 20.702 136.187,20.503 130.420,21.234 127.733 C 21.576 126.475,21.907 129.269,21.781 132.346 M379.064 132.467 C 379.154 133.163,379.263 133.917,379.307 134.141 C 379.402 134.631,379.021 137.999,378.765 138.933 C 378.317 140.566,377.932 135.145,378.303 132.437 C 378.521 130.844,378.856 130.857,379.064 132.467 M19.300 147.733 C 19.331 150.848,19.017 153.044,18.670 152.133 C 18.203 150.905,18.108 148.691,18.418 146.232 C 18.839 142.890,19.259 143.605,19.300 147.733 M376.642 151.067 C 376.676 154.340,376.293 157.002,375.952 155.867 C 375.360 153.895,375.724 146.516,376.340 148.000 C 376.492 148.367,376.628 149.747,376.642 151.067 M16.823 164.400 C 16.865 167.223,16.569 169.209,16.167 168.807 C 15.802 168.443,15.758 163.017,16.107 161.467 L 16.347 160.400 16.569 161.333 C 16.692 161.847,16.806 163.227,16.823 164.400 M374.064 169.286 C 373.911 172.865,373.477 173.741,373.188 171.050 C 372.985 169.148,373.183 165.258,373.511 164.728 C 373.912 164.079,374.189 166.359,374.064 169.286 M14.242 181.413 C 14.228 183.203,14.095 184.964,13.946 185.328 C 13.455 186.530,13.025 182.965,13.335 180.267 C 13.479 179.020,13.597 177.886,13.598 177.747 C 13.599 177.607,13.750 177.643,13.933 177.827 C 14.167 178.060,14.259 179.137,14.242 181.413 M371.645 183.499 C 371.790 184.882,371.278 190.300,371.026 190.048 C 370.697 189.719,370.500 184.737,370.741 182.846 C 371.048 180.441,371.348 180.658,371.645 183.499 M11.703 198.267 C 11.703 199.733,11.612 201.413,11.501 202.000 L 11.299 203.067 10.983 201.654 C 10.582 199.862,10.583 198.168,10.986 195.544 C 11.393 192.888,11.703 194.063,11.703 198.267 M369.053 200.284 C 369.313 202.861,368.923 206.363,368.432 205.872 C 368.084 205.524,368.017 199.753,368.346 198.569 C 368.657 197.453,368.803 197.809,369.053 200.284 M9.214 212.705 C 9.431 214.734,9.167 218.673,8.788 219.052 C 8.628 219.212,8.531 219.212,8.528 219.053 C 8.525 218.914,8.407 218.020,8.266 217.067 C 8.003 215.288,8.396 210.933,8.819 210.933 C 8.932 210.933,9.110 211.731,9.214 212.705 M366.533 218.267 C 366.533 219.880,366.423 221.680,366.289 222.267 L 366.045 223.333 365.854 222.533 C 365.603 221.482,365.554 217.213,365.773 215.609 C 366.078 213.390,366.533 214.984,366.533 218.267 M6.732 230.933 C 6.823 233.980,6.450 236.680,6.068 235.733 C 5.722 234.875,5.665 230.730,5.971 228.667 C 6.283 226.557,6.632 227.594,6.732 230.933 M364.241 234.722 C 364.291 236.652,363.689 239.854,363.380 239.302 C 363.031 238.679,362.982 233.568,363.311 232.133 L 363.556 231.067 363.886 232.400 C 364.067 233.133,364.227 234.178,364.241 234.722 M4.181 249.413 C 4.065 252.231,3.937 252.827,3.533 252.422 C 3.250 252.138,3.284 245.897,3.574 244.933 L 3.815 244.133 4.057 245.333 C 4.190 245.993,4.246 247.829,4.181 249.413 M361.467 251.813 C 361.467 253.603,361.358 255.427,361.224 255.867 L 360.982 256.667 360.773 255.600 C 360.298 253.175,360.596 247.690,361.172 248.265 C 361.355 248.448,361.467 249.792,361.467 251.813 " stroke="none" fill="#c2c257" fill-rule="evenodd"></path><path id="path2" d="M43.012 3.139 C 42.656 3.418,42.312 4.125,42.139 4.933 C 41.982 5.667,41.605 6.856,41.301 7.576 C 40.866 8.606,40.668 10.029,40.373 14.243 C 39.968 20.034,39.647 22.272,39.014 23.731 C 38.320 25.329,38.150 26.393,37.870 30.885 C 37.530 36.349,37.183 38.607,36.348 40.800 C 35.815 42.199,35.640 43.330,35.436 46.667 C 35.107 52.062,34.530 56.089,33.892 57.444 C 33.193 58.930,33.115 59.452,32.792 64.768 C 32.491 69.736,32.006 72.865,31.329 74.222 C 30.815 75.249,30.506 77.508,30.144 82.875 C 29.866 86.996,29.276 90.351,28.656 91.331 C 28.247 91.979,28.090 93.237,27.724 98.800 C 27.441 103.108,26.914 106.399,26.273 107.867 C 25.626 109.349,25.571 109.711,25.317 114.128 C 25.018 119.355,24.535 122.529,23.735 124.533 C 23.270 125.699,23.074 127.081,22.779 131.259 C 22.391 136.753,21.830 140.248,21.172 141.270 C 20.788 141.866,20.545 143.879,20.004 150.933 C 19.727 154.542,19.374 156.313,18.547 158.226 C 18.256 158.901,18.021 160.588,17.859 163.159 C 17.409 170.343,16.922 173.569,16.090 174.883 C 15.847 175.267,15.605 176.771,15.447 178.883 C 14.837 187.032,14.295 190.757,13.594 191.606 C 13.228 192.049,12.842 195.036,12.542 199.733 C 12.256 204.216,11.796 206.857,11.050 208.298 C 10.793 208.796,10.538 210.395,10.384 212.485 C 9.744 221.127,9.541 222.472,8.408 225.565 C 8.140 226.295,7.882 228.385,7.715 231.165 C 7.402 236.383,6.861 239.886,6.108 241.580 C 5.678 242.544,5.484 243.938,5.180 248.225 C 4.787 253.792,4.339 256.658,3.625 258.193 C 2.795 259.976,2.568 262.686,3.195 263.313 L 3.748 263.867 180.016 263.934 C 340.398 263.996,356.341 263.964,356.927 263.580 C 357.387 263.278,357.658 262.740,357.875 261.696 C 358.041 260.891,358.419 259.688,358.714 259.022 C 359.134 258.073,359.331 256.647,359.626 252.439 C 360.032 246.633,360.352 244.395,360.986 242.935 C 361.680 241.337,361.850 240.274,362.130 235.782 C 362.470 230.318,362.817 228.060,363.652 225.867 C 364.185 224.467,364.360 223.337,364.564 220.000 C 364.893 214.605,365.470 210.578,366.108 209.222 C 366.807 207.737,366.885 207.215,367.208 201.899 C 367.509 196.931,367.994 193.802,368.671 192.445 C 369.185 191.417,369.494 189.159,369.856 183.792 C 370.134 179.671,370.724 176.316,371.344 175.336 C 371.753 174.688,371.910 173.429,372.276 167.867 C 372.559 163.558,373.086 160.268,373.727 158.800 C 374.374 157.318,374.429 156.956,374.683 152.539 C 374.982 147.311,375.465 144.137,376.265 142.133 C 376.730 140.968,376.926 139.586,377.221 135.408 C 377.609 129.913,378.170 126.419,378.828 125.397 C 379.212 124.800,379.455 122.788,379.996 115.733 C 380.273 112.124,380.626 110.354,381.453 108.441 C 381.744 107.765,381.979 106.078,382.141 103.507 C 382.591 96.324,383.078 93.098,383.910 91.784 C 384.153 91.400,384.395 89.896,384.553 87.784 C 385.163 79.635,385.705 75.909,386.406 75.061 C 386.772 74.618,387.158 71.631,387.458 66.933 C 387.744 62.451,388.204 59.810,388.950 58.368 C 389.207 57.871,389.462 56.272,389.616 54.182 C 390.256 45.539,390.459 44.194,391.592 41.102 C 391.860 40.371,392.118 38.282,392.285 35.502 C 392.598 30.283,393.139 26.781,393.892 25.087 C 394.322 24.123,394.516 22.728,394.820 18.442 C 395.213 12.874,395.661 10.008,396.375 8.474 C 397.205 6.691,397.432 3.981,396.805 3.353 L 396.252 2.800 219.926 2.739 C 53.140 2.681,43.568 2.703,43.012 3.139 M394.736 3.441 C 396.378 3.711,396.394 3.738,395.717 5.038 C 394.988 6.438,394.502 9.808,394.174 15.743 C 393.951 19.774,393.836 20.555,393.338 21.399 C 392.532 22.765,392.034 25.962,391.736 31.687 C 391.506 36.093,391.410 36.741,390.788 38.094 C 389.965 39.884,389.468 43.282,389.101 49.613 C 388.884 53.367,388.760 54.171,388.270 55.001 C 387.469 56.359,386.996 59.396,386.680 65.218 C 386.441 69.608,386.331 70.369,385.751 71.637 C 384.834 73.639,384.554 75.399,384.268 80.933 C 384.015 85.841,383.831 87.379,383.433 87.890 C 382.524 89.056,381.979 92.460,381.618 99.209 C 381.391 103.445,381.303 104.010,380.679 105.212 C 379.895 106.724,379.215 111.016,379.203 114.533 C 379.193 117.561,378.761 120.941,378.293 121.656 C 377.366 123.074,376.973 125.634,376.544 133.067 C 376.339 136.607,376.208 137.410,375.633 138.667 C 374.753 140.585,374.426 142.780,374.130 148.739 C 373.914 153.073,373.810 153.809,373.232 155.072 C 372.280 157.151,372.034 158.678,371.621 165.067 C 371.288 170.218,371.181 170.950,370.566 172.275 C 369.714 174.110,369.376 176.422,369.073 182.485 C 368.872 186.498,368.748 187.403,368.274 188.313 C 367.357 190.072,366.936 192.517,366.664 197.668 C 366.360 203.428,366.235 204.323,365.548 205.639 C 364.792 207.090,364.335 210.151,364.032 215.786 C 363.806 219.999,363.678 220.929,363.196 221.874 C 362.301 223.630,361.892 226.132,361.596 231.680 C 361.423 234.928,361.176 237.215,360.927 237.880 C 360.711 238.459,360.360 239.395,360.149 239.959 C 359.628 241.347,359.239 244.583,358.951 249.900 C 358.758 253.462,358.608 254.537,358.183 255.368 C 357.466 256.774,357.129 258.123,356.834 260.768 C 356.684 262.112,356.442 263.094,356.226 263.231 C 355.776 263.516,6.998 263.511,5.264 263.226 C 3.622 262.956,3.606 262.928,4.283 261.629 C 5.012 260.229,5.498 256.858,5.826 250.923 C 6.049 246.893,6.164 246.112,6.662 245.268 C 7.468 243.902,7.966 240.705,8.264 234.980 C 8.494 230.574,8.590 229.926,9.212 228.572 C 10.035 226.783,10.532 223.385,10.899 217.054 C 11.116 213.300,11.240 212.496,11.730 211.665 C 12.531 210.307,13.004 207.270,13.320 201.448 C 13.559 197.058,13.669 196.297,14.249 195.029 C 15.166 193.028,15.446 191.268,15.732 185.733 C 15.985 180.825,16.169 179.288,16.567 178.777 C 17.476 177.611,18.021 174.207,18.382 167.457 C 18.609 163.221,18.697 162.657,19.321 161.454 C 20.105 159.943,20.785 155.650,20.797 152.133 C 20.807 149.105,21.239 145.726,21.707 145.010 C 22.634 143.593,23.027 141.033,23.456 133.600 C 23.661 130.059,23.792 129.256,24.367 128.000 C 25.247 126.081,25.574 123.887,25.870 117.927 C 26.086 113.594,26.190 112.858,26.768 111.595 C 27.720 109.516,27.966 107.989,28.379 101.600 C 28.712 96.449,28.819 95.717,29.434 94.392 C 30.286 92.556,30.624 90.245,30.927 84.182 C 31.128 80.169,31.252 79.264,31.726 78.354 C 32.643 76.595,33.064 74.150,33.336 68.999 C 33.640 63.238,33.765 62.344,34.452 61.028 C 35.208 59.577,35.665 56.516,35.968 50.880 C 36.194 46.668,36.322 45.738,36.804 44.793 C 37.699 43.037,38.108 40.535,38.404 34.987 C 38.577 31.738,38.824 29.452,39.073 28.787 C 39.289 28.207,39.640 27.272,39.851 26.707 C 40.372 25.320,40.761 22.084,41.049 16.766 C 41.242 13.204,41.392 12.130,41.817 11.298 C 42.534 9.893,42.871 8.543,43.166 5.898 C 43.316 4.555,43.558 3.572,43.774 3.436 C 44.224 3.150,393.002 3.155,394.736 3.441 " stroke="none" fill="#dcdc34" fill-rule="evenodd"></path></g></svg>